<svg width="184" height="400" viewBox="0 0 184 400" fill="none" xmlns="http://www.w3.org/2000/svg">
<g clip-path="url(#clip0_283_12054)">
<rect width="183.982" height="400" fill="#979797"/>
<g clip-path="url(#clip1_283_12054)">
<rect width="184.834" height="400" fill="#00C7BE"/>
<g clip-path="url(#clip2_283_12054)">
<path d="M27.4499 190.782C29.2429 190.782 30.6964 189.329 30.6964 187.536C30.6964 185.743 29.2429 184.289 27.4499 184.289C25.6569 184.289 24.2035 185.743 24.2035 187.536C24.2035 189.329 25.6569 190.782 27.4499 190.782Z" stroke="white" stroke-width="0.805687"/>
<path d="M27.4499 215.635C29.2429 215.635 30.6964 214.182 30.6964 212.389C30.6964 210.596 29.2429 209.142 27.4499 209.142C25.6569 209.142 24.2035 210.596 24.2035 212.389C24.2035 214.182 25.6569 215.635 27.4499 215.635Z" stroke="white" stroke-width="0.805687"/>
<path d="M36.2367 194.422C38.0296 194.422 39.4831 192.968 39.4831 191.175C39.4831 189.382 38.0296 187.929 36.2367 187.929C34.4437 187.929 32.9902 189.382 32.9902 191.175C32.9902 192.968 34.4437 194.422 36.2367 194.422Z" stroke="white" stroke-width="0.805687"/>
<path d="M18.6632 211.995C20.4561 211.995 21.9096 210.542 21.9096 208.749C21.9096 206.956 20.4561 205.502 18.6632 205.502C16.8702 205.502 15.4167 206.956 15.4167 208.749C15.4167 210.542 16.8702 211.995 18.6632 211.995Z" stroke="white" stroke-width="0.805687"/>
<path d="M39.8766 203.209C41.6695 203.209 43.123 201.755 43.123 199.962C43.123 198.169 41.6695 196.716 39.8766 196.716C38.0836 196.716 36.6301 198.169 36.6301 199.962C36.6301 201.755 38.0836 203.209 39.8766 203.209Z" stroke="white" stroke-width="0.805687"/>
<path d="M15.0235 203.209C16.8165 203.209 18.2699 201.755 18.2699 199.962C18.2699 198.169 16.8165 196.716 15.0235 196.716C13.2305 196.716 11.7771 198.169 11.7771 199.962C11.7771 201.755 13.2305 203.209 15.0235 203.209Z" stroke="white" stroke-width="0.805687"/>
<path d="M36.2367 211.995C38.0296 211.995 39.4831 210.542 39.4831 208.749C39.4831 206.956 38.0296 205.502 36.2367 205.502C34.4437 205.502 32.9902 206.956 32.9902 208.749C32.9902 210.542 34.4437 211.995 36.2367 211.995Z" stroke="white" stroke-width="0.805687"/>
<path d="M18.6632 194.422C20.4561 194.422 21.9096 192.968 21.9096 191.175C21.9096 189.382 20.4561 187.929 18.6632 187.929C16.8702 187.929 15.4167 189.382 15.4167 191.175C15.4167 192.968 16.8702 194.422 18.6632 194.422Z" stroke="white" stroke-width="0.805687"/>
<path d="M69.6016 186.972H47.2272V189.36H57.104V213.114H59.7248V189.36H69.6016V186.972Z" fill="white"/>
<path d="M66.54 213.114H69.3078L72.2651 206.095H86.8575L89.8149 213.114H92.5827L81.3931 186.972H77.7248L66.54 213.114ZM73.2746 203.701L79.5589 188.839L85.8433 203.701H73.2699H73.2746Z" fill="white"/>
<path d="M98.7059 188.654L114.047 213.114H118.497V186.972H115.877V211.431L100.54 186.972H96.0898V213.114H98.7107V188.654H98.7059Z" fill="white"/>
<path d="M124.474 213.114H134.014C142.095 213.114 146.734 207.697 146.734 200.043C146.734 192.389 142.095 186.972 134.014 186.972H124.474V213.114ZM127.095 189.36H134.019C140.417 189.36 144.123 193.355 144.123 200.043C144.123 206.73 140.417 210.725 134.019 210.725H127.095V189.36Z" fill="white"/>
<path d="M147.692 213.114H150.46L153.417 206.095H168.009L170.967 213.114H173.734L162.545 186.972H158.877L147.687 213.114H147.692ZM154.426 203.701L160.711 188.839L166.995 203.701H154.422H154.426Z" fill="white"/>
</g>
<g clip-path="url(#clip3_283_12054)">
<rect x="18.4833" y="358.217" width="151.659" height="19.4787" rx="9.73934" fill="white"/>
<path d="M85.3843 368.741C85.3843 368.644 85.3691 368.558 85.3389 368.482C85.3108 368.406 85.2601 368.337 85.1866 368.275C85.1132 368.212 85.0095 368.152 84.8756 368.093C84.7439 368.033 84.5754 367.971 84.3702 367.909C84.1456 367.84 83.9382 367.763 83.7482 367.679C83.5603 367.592 83.3961 367.493 83.2557 367.381C83.1153 367.266 83.0063 367.135 82.9285 366.989C82.8508 366.839 82.8119 366.668 82.8119 366.473C82.8119 366.281 82.8518 366.106 82.9317 365.949C83.0138 365.791 83.1294 365.655 83.2784 365.54C83.4296 365.424 83.6078 365.334 83.813 365.271C84.0182 365.207 84.2449 365.174 84.4933 365.174C84.8432 365.174 85.1445 365.239 85.3972 365.369C85.6521 365.498 85.8476 365.672 85.9836 365.89C86.1219 366.108 86.191 366.349 86.191 366.613H85.3843C85.3843 366.457 85.3508 366.32 85.2838 366.201C85.219 366.08 85.1197 365.985 84.9858 365.916C84.854 365.847 84.6866 365.812 84.4836 365.812C84.2914 365.812 84.1315 365.842 84.0041 365.9C83.8767 365.958 83.7817 366.037 83.719 366.136C83.6564 366.236 83.6251 366.348 83.6251 366.473C83.6251 366.562 83.6456 366.643 83.6866 366.716C83.7277 366.788 83.7903 366.855 83.8745 366.917C83.9588 366.978 84.0646 367.035 84.192 367.089C84.3195 367.143 84.4696 367.195 84.6424 367.244C84.9037 367.322 85.1316 367.409 85.3259 367.504C85.5203 367.597 85.6823 367.702 85.8119 367.821C85.9415 367.94 86.0387 368.075 86.1035 368.226C86.1683 368.375 86.2007 368.545 86.2007 368.735C86.2007 368.933 86.1607 369.113 86.0808 369.273C86.0009 369.43 85.8864 369.565 85.7374 369.678C85.5905 369.788 85.4134 369.873 85.2061 369.933C85.0009 369.992 84.7719 370.021 84.5192 370.021C84.2925 370.021 84.0689 369.991 83.8486 369.93C83.6305 369.87 83.4318 369.778 83.2525 369.655C83.0732 369.53 82.9307 369.374 82.8248 369.188C82.719 369 82.6661 368.781 82.6661 368.531H83.4793C83.4793 368.684 83.5052 368.815 83.557 368.923C83.611 369.031 83.6855 369.119 83.7806 369.188C83.8756 369.255 83.9858 369.305 84.111 369.337C84.2385 369.37 84.3745 369.386 84.5192 369.386C84.7093 369.386 84.8681 369.359 84.9955 369.305C85.1251 369.251 85.2223 369.175 85.2871 369.078C85.3519 368.981 85.3843 368.869 85.3843 368.741ZM87.7254 366.451V369.956H86.9414V366.451H87.7254ZM86.8896 365.531C86.8896 365.412 86.9284 365.314 87.0062 365.236C87.0861 365.156 87.1963 365.116 87.3366 365.116C87.4749 365.116 87.584 365.156 87.6639 365.236C87.7438 365.314 87.7837 365.412 87.7837 365.531C87.7837 365.647 87.7438 365.744 87.6639 365.822C87.584 365.9 87.4749 365.939 87.3366 365.939C87.1963 365.939 87.0861 365.9 87.0062 365.822C86.9284 365.744 86.8896 365.647 86.8896 365.531ZM90.8733 366.451H91.5828V369.859C91.5828 370.174 91.5158 370.442 91.3819 370.662C91.248 370.883 91.0612 371.05 90.8214 371.165C90.5817 371.281 90.3042 371.34 89.9888 371.34C89.8549 371.34 89.7059 371.32 89.5417 371.281C89.3797 371.242 89.2221 371.18 89.0687 371.093C88.9175 371.009 88.7912 370.898 88.6897 370.76L89.0558 370.3C89.181 370.449 89.3193 370.558 89.4705 370.627C89.6217 370.696 89.7804 370.73 89.9467 370.73C90.126 370.73 90.2782 370.697 90.4035 370.63C90.5309 370.565 90.6292 370.469 90.6983 370.342C90.7675 370.214 90.802 370.059 90.802 369.875V367.244L90.8733 366.451ZM88.492 368.242V368.174C88.492 367.909 88.5244 367.667 88.5892 367.449C88.654 367.228 88.7469 367.039 88.8679 366.882C88.9888 366.722 89.1357 366.6 89.3085 366.516C89.4813 366.429 89.6767 366.386 89.8949 366.386C90.1217 366.386 90.315 366.427 90.4748 366.509C90.6368 366.591 90.7718 366.709 90.8798 366.862C90.9878 367.013 91.072 367.195 91.1325 367.406C91.1951 367.616 91.2415 367.849 91.2718 368.106V368.323C91.2437 368.574 91.1962 368.803 91.1292 369.01C91.0623 369.217 90.9737 369.397 90.8636 369.548C90.7534 369.699 90.6173 369.816 90.4554 369.898C90.2955 369.98 90.1065 370.021 89.8884 370.021C89.6746 370.021 89.4813 369.977 89.3085 369.888C89.1378 369.8 88.991 369.675 88.8679 369.516C88.7469 369.356 88.654 369.168 88.5892 368.952C88.5244 368.734 88.492 368.497 88.492 368.242ZM89.2728 368.174V368.242C89.2728 368.402 89.288 368.551 89.3182 368.689C89.3506 368.828 89.3992 368.95 89.464 369.056C89.5309 369.159 89.6152 369.241 89.7167 369.302C89.8204 369.36 89.9424 369.389 90.0828 369.389C90.2664 369.389 90.4165 369.35 90.5331 369.273C90.6519 369.195 90.7426 369.09 90.8053 368.958C90.87 368.824 90.9154 368.675 90.9413 368.511V367.925C90.9284 367.797 90.9014 367.679 90.8603 367.568C90.8214 367.458 90.7685 367.362 90.7016 367.28C90.6346 367.196 90.5504 367.131 90.4489 367.086C90.3474 367.038 90.2275 367.014 90.0893 367.014C89.9489 367.014 89.8268 367.045 89.7232 367.105C89.6195 367.166 89.5342 367.249 89.4672 367.355C89.4024 367.46 89.3538 367.584 89.3214 367.724C89.289 367.864 89.2728 368.014 89.2728 368.174ZM93.2144 367.199V369.956H92.4337V366.451H93.1691L93.2144 367.199ZM93.0751 368.074L92.8224 368.071C92.8246 367.822 92.8591 367.594 92.9261 367.387C92.9952 367.18 93.0903 367.001 93.2112 366.852C93.3343 366.703 93.4812 366.589 93.6518 366.509C93.8224 366.427 94.0125 366.386 94.222 366.386C94.3905 366.386 94.5428 366.41 94.6788 366.457C94.8171 366.503 94.9348 366.577 95.032 366.681C95.1313 366.784 95.2069 366.919 95.2587 367.086C95.3106 367.25 95.3365 367.452 95.3365 367.692V369.956H94.5525V367.688C94.5525 367.52 94.5276 367.387 94.478 367.29C94.4304 367.19 94.3602 367.12 94.2674 367.079C94.1767 367.036 94.0633 367.014 93.9272 367.014C93.7933 367.014 93.6734 367.043 93.5676 367.099C93.4617 367.155 93.3721 367.232 93.2987 367.329C93.2274 367.426 93.1723 367.538 93.1334 367.666C93.0946 367.793 93.0751 367.929 93.0751 368.074ZM97.7522 367.63V368.252H96.0383V367.63H97.7522ZM101.208 365.239H102.018V368.391C102.018 368.75 101.94 369.05 101.784 369.292C101.629 369.534 101.417 369.716 101.149 369.84C100.884 369.96 100.587 370.021 100.259 370.021C99.9195 370.021 99.6171 369.96 99.3514 369.84C99.0858 369.716 98.8763 369.534 98.7229 369.292C98.5717 369.05 98.4961 368.75 98.4961 368.391V365.239H99.3061V368.391C99.3061 368.618 99.3449 368.805 99.4227 368.952C99.5005 369.097 99.6106 369.203 99.7532 369.273C99.8957 369.342 100.064 369.376 100.259 369.376C100.453 369.376 100.62 369.342 100.761 369.273C100.903 369.203 101.013 369.097 101.091 368.952C101.169 368.805 101.208 368.618 101.208 368.391V365.239ZM103.656 367.125V371.304H102.875V366.451H103.594L103.656 367.125ZM105.94 368.171V368.239C105.94 368.494 105.91 368.73 105.849 368.949C105.791 369.165 105.703 369.354 105.587 369.516C105.472 369.675 105.331 369.8 105.162 369.888C104.994 369.977 104.8 370.021 104.579 370.021C104.361 370.021 104.17 369.981 104.006 369.901C103.844 369.819 103.707 369.703 103.594 369.554C103.482 369.405 103.391 369.23 103.322 369.03C103.255 368.827 103.208 368.604 103.18 368.362V368.1C103.208 367.843 103.255 367.609 103.322 367.4C103.391 367.19 103.482 367.01 103.594 366.859C103.707 366.708 103.844 366.591 104.006 366.509C104.168 366.427 104.357 366.386 104.573 366.386C104.793 366.386 104.989 366.429 105.159 366.516C105.33 366.6 105.473 366.721 105.59 366.878C105.707 367.034 105.794 367.222 105.852 367.442C105.911 367.66 105.94 367.903 105.94 368.171ZM105.159 368.239V368.171C105.159 368.009 105.144 367.859 105.114 367.721C105.084 367.58 105.036 367.457 104.971 367.351C104.906 367.246 104.823 367.163 104.722 367.105C104.622 367.045 104.503 367.014 104.362 367.014C104.224 367.014 104.105 367.038 104.006 367.086C103.906 367.131 103.823 367.195 103.756 367.277C103.689 367.359 103.638 367.455 103.601 367.565C103.564 367.673 103.538 367.791 103.523 367.918V368.547C103.549 368.702 103.593 368.845 103.656 368.975C103.719 369.104 103.807 369.208 103.922 369.286C104.038 369.361 104.187 369.399 104.369 369.399C104.509 369.399 104.629 369.369 104.728 369.308C104.828 369.248 104.909 369.165 104.971 369.059C105.036 368.951 105.084 368.827 105.114 368.686C105.144 368.546 105.159 368.397 105.159 368.239Z" fill="#00C7BE"/>
</g>
<g clip-path="url(#clip4_283_12054)">
<rect x="18.4833" y="327.488" width="151.659" height="19.4787" rx="9.73934" fill="white"/>
<path d="M89.4036 338.583V339.227H87.0353V338.583H89.4036ZM87.2621 334.51V339.227H86.4489V334.51H87.2621ZM89.8528 337.514V337.439C89.8528 337.186 89.8895 336.952 89.9629 336.736C90.0363 336.518 90.1422 336.329 90.2804 336.169C90.4208 336.007 90.5914 335.882 90.7923 335.793C90.9953 335.703 91.2243 335.657 91.4791 335.657C91.7361 335.657 91.9651 335.703 92.166 335.793C92.369 335.882 92.5407 336.007 92.6811 336.169C92.8215 336.329 92.9284 336.518 93.0018 336.736C93.0753 336.952 93.112 337.186 93.112 337.439V337.514C93.112 337.766 93.0753 338.001 93.0018 338.217C92.9284 338.433 92.8215 338.622 92.6811 338.784C92.5407 338.943 92.3701 339.069 92.1692 339.159C91.9683 339.248 91.7405 339.292 91.4856 339.292C91.2286 339.292 90.9986 339.248 90.7955 339.159C90.5947 339.069 90.424 338.943 90.2836 338.784C90.1433 338.622 90.0363 338.433 89.9629 338.217C89.8895 338.001 89.8528 337.766 89.8528 337.514ZM90.6335 337.439V337.514C90.6335 337.671 90.6497 337.82 90.6821 337.961C90.7145 338.101 90.7653 338.224 90.8344 338.33C90.9035 338.436 90.9921 338.519 91.1001 338.58C91.2081 338.64 91.3366 338.67 91.4856 338.67C91.6303 338.67 91.7556 338.64 91.8614 338.58C91.9694 338.519 92.058 338.436 92.1271 338.33C92.1962 338.224 92.247 338.101 92.2793 337.961C92.3139 337.82 92.3312 337.671 92.3312 337.514V337.439C92.3312 337.284 92.3139 337.137 92.2793 336.998C92.247 336.858 92.1951 336.734 92.1238 336.626C92.0547 336.518 91.9662 336.434 91.8582 336.373C91.7523 336.311 91.626 336.279 91.4791 336.279C91.3323 336.279 91.2048 336.311 91.0968 336.373C90.991 336.434 90.9035 336.518 90.8344 336.626C90.7653 336.734 90.7145 336.858 90.6821 336.998C90.6497 337.137 90.6335 337.284 90.6335 337.439ZM96.059 335.722H96.7685V339.13C96.7685 339.446 96.7015 339.713 96.5676 339.934C96.4337 340.154 96.2469 340.321 96.0071 340.436C95.7674 340.553 95.4898 340.611 95.1745 340.611C95.0406 340.611 94.8916 340.591 94.7274 340.553C94.5654 340.514 94.4078 340.451 94.2544 340.365C94.1032 340.28 93.9769 340.169 93.8754 340.031L94.2415 339.571C94.3667 339.72 94.505 339.829 94.6561 339.898C94.8073 339.967 94.9661 340.002 95.1324 340.002C95.3117 340.002 95.4639 339.968 95.5892 339.901C95.7166 339.837 95.8149 339.74 95.884 339.613C95.9531 339.486 95.9877 339.33 95.9877 339.146V336.516L96.059 335.722ZM93.6777 337.514V337.446C93.6777 337.18 93.7101 336.938 93.7749 336.72C93.8397 336.5 93.9326 336.311 94.0535 336.153C94.1745 335.993 94.3214 335.871 94.4942 335.787C94.6669 335.7 94.8624 335.657 95.0806 335.657C95.3073 335.657 95.5006 335.698 95.6605 335.78C95.8225 335.862 95.9575 335.98 96.0655 336.133C96.1734 336.285 96.2577 336.466 96.3182 336.678C96.3808 336.887 96.4272 337.121 96.4575 337.378V337.595C96.4294 337.845 96.3819 338.074 96.3149 338.281C96.248 338.489 96.1594 338.668 96.0493 338.819C95.9391 338.97 95.803 339.087 95.641 339.169C95.4812 339.251 95.2922 339.292 95.0741 339.292C94.8603 339.292 94.6669 339.248 94.4942 339.159C94.3235 339.071 94.1767 338.947 94.0535 338.787C93.9326 338.627 93.8397 338.439 93.7749 338.223C93.7101 338.005 93.6777 337.768 93.6777 337.514ZM94.4585 337.446V337.514C94.4585 337.673 94.4736 337.822 94.5039 337.961C94.5363 338.099 94.5849 338.221 94.6497 338.327C94.7166 338.43 94.8009 338.513 94.9024 338.573C95.006 338.631 95.1281 338.661 95.2685 338.661C95.4521 338.661 95.6022 338.622 95.7188 338.544C95.8376 338.466 95.9283 338.361 95.9909 338.23C96.0557 338.096 96.1011 337.947 96.127 337.783V337.196C96.114 337.069 96.087 336.95 96.046 336.84C96.0071 336.73 95.9542 336.633 95.8873 336.551C95.8203 336.467 95.7361 336.402 95.6346 336.357C95.533 336.31 95.4132 336.286 95.2749 336.286C95.1346 336.286 95.0125 336.316 94.9088 336.376C94.8052 336.437 94.7199 336.52 94.6529 336.626C94.5881 336.732 94.5395 336.855 94.5071 336.995C94.4747 337.136 94.4585 337.286 94.4585 337.446ZM98.4617 335.722V339.227H97.6777V335.722H98.4617ZM97.6258 334.802C97.6258 334.683 97.6647 334.585 97.7425 334.507C97.8224 334.427 97.9325 334.387 98.0729 334.387C98.2111 334.387 98.3202 334.427 98.4001 334.507C98.48 334.585 98.52 334.683 98.52 334.802C98.52 334.919 98.48 335.016 98.4001 335.094C98.3202 335.171 98.2111 335.21 98.0729 335.21C97.9325 335.21 97.8224 335.171 97.7425 335.094C97.6647 335.016 97.6258 334.919 97.6258 334.802ZM100.139 336.47V339.227H99.3579V335.722H100.093L100.139 336.47ZM99.9994 337.345L99.7467 337.342C99.7488 337.094 99.7834 336.866 99.8503 336.658C99.9195 336.451 100.014 336.273 100.135 336.124C100.259 335.975 100.405 335.86 100.576 335.78C100.747 335.698 100.937 335.657 101.146 335.657C101.315 335.657 101.467 335.681 101.603 335.728C101.741 335.774 101.859 335.848 101.956 335.952C102.056 336.056 102.131 336.191 102.183 336.357C102.235 336.521 102.261 336.723 102.261 336.963V339.227H101.477V336.96C101.477 336.791 101.452 336.658 101.402 336.561C101.355 336.462 101.284 336.392 101.192 336.351C101.101 336.307 100.988 336.286 100.851 336.286C100.718 336.286 100.598 336.314 100.492 336.37C100.386 336.426 100.296 336.503 100.223 336.6C100.152 336.697 100.097 336.81 100.058 336.937C100.019 337.064 99.9994 337.2 99.9994 337.345Z" fill="#00C7BE"/>
</g>
<path fill-rule="evenodd" clip-rule="evenodd" d="M151.351 9.4787H151.825C152.086 9.4787 152.299 9.69089 152.299 9.95263V12.7962C152.299 13.058 152.086 13.2702 151.825 13.2702H151.351C151.089 13.2702 150.877 13.058 150.877 12.7962V9.95263C150.877 9.69089 151.089 9.4787 151.351 9.4787Z" fill="#F9F9F9"/>
<path fill-rule="evenodd" clip-rule="evenodd" d="M149.218 10.4265H149.692C149.954 10.4265 150.166 10.6387 150.166 10.9004V12.7962C150.166 13.0579 149.954 13.2701 149.692 13.2701H149.218C148.956 13.2701 148.744 13.0579 148.744 12.7962V10.9004C148.744 10.6387 148.956 10.4265 149.218 10.4265Z" fill="#F9F9F9"/>
<path fill-rule="evenodd" clip-rule="evenodd" d="M147.085 11.1375H147.559C147.821 11.1375 148.033 11.3496 148.033 11.6114V12.7962C148.033 13.058 147.821 13.2702 147.559 13.2702H147.085C146.824 13.2702 146.611 13.058 146.611 12.7962V11.6114C146.611 11.3496 146.824 11.1375 147.085 11.1375Z" fill="#F9F9F9"/>
<path fill-rule="evenodd" clip-rule="evenodd" d="M153.483 8.53082H153.957C154.219 8.53082 154.431 8.74301 154.431 9.00476V12.7962C154.431 13.058 154.219 13.2702 153.957 13.2702H153.483C153.222 13.2702 153.009 13.058 153.009 12.7962V9.00476C153.009 8.74301 153.222 8.53082 153.483 8.53082Z" fill="#3C3C43" fill-opacity="0.18"/>
<path fill-rule="evenodd" clip-rule="evenodd" d="M151.351 9.4787H151.825C152.086 9.4787 152.299 9.69089 152.299 9.95263V12.7962C152.299 13.058 152.086 13.2702 151.825 13.2702H151.351C151.089 13.2702 150.877 13.058 150.877 12.7962V9.95263C150.877 9.69089 151.089 9.4787 151.351 9.4787Z" fill="black"/>
<path fill-rule="evenodd" clip-rule="evenodd" d="M149.218 10.4265H149.692C149.954 10.4265 150.166 10.6387 150.166 10.9004V12.7962C150.166 13.0579 149.954 13.2701 149.692 13.2701H149.218C148.956 13.2701 148.744 13.0579 148.744 12.7962V10.9004C148.744 10.6387 148.956 10.4265 149.218 10.4265Z" fill="black"/>
<path fill-rule="evenodd" clip-rule="evenodd" d="M147.085 11.1375H147.559C147.821 11.1375 148.033 11.3496 148.033 11.6114V12.7962C148.033 13.058 147.821 13.2702 147.559 13.2702H147.085C146.824 13.2702 146.611 13.058 146.611 12.7962V11.6114C146.611 11.3496 146.824 11.1375 147.085 11.1375Z" fill="black"/>
<path d="M160.892 11.8197C161.195 11.8197 161.49 11.8993 161.749 12.0512L161.854 12.1127C161.934 12.1594 161.948 12.2686 161.883 12.3337L160.985 13.2289C160.93 13.2839 160.841 13.2839 160.786 13.2289L159.894 12.3395C159.829 12.2746 159.842 12.166 159.921 12.119L160.025 12.0572C160.287 11.9015 160.585 11.8197 160.892 11.8197Z" fill="black"/>
<path d="M160.892 10.1753C161.646 10.1753 162.37 10.4254 162.96 10.8886L163.043 10.9541C163.11 11.0062 163.115 11.1046 163.056 11.1642L162.52 11.6986C162.47 11.7481 162.392 11.7538 162.336 11.712L162.27 11.6634C161.872 11.3674 161.392 11.2086 160.892 11.2086C160.39 11.2086 159.907 11.3694 159.507 11.6688L159.442 11.7178C159.386 11.7599 159.307 11.7544 159.257 11.7048L158.721 11.1706C158.662 11.111 158.667 11.013 158.733 10.9607L158.816 10.8952C159.407 10.4278 160.135 10.1753 160.892 10.1753Z" fill="black"/>
<path d="M160.892 8.53082C162.089 8.53082 163.233 8.95289 164.139 9.72653L164.216 9.79257C164.279 9.84593 164.282 9.94105 164.224 9.99906L163.69 10.5317C163.638 10.5834 163.555 10.587 163.499 10.5401L163.433 10.4848C162.72 9.88851 161.826 9.56417 160.892 9.56417C159.955 9.56417 159.058 9.89074 158.344 10.4907L158.278 10.5463C158.222 10.5934 158.139 10.5899 158.087 10.5382L157.553 10.0056C157.495 9.94766 157.499 9.85271 157.561 9.79929L157.638 9.73323C158.545 8.95542 159.692 8.53082 160.892 8.53082Z" fill="black"/>
<path d="M177.891 9.95264C178.153 9.95264 178.365 10.1648 178.365 10.4266V11.3744C178.365 11.6362 178.153 11.8484 177.891 11.8484V9.95264Z" fill="#3C3C43" fill-opacity="0.6"/>
<path fill-rule="evenodd" clip-rule="evenodd" d="M167.938 8.05688H175.995C176.78 8.05688 177.417 8.69345 177.417 9.47869V12.3223C177.417 13.1075 176.78 13.7441 175.995 13.7441H167.938C167.153 13.7441 166.517 13.1075 166.517 12.3223V9.47869C166.517 8.69345 167.153 8.05688 167.938 8.05688ZM167.938 8.53082C167.415 8.53082 166.991 8.95519 166.991 9.47869V12.3223C166.991 12.8458 167.415 13.2702 167.938 13.2702H175.995C176.519 13.2702 176.943 12.8458 176.943 12.3223V9.47869C176.943 8.95519 176.519 8.53082 175.995 8.53082H167.938Z" fill="#3C3C43" fill-opacity="0.6"/>
<rect x="167.464" y="9.00476" width="9.00474" height="3.79147" rx="0.473934" fill="black"/>
<path d="M17.9465 13.3123C19.2205 13.3123 19.9772 12.316 19.9772 10.629C19.9772 9.99381 19.8557 9.45925 19.6231 9.04617C19.2864 8.404 18.7067 8.05688 17.9743 8.05688C16.8843 8.05688 16.1137 8.78931 16.1137 9.81678C16.1137 10.7818 16.808 11.483 17.7626 11.483C18.3492 11.483 18.8247 11.2087 19.0608 10.7332H19.0712C19.0712 10.7332 19.0851 10.7332 19.0886 10.7332C19.0955 10.7332 19.1198 10.7332 19.1198 10.7332C19.1198 11.8787 18.6859 12.5625 17.9535 12.5625C17.523 12.5625 17.1898 12.3265 17.0753 11.9481H16.1832C16.3324 12.7708 17.0301 13.3123 17.9465 13.3123ZM17.9778 10.7714C17.4016 10.7714 16.992 10.3618 16.992 9.78901C16.992 9.23015 17.4224 8.80319 17.9812 8.80319C18.5401 8.80319 18.9705 9.23709 18.9705 9.8029C18.9705 10.3618 18.5505 10.7714 17.9778 10.7714Z" fill="black"/>
<path d="M21.4422 13.2637C21.7719 13.2637 21.9976 13.0276 21.9976 12.7152C21.9976 12.3993 21.7719 12.1668 21.4422 12.1668C21.1159 12.1668 20.8868 12.3993 20.8868 12.7152C20.8868 13.0276 21.1159 13.2637 21.4422 13.2637ZM21.4422 10.6603C21.7719 10.6603 21.9976 10.4277 21.9976 10.1153C21.9976 9.79942 21.7719 9.56685 21.4422 9.56685C21.1159 9.56685 20.8868 9.79942 20.8868 10.1153C20.8868 10.4277 21.1159 10.6603 21.4422 10.6603Z" fill="black"/>
<path d="M25.2467 13.1908H26.1041V12.257H26.781V11.5003H26.1041V8.18185H24.8406C23.9554 9.51479 23.2508 10.629 22.7995 11.4587V12.257H25.2467V13.1908ZM23.6292 11.4691C24.2123 10.4416 24.733 9.61892 25.212 8.9108H25.2606V11.5211H23.6292V11.4691Z" fill="black"/>
<path d="M28.6903 13.1908H29.5859V8.18185H28.6938L27.3851 9.09824V9.9591L28.6313 9.08436H28.6903V13.1908Z" fill="black"/>
</g>
<g opacity="0.5">
<rect x="11.875" y="310.625" width="163.75" height="78.75" fill="#1E1E1E"/>
<rect x="11.875" y="310.625" width="163.75" height="78.75" stroke="#FFFFE3" stroke-width="1.25"/>
<path d="M16.9287 323.125H17.7686C17.8564 323.896 18.4766 324.365 19.4141 324.365C20.3516 324.365 20.9668 323.877 20.9668 323.12C20.9668 322.51 20.5566 322.144 19.6045 321.909L18.999 321.758C17.6904 321.426 17.0996 320.806 17.0996 319.785C17.0996 318.584 18.0029 317.808 19.4092 317.808C20.7373 317.808 21.6504 318.574 21.709 319.746H20.8691C20.7812 319.019 20.2441 318.589 19.4141 318.589C18.5107 318.589 17.9688 319.019 17.9688 319.736C17.9688 320.347 18.3594 320.698 19.2773 320.928L19.8926 321.084C21.2598 321.421 21.8359 322.017 21.8359 323.076C21.8359 324.341 20.8838 325.146 19.4092 325.146C17.9541 325.146 17.002 324.375 16.9287 323.125ZM23.3496 325V317.622H24.1504V320.64H24.2188C24.4971 319.98 25.1074 319.609 25.918 319.609C27.0703 319.609 27.6953 320.303 27.6953 321.567V325H26.8652V321.777C26.8652 320.825 26.4746 320.371 25.6445 320.371C24.7705 320.371 24.1797 320.981 24.1797 321.885V325H23.3496ZM31.7041 325.098C30.3027 325.098 29.4092 324.185 29.4092 322.754V321.953C29.4092 320.522 30.3027 319.609 31.7041 319.609C33.1055 319.609 33.999 320.522 33.999 321.953V322.754C33.999 324.185 33.1055 325.098 31.7041 325.098ZM31.7041 320.342C30.7959 320.342 30.2295 320.986 30.2295 322.026V322.676C30.2295 323.721 30.7959 324.36 31.7041 324.36C32.6123 324.36 33.1787 323.721 33.1787 322.676V322.026C33.1787 320.986 32.6123 320.342 31.7041 320.342ZM40.7471 319.702L39.6094 325H38.8135L37.915 320.869H37.8564L36.958 325H36.1621L35.0244 319.702H35.835L36.5527 323.95H36.6406L37.4951 319.707H38.2764L39.1309 323.95H39.2188L39.9365 319.702H40.7471ZM49.7119 325.093C48.7012 325.093 48.0273 324.458 48.0273 323.496C48.0273 322.559 48.7012 322.002 49.9072 321.938L51.3623 321.865V321.387C51.3623 320.723 50.957 320.356 50.2197 320.356C49.6094 320.356 49.1797 320.615 49.043 321.069H48.2275C48.3252 320.22 49.1455 319.639 50.2295 319.639C51.4746 319.639 52.1875 320.273 52.1875 321.377V325.005H51.3965V324.209H51.3135C51.0596 324.775 50.4834 325.093 49.7119 325.093ZM49.9512 324.365C50.752 324.365 51.3623 323.833 51.3623 323.125V322.5L50 322.563C49.2578 322.598 48.8672 322.915 48.8672 323.467C48.8672 324.023 49.2822 324.365 49.9512 324.365ZM60.4395 325V317.622H61.2402V320.64H61.3086C61.5869 319.98 62.1973 319.609 63.0078 319.609C64.1602 319.609 64.7852 320.303 64.7852 321.567V325H63.9551V321.777C63.9551 320.825 63.5645 320.371 62.7344 320.371C61.8604 320.371 61.2695 320.981 61.2695 321.885V325H60.4395ZM68.7939 325.098C67.3926 325.098 66.499 324.185 66.499 322.754V321.953C66.499 320.522 67.3926 319.609 68.7939 319.609C70.1953 319.609 71.0889 320.522 71.0889 321.953V322.754C71.0889 324.185 70.1953 325.098 68.7939 325.098ZM68.7939 320.342C67.8857 320.342 67.3193 320.986 67.3193 322.026V322.676C67.3193 323.721 67.8857 324.36 68.7939 324.36C69.7021 324.36 70.2686 323.721 70.2686 322.676V322.026C70.2686 320.986 69.7021 320.342 68.7939 320.342ZM74.0723 318.281H74.8926V319.717H77.041V320.425H74.9023V323.413C74.9023 323.989 75.3076 324.302 76.0547 324.302C76.3525 324.302 76.8848 324.287 77.0264 324.272V324.976C76.8945 325 76.25 325.024 75.9961 325.024C74.6826 325.024 74.0723 324.526 74.0723 323.423V320.425H72.6611V319.717H74.0723V318.281ZM79.2285 321.133C79.2285 320.215 80.0098 319.6 81.1768 319.6C82.2803 319.6 83.0273 320.151 83.125 321.035H82.3242C82.2266 320.571 81.7822 320.288 81.1621 320.288C80.4883 320.288 80.0537 320.601 80.0537 321.084C80.0537 321.489 80.3271 321.719 80.9912 321.865L81.7383 322.036C82.7686 322.271 83.2373 322.72 83.2373 323.486C83.2373 324.463 82.4219 325.098 81.167 325.098C79.9658 325.098 79.1699 324.536 79.0771 323.628H79.9219C80.0439 324.116 80.5127 324.399 81.1963 324.399C81.9189 324.399 82.3779 324.072 82.3779 323.564C82.3779 323.145 82.1191 322.92 81.4453 322.769L80.6592 322.588C79.7021 322.368 79.2285 321.885 79.2285 321.133ZM87.6709 319.614C88.8965 319.614 89.6973 320.498 89.6973 321.86V322.847C89.6973 324.204 88.8965 325.088 87.6709 325.088C86.9043 325.088 86.3428 324.761 86.1133 324.18H86.0205V326.787H85.1758V319.702H85.9961V320.513H86.084C86.3623 319.927 86.9141 319.614 87.6709 319.614ZM87.4316 320.376C86.5576 320.376 86.001 321.001 86.001 321.978V322.739C86.001 323.721 86.5576 324.346 87.4316 324.346C88.3057 324.346 88.8623 323.716 88.8623 322.739V321.978C88.8623 321.001 88.3057 320.376 87.4316 320.376ZM93.5205 325.098C92.1191 325.098 91.2256 324.185 91.2256 322.754V321.953C91.2256 320.522 92.1191 319.609 93.5205 319.609C94.9219 319.609 95.8154 320.522 95.8154 321.953V322.754C95.8154 324.185 94.9219 325.098 93.5205 325.098ZM93.5205 320.342C92.6123 320.342 92.0459 320.986 92.0459 322.026V322.676C92.0459 323.721 92.6123 324.36 93.5205 324.36C94.4287 324.36 94.9951 323.721 94.9951 322.676V322.026C94.9951 320.986 94.4287 320.342 93.5205 320.342ZM98.7988 318.281H99.6191V319.717H101.768V320.425H99.6289V323.413C99.6289 323.989 100.034 324.302 100.781 324.302C101.079 324.302 101.611 324.287 101.753 324.272V324.976C101.621 325 100.977 325.024 100.723 325.024C99.4092 325.024 98.7988 324.526 98.7988 323.423V320.425H97.3877V319.717H98.7988V318.281ZM114.272 321.353H113.452C113.35 320.732 112.832 320.342 112.148 320.342C111.226 320.342 110.713 320.972 110.713 322.109V322.588C110.713 323.726 111.226 324.351 112.148 324.351C112.832 324.351 113.35 323.965 113.452 323.359H114.272C114.141 324.438 113.335 325.098 112.163 325.098C110.723 325.098 109.883 324.214 109.883 322.695V322.002C109.883 320.483 110.723 319.6 112.163 319.6C113.335 319.6 114.136 320.264 114.272 321.353ZM120.562 325H116.172V324.312H117.983V318.311H116.187V317.622H118.813V324.312H120.562V325ZM124.521 318.403C124.131 318.403 123.833 318.11 123.833 317.72C123.833 317.334 124.131 317.041 124.521 317.041C124.912 317.041 125.21 317.334 125.21 317.72C125.21 318.11 124.912 318.403 124.521 318.403ZM126.743 325H122.354V324.312H124.17V320.391H122.368V319.702H124.99V324.312H126.743V325ZM132.817 321.353H131.997C131.895 320.732 131.377 320.342 130.693 320.342C129.771 320.342 129.258 320.972 129.258 322.109V322.588C129.258 323.726 129.771 324.351 130.693 324.351C131.377 324.351 131.895 323.965 131.997 323.359H132.817C132.686 324.438 131.88 325.098 130.708 325.098C129.268 325.098 128.428 324.214 128.428 322.695V322.002C128.428 320.483 129.268 319.6 130.708 319.6C131.88 319.6 132.681 320.264 132.817 321.353ZM135.908 322.08L138.218 319.702H139.224L137.168 321.802L139.37 325H138.384L136.577 322.368L135.845 323.071V325H135.015V317.622H135.845V322.08H135.908ZM148.618 325.093C147.607 325.093 146.934 324.458 146.934 323.496C146.934 322.559 147.607 322.002 148.813 321.938L150.269 321.865V321.387C150.269 320.723 149.863 320.356 149.126 320.356C148.516 320.356 148.086 320.615 147.949 321.069H147.134C147.231 320.22 148.052 319.639 149.136 319.639C150.381 319.639 151.094 320.273 151.094 321.377V325.005H150.303V324.209H150.22C149.966 324.775 149.39 325.093 148.618 325.093ZM148.857 324.365C149.658 324.365 150.269 323.833 150.269 323.125V322.5L148.906 322.563C148.164 322.598 147.773 322.915 147.773 323.467C147.773 324.023 148.188 324.365 148.857 324.365ZM155.127 322.627V324.336H156.768V325H153.247V324.336H154.316V320.366H153.14V319.702H155.117V321.055H155.225C155.42 320.073 156.079 319.565 157.1 319.565C157.402 319.565 157.69 319.609 157.866 319.683V320.615C157.622 320.527 157.28 320.469 156.992 320.469C155.82 320.469 155.127 321.279 155.127 322.627ZM162.949 323.633H163.755C163.594 324.507 162.754 325.098 161.641 325.098C160.186 325.098 159.341 324.224 159.341 322.715V321.919C159.341 320.522 160.234 319.604 161.582 319.604C162.959 319.604 163.77 320.518 163.77 322.051V322.568H160.161V322.783C160.161 323.755 160.737 324.38 161.641 324.38C162.31 324.38 162.803 324.097 162.949 323.633ZM161.577 320.317C160.693 320.317 160.161 320.923 160.161 321.938H162.949C162.949 320.928 162.432 320.317 161.577 320.317ZM167.163 325.093C166.152 325.093 165.479 324.458 165.479 323.496C165.479 322.559 166.152 322.002 167.358 321.938L168.813 321.865V321.387C168.813 320.723 168.408 320.356 167.671 320.356C167.061 320.356 166.631 320.615 166.494 321.069H165.679C165.776 320.22 166.597 319.639 167.681 319.639C168.926 319.639 169.639 320.273 169.639 321.377V325.005H168.848V324.209H168.765C168.511 324.775 167.935 325.093 167.163 325.093ZM167.402 324.365C168.203 324.365 168.813 323.833 168.813 323.125V322.5L167.451 322.563C166.709 322.598 166.318 322.915 166.318 323.467C166.318 324.023 166.733 324.365 167.402 324.365Z" fill="#FFFFE3"/>
</g>
</g>
<defs>
<clipPath id="clip0_283_12054">
<rect width="183.982" height="400" fill="white"/>
</clipPath>
<clipPath id="clip1_283_12054">
<rect width="184.834" height="400" fill="white"/>
</clipPath>
<clipPath id="clip2_283_12054">
<rect width="162.36" height="32.1517" fill="white" transform="translate(11.3743 183.886)"/>
</clipPath>
<clipPath id="clip3_283_12054">
<rect x="18.4833" y="358.217" width="151.659" height="19.4787" rx="9.73934" fill="white"/>
</clipPath>
<clipPath id="clip4_283_12054">
<rect x="18.4833" y="327.488" width="151.659" height="19.4787" rx="9.73934" fill="white"/>
</clipPath>
</defs>
</svg>
