<svg width="184" height="400" viewBox="0 0 184 400" fill="none" xmlns="http://www.w3.org/2000/svg">
<g clip-path="url(#clip0_283_12076)">
<rect width="183.982" height="400" fill="white"/>
<g clip-path="url(#clip1_283_12076)">
<rect width="184.834" height="400" fill="white"/>
<rect x="16.5224" y="55.237" width="151.185" height="26.0663" rx="1.65877" stroke="#6F7978" stroke-width="0.473934"/>
<path d="M27.919 69.6888V70.2701H25.0643V69.6888H27.919ZM25.2087 64.8791V70.2701H24.4941V64.8791H25.2087ZM27.5414 67.197V67.7783H25.0643V67.197H27.5414ZM27.882 64.8791V65.4642H25.0643V64.8791H27.882ZM29.6185 67.06V70.2701H28.9299V66.2639H29.5815L29.6185 67.06ZM29.4778 68.1152L29.1594 68.1041C29.1619 67.8301 29.1977 67.5771 29.2668 67.3451C29.3359 67.1106 29.4383 66.9069 29.5741 66.7342C29.7099 66.5614 29.879 66.4281 30.0814 66.3343C30.2838 66.238 30.5183 66.1899 30.7849 66.1899C30.9725 66.1899 31.1452 66.217 31.3032 66.2713C31.4612 66.3232 31.5982 66.4059 31.7142 66.5194C31.8302 66.6329 31.9203 66.7786 31.9845 66.9563C32.0487 67.134 32.0808 67.3488 32.0808 67.6006V70.2701H31.3958V67.6339C31.3958 67.4241 31.36 67.2562 31.2884 67.1303C31.2193 67.0044 31.1206 66.9131 30.9922 66.8563C30.8639 66.7971 30.7133 66.7675 30.5405 66.7675C30.3381 66.7675 30.169 66.8033 30.0332 66.8749C29.8975 66.9464 29.7889 67.0452 29.7074 67.1711C29.6259 67.2969 29.5667 67.4414 29.5297 67.6043C29.4951 67.7647 29.4778 67.935 29.4778 68.1152ZM32.0734 67.7376L31.6142 67.8783C31.6167 67.6586 31.6525 67.4475 31.7216 67.2451C31.7932 67.0427 31.8956 66.8625 32.0289 66.7045C32.1647 66.5466 32.3313 66.4219 32.5288 66.3306C32.7263 66.2368 32.9521 66.1899 33.2064 66.1899C33.4211 66.1899 33.6112 66.2183 33.7766 66.275C33.9444 66.3318 34.0851 66.4194 34.1987 66.5379C34.3147 66.6539 34.4023 66.8033 34.4616 66.9859C34.5208 67.1686 34.5504 67.3858 34.5504 67.6376V70.2701H33.8617V67.6302C33.8617 67.4056 33.8259 67.2315 33.7544 67.1081C33.6852 66.9822 33.5865 66.8946 33.4581 66.8452C33.3323 66.7934 33.1817 66.7675 33.0064 66.7675C32.8559 66.7675 32.7226 66.7934 32.6065 66.8452C32.4905 66.8971 32.393 66.9687 32.314 67.06C32.235 67.1488 32.1746 67.2513 32.1326 67.3673C32.0931 67.4833 32.0734 67.6067 32.0734 67.7376ZM38.1864 69.5852V67.5228C38.1864 67.3648 38.1543 67.2278 38.0901 67.1118C38.0284 66.9933 37.9346 66.902 37.8087 66.8378C37.6828 66.7736 37.5273 66.7416 37.3422 66.7416C37.1694 66.7416 37.0176 66.7712 36.8868 66.8304C36.7584 66.8897 36.6572 66.9674 36.5831 67.0637C36.5116 67.16 36.4758 67.2636 36.4758 67.3747H35.7908C35.7908 67.2315 35.8278 67.0896 35.9019 66.9489C35.9759 66.8082 36.0821 66.6811 36.2203 66.5675C36.361 66.4515 36.5288 66.3602 36.7238 66.2935C36.9213 66.2244 37.141 66.1899 37.3829 66.1899C37.6742 66.1899 37.9309 66.2392 38.153 66.338C38.3777 66.4367 38.5529 66.586 38.6788 66.786C38.8072 66.9835 38.8714 67.2315 38.8714 67.5302V69.3963C38.8714 69.5296 38.8825 69.6716 38.9047 69.8221C38.9294 69.9727 38.9652 70.1023 39.0121 70.2109V70.2701H38.2975C38.2629 70.1912 38.2357 70.0862 38.216 69.9554C38.1962 69.8221 38.1864 69.6987 38.1864 69.5852ZM38.3049 67.8412L38.3123 68.3226H37.6199C37.4249 68.3226 37.2508 68.3386 37.0978 68.3707C36.9448 68.4003 36.8164 68.446 36.7127 68.5077C36.6091 68.5694 36.5301 68.6472 36.4758 68.741C36.4215 68.8323 36.3943 68.9397 36.3943 69.0631C36.3943 69.189 36.4227 69.3038 36.4795 69.4074C36.5362 69.5111 36.6214 69.5938 36.735 69.6555C36.851 69.7148 36.9929 69.7444 37.1608 69.7444C37.3706 69.7444 37.5557 69.6999 37.7161 69.6111C37.8766 69.5222 38.0037 69.4136 38.0975 69.2852C38.1938 69.1569 38.2456 69.0322 38.253 68.9113L38.5455 69.2408C38.5282 69.3445 38.4813 69.4593 38.4048 69.5852C38.3283 69.711 38.2259 69.832 38.0975 69.948C37.9716 70.0616 37.821 70.1566 37.6458 70.2331C37.473 70.3072 37.278 70.3442 37.0608 70.3442C36.7893 70.3442 36.5511 70.2911 36.3462 70.185C36.1438 70.0788 35.9858 69.9369 35.8722 69.7592C35.7612 69.579 35.7056 69.3778 35.7056 69.1557C35.7056 68.9409 35.7476 68.7521 35.8315 68.5892C35.9154 68.4238 36.0364 68.2868 36.1944 68.1782C36.3523 68.0671 36.5424 67.9832 36.7646 67.9264C36.9867 67.8696 37.2348 67.8412 37.5088 67.8412H38.3049ZM40.93 66.2639V70.2701H40.2413V66.2639H40.93ZM40.1895 65.2013C40.1895 65.0902 40.2228 64.9964 40.2895 64.9199C40.3586 64.8434 40.4598 64.8051 40.5931 64.8051C40.7239 64.8051 40.8239 64.8434 40.893 64.9199C40.9646 64.9964 41.0004 65.0902 41.0004 65.2013C41.0004 65.3074 40.9646 65.3987 40.893 65.4753C40.8239 65.5493 40.7239 65.5863 40.5931 65.5863C40.4598 65.5863 40.3586 65.5493 40.2895 65.4753C40.2228 65.3987 40.1895 65.3074 40.1895 65.2013ZM43.0109 64.5829V70.2701H42.3222V64.5829H43.0109Z" fill="#3F4947"/>
<rect x="16.0485" y="86.9905" width="151.659" height="26.0663" rx="1.65877" stroke="#6F7978" stroke-width="0.473934"/>
<path d="M26.0085 99.9095H24.5682V99.3282H26.0085C26.2874 99.3282 26.5133 99.2838 26.6861 99.1949C26.8589 99.106 26.9847 98.9826 27.0637 98.8246C27.1452 98.6667 27.1859 98.4865 27.1859 98.284C27.1859 98.0989 27.1452 97.9249 27.0637 97.762C26.9847 97.5991 26.8589 97.4682 26.6861 97.3695C26.5133 97.2683 26.2874 97.2177 26.0085 97.2177H24.7348V102.024H24.0202V96.6327H26.0085C26.4158 96.6327 26.7601 96.703 27.0415 96.8437C27.3229 96.9844 27.5364 97.1794 27.6821 97.4287C27.8277 97.6756 27.9005 97.9582 27.9005 98.2766C27.9005 98.6222 27.8277 98.9172 27.6821 99.1616C27.5364 99.4059 27.3229 99.5923 27.0415 99.7207C26.7601 99.8465 26.4158 99.9095 26.0085 99.9095ZM31.2551 101.339V99.2763C31.2551 99.1184 31.223 98.9814 31.1588 98.8654C31.0971 98.7469 31.0033 98.6555 30.8774 98.5914C30.7515 98.5272 30.596 98.4951 30.4109 98.4951C30.2381 98.4951 30.0863 98.5247 29.9555 98.584C29.8271 98.6432 29.7259 98.721 29.6519 98.8172C29.5803 98.9135 29.5445 99.0172 29.5445 99.1282H28.8595C28.8595 98.9851 28.8965 98.8431 28.9706 98.7024C29.0446 98.5617 29.1508 98.4346 29.289 98.3211C29.4297 98.2051 29.5976 98.1137 29.7926 98.0471C29.99 97.978 30.2097 97.9434 30.4516 97.9434C30.7429 97.9434 30.9996 97.9928 31.2218 98.0915C31.4464 98.1902 31.6216 98.3396 31.7475 98.5395C31.8759 98.737 31.9401 98.9851 31.9401 99.2838V101.15C31.9401 101.283 31.9512 101.425 31.9734 101.576C31.9981 101.726 32.0339 101.856 32.0808 101.964V102.024H31.3662C31.3316 101.945 31.3045 101.84 31.2847 101.709C31.265 101.576 31.2551 101.452 31.2551 101.339ZM31.3736 99.5948L31.381 100.076H30.6886C30.4936 100.076 30.3196 100.092 30.1665 100.124C30.0135 100.154 29.8851 100.2 29.7815 100.261C29.6778 100.323 29.5988 100.401 29.5445 100.495C29.4902 100.586 29.463 100.693 29.463 100.817C29.463 100.943 29.4914 101.057 29.5482 101.161C29.605 101.265 29.6901 101.347 29.8037 101.409C29.9197 101.468 30.0616 101.498 30.2295 101.498C30.4393 101.498 30.6244 101.453 30.7849 101.365C30.9453 101.276 31.0724 101.167 31.1662 101.039C31.2625 100.91 31.3143 100.786 31.3217 100.665L31.6142 100.994C31.597 101.098 31.5501 101.213 31.4735 101.339C31.397 101.465 31.2946 101.586 31.1662 101.702C31.0403 101.815 30.8898 101.91 30.7145 101.987C30.5417 102.061 30.3467 102.098 30.1295 102.098C29.858 102.098 29.6198 102.045 29.4149 101.939C29.2125 101.832 29.0545 101.69 28.941 101.513C28.8299 101.333 28.7743 101.131 28.7743 100.909C28.7743 100.694 28.8163 100.506 28.9002 100.343C28.9842 100.177 29.1051 100.04 29.2631 99.9317C29.4211 99.8206 29.6111 99.7367 29.8333 99.6799C30.0554 99.6232 30.3035 99.5948 30.5775 99.5948H31.3736ZM35.5871 100.961C35.5871 100.862 35.5649 100.771 35.5205 100.687C35.4785 100.601 35.3909 100.523 35.2576 100.454C35.1268 100.382 34.9293 100.32 34.6652 100.269C34.443 100.222 34.2419 100.166 34.0617 100.102C33.8839 100.038 33.7321 99.9601 33.6062 99.8688C33.4828 99.7774 33.3878 99.6701 33.3211 99.5466C33.2545 99.4232 33.2212 99.2788 33.2212 99.1134C33.2212 98.9555 33.2557 98.8061 33.3248 98.6654C33.3964 98.5247 33.4964 98.4001 33.6248 98.2915C33.7556 98.1828 33.9123 98.0977 34.095 98.036C34.2776 97.9743 34.4813 97.9434 34.7059 97.9434C35.0268 97.9434 35.3008 98.0002 35.5279 98.1137C35.755 98.2273 35.929 98.3791 36.05 98.5691C36.1709 98.7567 36.2314 98.9653 36.2314 99.1949H35.5464C35.5464 99.0838 35.5131 98.9764 35.4464 98.8728C35.3823 98.7666 35.2872 98.679 35.1613 98.6099C35.0379 98.5408 34.8861 98.5062 34.7059 98.5062C34.5159 98.5062 34.3616 98.5358 34.2431 98.5951C34.1271 98.6518 34.0419 98.7247 33.9876 98.8135C33.9358 98.9024 33.9099 98.9962 33.9099 99.0949C33.9099 99.169 33.9222 99.2356 33.9469 99.2949C33.974 99.3516 34.0209 99.4047 34.0876 99.4541C34.1542 99.501 34.248 99.5454 34.369 99.5874C34.4899 99.6293 34.6442 99.6713 34.8318 99.7133C35.1601 99.7873 35.4304 99.8762 35.6427 99.9798C35.855 100.084 36.0129 100.211 36.1166 100.361C36.2203 100.512 36.2721 100.694 36.2721 100.909C36.2721 101.084 36.2351 101.245 36.161 101.391C36.0895 101.536 35.9846 101.662 35.8463 101.768C35.7106 101.872 35.5476 101.953 35.3576 102.013C35.17 102.069 34.9589 102.098 34.7244 102.098C34.3714 102.098 34.0728 102.035 33.8284 101.909C33.584 101.783 33.3989 101.62 33.273 101.42C33.1471 101.22 33.0842 101.009 33.0842 100.787H33.7729C33.7827 100.975 33.837 101.124 33.9358 101.235C34.0345 101.344 34.1555 101.421 34.2986 101.468C34.4418 101.513 34.5837 101.535 34.7244 101.535C34.912 101.535 35.0688 101.51 35.1947 101.461C35.323 101.412 35.4205 101.344 35.4872 101.257C35.5538 101.171 35.5871 101.072 35.5871 100.961ZM39.7415 100.961C39.7415 100.862 39.7192 100.771 39.6748 100.687C39.6329 100.601 39.5452 100.523 39.4119 100.454C39.2811 100.382 39.0836 100.32 38.8195 100.269C38.5974 100.222 38.3962 100.166 38.216 100.102C38.0383 100.038 37.8865 99.9601 37.7606 99.8688C37.6371 99.7774 37.5421 99.6701 37.4755 99.5466C37.4088 99.4232 37.3755 99.2788 37.3755 99.1134C37.3755 98.9555 37.4101 98.8061 37.4792 98.6654C37.5508 98.5247 37.6507 98.4001 37.7791 98.2915C37.9099 98.1828 38.0667 98.0977 38.2493 98.036C38.432 97.9743 38.6356 97.9434 38.8602 97.9434C39.1811 97.9434 39.4551 98.0002 39.6822 98.1137C39.9093 98.2273 40.0833 98.3791 40.2043 98.5691C40.3252 98.7567 40.3857 98.9653 40.3857 99.1949H39.7007C39.7007 99.0838 39.6674 98.9764 39.6008 98.8728C39.5366 98.7666 39.4416 98.679 39.3157 98.6099C39.1922 98.5408 39.0404 98.5062 38.8602 98.5062C38.6702 98.5062 38.5159 98.5358 38.3974 98.5951C38.2814 98.6518 38.1962 98.7247 38.1419 98.8135C38.0901 98.9024 38.0642 98.9962 38.0642 99.0949C38.0642 99.169 38.0765 99.2356 38.1012 99.2949C38.1284 99.3516 38.1753 99.4047 38.2419 99.4541C38.3086 99.501 38.4024 99.5454 38.5233 99.5874C38.6443 99.6293 38.7985 99.6713 38.9861 99.7133C39.3144 99.7873 39.5847 99.8762 39.797 99.9798C40.0093 100.084 40.1673 100.211 40.2709 100.361C40.3746 100.512 40.4264 100.694 40.4264 100.909C40.4264 101.084 40.3894 101.245 40.3154 101.391C40.2438 101.536 40.1389 101.662 40.0006 101.768C39.8649 101.872 39.702 101.953 39.5119 102.013C39.3243 102.069 39.1133 102.098 38.8788 102.098C38.5258 102.098 38.2271 102.035 37.9827 101.909C37.7384 101.783 37.5532 101.62 37.4273 101.42C37.3014 101.22 37.2385 101.009 37.2385 100.787H37.9272C37.9371 100.975 37.9914 101.124 38.0901 101.235C38.1888 101.344 38.3098 101.421 38.453 101.468C38.5961 101.513 38.7381 101.535 38.8788 101.535C39.0664 101.535 39.2231 101.51 39.349 101.461C39.4773 101.412 39.5748 101.344 39.6415 101.257C39.7081 101.171 39.7415 101.072 39.7415 100.961ZM42.5777 101.313L43.607 98.0175H44.0587L43.9698 98.6728L42.922 102.024H42.4814L42.5777 101.313ZM41.8853 98.0175L42.7628 101.35L42.8257 102.024H42.3629L41.2003 98.0175H41.8853ZM45.0436 101.324L45.8804 98.0175H46.5617L45.399 102.024H44.9399L45.0436 101.324ZM44.1587 98.0175L45.1658 101.257L45.2806 102.024H44.8437L43.7662 98.6654L43.6773 98.0175H44.1587ZM47.3207 100.065V99.9798C47.3207 99.691 47.3627 99.4232 47.4466 99.1764C47.5305 98.9271 47.6515 98.7111 47.8094 98.5284C47.9674 98.3433 48.1587 98.2001 48.3833 98.0989C48.608 97.9952 48.8597 97.9434 49.1387 97.9434C49.4201 97.9434 49.6731 97.9952 49.8977 98.0989C50.1248 98.2001 50.3173 98.3433 50.4753 98.5284C50.6358 98.7111 50.758 98.9271 50.8419 99.1764C50.9258 99.4232 50.9678 99.691 50.9678 99.9798V100.065C50.9678 100.354 50.9258 100.622 50.8419 100.868C50.758 101.115 50.6358 101.331 50.4753 101.516C50.3173 101.699 50.126 101.842 49.9014 101.946C49.6793 102.047 49.4275 102.098 49.1461 102.098C48.8647 102.098 48.6117 102.047 48.387 101.946C48.1624 101.842 47.9699 101.699 47.8094 101.516C47.6515 101.331 47.5305 101.115 47.4466 100.868C47.3627 100.622 47.3207 100.354 47.3207 100.065ZM48.0057 99.9798V100.065C48.0057 100.265 48.0291 100.454 48.076 100.632C48.1229 100.807 48.1933 100.962 48.2871 101.098C48.3833 101.234 48.5031 101.341 48.6462 101.42C48.7894 101.497 48.956 101.535 49.1461 101.535C49.3337 101.535 49.4978 101.497 49.6385 101.42C49.7817 101.341 49.9002 101.234 49.994 101.098C50.0878 100.962 50.1581 100.807 50.205 100.632C50.2544 100.454 50.2791 100.265 50.2791 100.065V99.9798C50.2791 99.7824 50.2544 99.596 50.205 99.4207C50.1581 99.243 50.0865 99.0863 49.9903 98.9505C49.8965 98.8123 49.778 98.7037 49.6348 98.6247C49.4941 98.5457 49.3287 98.5062 49.1387 98.5062C48.9511 98.5062 48.7857 98.5457 48.6425 98.6247C48.5018 98.7037 48.3833 98.8123 48.2871 98.9505C48.1933 99.0863 48.1229 99.243 48.076 99.4207C48.0291 99.596 48.0057 99.7824 48.0057 99.9798ZM52.7487 98.6469V102.024H52.0637V98.0175H52.7302L52.7487 98.6469ZM54.0002 97.9952L53.9965 98.6321C53.9397 98.6198 53.8854 98.6123 53.8336 98.6099C53.7842 98.6049 53.7274 98.6025 53.6633 98.6025C53.5053 98.6025 53.3658 98.6272 53.2449 98.6765C53.1239 98.7259 53.0215 98.795 52.9376 98.8839C52.8536 98.9727 52.787 99.0789 52.7376 99.2023C52.6907 99.3232 52.6599 99.4565 52.645 99.6022L52.4525 99.7133C52.4525 99.4714 52.476 99.2443 52.5229 99.032C52.5722 98.8197 52.6475 98.6321 52.7487 98.4692C52.8499 98.3038 52.9783 98.1754 53.1338 98.0841C53.2918 97.9903 53.4794 97.9434 53.6966 97.9434C53.746 97.9434 53.8027 97.9496 53.8669 97.9619C53.9311 97.9718 53.9755 97.9829 54.0002 97.9952ZM57.3214 101.246V96.3365H58.0101V102.024H57.3807L57.3214 101.246ZM54.6259 100.065V99.9872C54.6259 99.6812 54.663 99.4035 54.737 99.1542C54.8135 98.9024 54.9209 98.6864 55.0591 98.5062C55.1998 98.326 55.3665 98.1878 55.559 98.0915C55.754 97.9928 55.9712 97.9434 56.2107 97.9434C56.4624 97.9434 56.6821 97.9878 56.8697 98.0767C57.0598 98.1631 57.2202 98.2902 57.3511 98.4581C57.4844 98.6235 57.5893 98.8234 57.6658 99.0579C57.7423 99.2924 57.7954 99.5577 57.825 99.854V100.195C57.7978 100.488 57.7448 100.752 57.6658 100.987C57.5893 101.221 57.4844 101.421 57.3511 101.587C57.2202 101.752 57.0598 101.879 56.8697 101.968C56.6797 102.055 56.4575 102.098 56.2033 102.098C55.9688 102.098 55.754 102.047 55.559 101.946C55.3665 101.845 55.1998 101.703 55.0591 101.52C54.9209 101.337 54.8135 101.123 54.737 100.876C54.663 100.627 54.6259 100.356 54.6259 100.065ZM55.3146 99.9872V100.065C55.3146 100.265 55.3344 100.453 55.3739 100.628C55.4158 100.803 55.48 100.957 55.5664 101.091C55.6528 101.224 55.7626 101.329 55.8959 101.405C56.0292 101.479 56.1884 101.516 56.3736 101.516C56.6007 101.516 56.787 101.468 56.9327 101.372C57.0808 101.276 57.1993 101.149 57.2881 100.991C57.377 100.833 57.4461 100.661 57.4955 100.476V99.5837C57.4658 99.4479 57.4226 99.3171 57.3659 99.1912C57.3116 99.0628 57.24 98.9493 57.1511 98.8505C57.0647 98.7493 56.9574 98.6691 56.829 98.6099C56.7031 98.5506 56.5538 98.521 56.381 98.521C56.1934 98.521 56.0317 98.5605 55.8959 98.6395C55.7626 98.716 55.6528 98.8222 55.5664 98.9579C55.48 99.0912 55.4158 99.2467 55.3739 99.4245C55.3344 99.5997 55.3146 99.7873 55.3146 99.9872Z" fill="#3F4947"/>
<g clip-path="url(#clip2_283_12076)">
<rect x="17.5355" y="358.294" width="151.659" height="19.4787" rx="9.73934" fill="#00C7BE"/>
<path d="M83.1459 368.498H83.9559C83.93 368.806 83.8436 369.082 83.6967 369.324C83.5498 369.563 83.3436 369.752 83.0779 369.891C82.8122 370.029 82.4893 370.098 82.1092 370.098C81.8176 370.098 81.5552 370.046 81.3219 369.942C81.0887 369.837 80.8889 369.688 80.7226 369.495C80.5563 369.301 80.4288 369.067 80.3403 368.792C80.2539 368.518 80.2107 368.211 80.2107 367.872V367.48C80.2107 367.141 80.255 366.834 80.3435 366.56C80.4342 366.286 80.5638 366.051 80.7323 365.857C80.9008 365.661 81.1027 365.51 81.3381 365.407C81.5757 365.303 81.8425 365.251 82.1384 365.251C82.5142 365.251 82.8317 365.32 83.0909 365.459C83.35 365.597 83.5509 365.788 83.6935 366.032C83.8382 366.276 83.9267 366.556 83.9591 366.871H83.1492C83.1276 366.668 83.0801 366.494 83.0066 366.35C82.9354 366.205 82.8295 366.095 82.6891 366.019C82.5487 365.941 82.3652 365.902 82.1384 365.902C81.9526 365.902 81.7906 365.937 81.6524 366.006C81.5142 366.075 81.3986 366.177 81.3057 366.311C81.2129 366.445 81.1427 366.61 81.0952 366.806C81.0498 367.001 81.0271 367.223 81.0271 367.474V367.872C81.0271 368.11 81.0476 368.326 81.0887 368.52C81.1319 368.712 81.1967 368.878 81.2831 369.016C81.3716 369.154 81.4839 369.261 81.62 369.337C81.7561 369.412 81.9191 369.45 82.1092 369.45C82.3403 369.45 82.5271 369.413 82.6697 369.34C82.8144 369.266 82.9235 369.159 82.9969 369.019C83.0725 368.877 83.1222 368.703 83.1459 368.498ZM84.5152 368.319V368.245C84.5152 367.992 84.5519 367.758 84.6253 367.542C84.6987 367.324 84.8046 367.135 84.9428 366.975C85.0832 366.813 85.2538 366.688 85.4547 366.599C85.6577 366.508 85.8867 366.463 86.1415 366.463C86.3986 366.463 86.6275 366.508 86.8284 366.599C87.0314 366.688 87.2031 366.813 87.3435 366.975C87.4839 367.135 87.5908 367.324 87.6642 367.542C87.7377 367.758 87.7744 367.992 87.7744 368.245V368.319C87.7744 368.572 87.7377 368.806 87.6642 369.022C87.5908 369.238 87.4839 369.427 87.3435 369.589C87.2031 369.749 87.0325 369.874 86.8316 369.965C86.6307 370.054 86.4029 370.098 86.148 370.098C85.891 370.098 85.661 370.054 85.4579 369.965C85.2571 369.874 85.0864 369.749 84.9461 369.589C84.8057 369.427 84.6987 369.238 84.6253 369.022C84.5519 368.806 84.5152 368.572 84.5152 368.319ZM85.2959 368.245V368.319C85.2959 368.477 85.3121 368.626 85.3445 368.766C85.3769 368.907 85.4277 369.03 85.4968 369.136C85.5659 369.242 85.6545 369.325 85.7625 369.385C85.8705 369.446 85.999 369.476 86.148 369.476C86.2927 369.476 86.418 369.446 86.5238 369.385C86.6318 369.325 86.7204 369.242 86.7895 369.136C86.8586 369.03 86.9094 368.907 86.9418 368.766C86.9763 368.626 86.9936 368.477 86.9936 368.319V368.245C86.9936 368.089 86.9763 367.942 86.9418 367.804C86.9094 367.664 86.8575 367.54 86.7862 367.432C86.7171 367.324 86.6286 367.239 86.5206 367.179C86.4148 367.116 86.2884 367.085 86.1415 367.085C85.9947 367.085 85.8672 367.116 85.7592 367.179C85.6534 367.239 85.5659 367.324 85.4968 367.432C85.4277 367.54 85.3769 367.664 85.3445 367.804C85.3121 367.942 85.2959 368.089 85.2959 368.245ZM89.2505 367.276V370.033H88.4697V366.528H89.2052L89.2505 367.276ZM89.1112 368.151L88.8585 368.148C88.8607 367.899 88.8952 367.671 88.9622 367.464C89.0313 367.257 89.1263 367.078 89.2473 366.929C89.3704 366.78 89.5173 366.666 89.6879 366.586C89.8585 366.504 90.0486 366.463 90.2581 366.463C90.4266 366.463 90.5788 366.487 90.7149 366.534C90.8531 366.58 90.9708 366.654 91.068 366.758C91.1674 366.861 91.243 366.996 91.2948 367.163C91.3467 367.327 91.3726 367.529 91.3726 367.769V370.033H90.5885V367.765C90.5885 367.597 90.5637 367.464 90.514 367.367C90.4665 367.267 90.3963 367.197 90.3034 367.156C90.2127 367.113 90.0993 367.091 89.9633 367.091C89.8294 367.091 89.7095 367.12 89.6037 367.176C89.4978 367.232 89.4082 367.309 89.3348 367.406C89.2635 367.503 89.2084 367.615 89.1695 367.743C89.1306 367.87 89.1112 368.006 89.1112 368.151ZM93.8239 366.528V367.098H91.8476V366.528H93.8239ZM92.4178 365.669H93.1986V369.064C93.1986 369.172 93.2137 369.256 93.244 369.314C93.2764 369.37 93.3206 369.408 93.3768 369.427C93.433 369.447 93.4988 369.456 93.5744 369.456C93.6284 369.456 93.6803 369.453 93.7299 369.447C93.7796 369.44 93.8196 369.434 93.8498 369.427L93.853 370.023C93.7882 370.043 93.7127 370.06 93.6263 370.075C93.542 370.09 93.4448 370.098 93.3347 370.098C93.1554 370.098 92.9967 370.067 92.8584 370.004C92.7202 369.939 92.6122 369.834 92.5345 369.69C92.4567 369.545 92.4178 369.353 92.4178 369.113V365.669ZM95.3097 366.528V370.033H94.5257V366.528H95.3097ZM94.4739 365.608C94.4739 365.489 94.5128 365.391 94.5905 365.313C94.6704 365.233 94.7806 365.193 94.921 365.193C95.0592 365.193 95.1683 365.233 95.2482 365.313C95.3281 365.391 95.3681 365.489 95.3681 365.608C95.3681 365.724 95.3281 365.821 95.2482 365.899C95.1683 365.977 95.0592 366.016 94.921 366.016C94.7806 366.016 94.6704 365.977 94.5905 365.899C94.5128 365.821 94.4739 365.724 94.4739 365.608ZM96.9867 367.276V370.033H96.206V366.528H96.9414L96.9867 367.276ZM96.8474 368.151L96.5947 368.148C96.5969 367.899 96.6314 367.671 96.6984 367.464C96.7675 367.257 96.8626 367.078 96.9835 366.929C97.1066 366.78 97.2535 366.666 97.4241 366.586C97.5947 366.504 97.7848 366.463 97.9943 366.463C98.1628 366.463 98.3151 366.487 98.4511 366.534C98.5894 366.58 98.7071 366.654 98.8043 366.758C98.9036 366.861 98.9792 366.996 99.031 367.163C99.0829 367.327 99.1088 367.529 99.1088 367.769V370.033H98.3248V367.765C98.3248 367.597 98.2999 367.464 98.2503 367.367C98.2027 367.267 98.1325 367.197 98.0397 367.156C97.949 367.113 97.8356 367.091 97.6995 367.091C97.5656 367.091 97.4457 367.12 97.3399 367.176C97.234 367.232 97.1444 367.309 97.071 367.406C96.9997 367.503 96.9446 367.615 96.9057 367.743C96.8669 367.87 96.8474 368.006 96.8474 368.151ZM102.062 369.207V366.528H102.846V370.033H102.108L102.062 369.207ZM102.172 368.478L102.435 368.472C102.435 368.707 102.409 368.924 102.357 369.123C102.305 369.319 102.225 369.491 102.117 369.638C102.009 369.783 101.871 369.896 101.703 369.978C101.534 370.058 101.332 370.098 101.097 370.098C100.926 370.098 100.77 370.073 100.627 370.023C100.485 369.974 100.361 369.897 100.258 369.793C100.156 369.69 100.077 369.555 100.021 369.388C99.9651 369.222 99.937 369.023 99.937 368.792V366.528H100.718V368.799C100.718 368.926 100.733 369.033 100.763 369.12C100.793 369.204 100.834 369.272 100.886 369.324C100.938 369.375 100.999 369.412 101.068 369.434C101.137 369.455 101.21 369.466 101.288 369.466C101.51 369.466 101.685 369.423 101.813 369.337C101.942 369.248 102.034 369.129 102.088 368.98C102.144 368.831 102.172 368.664 102.172 368.478ZM105.239 370.098C104.98 370.098 104.746 370.056 104.536 369.972C104.329 369.885 104.152 369.765 104.005 369.612C103.86 369.459 103.749 369.278 103.671 369.071C103.593 368.864 103.555 368.64 103.555 368.4V368.271C103.555 367.996 103.595 367.748 103.674 367.526C103.754 367.303 103.866 367.113 104.008 366.955C104.151 366.796 104.319 366.674 104.514 366.589C104.708 366.505 104.919 366.463 105.145 366.463C105.396 366.463 105.615 366.505 105.803 366.589C105.991 366.674 106.146 366.792 106.27 366.946C106.395 367.097 106.488 367.277 106.548 367.487C106.611 367.696 106.642 367.927 106.642 368.18V368.514H103.934V367.953H105.871V367.892C105.867 367.751 105.839 367.62 105.787 367.496C105.737 367.373 105.66 367.274 105.557 367.198C105.453 367.123 105.315 367.085 105.142 367.085C105.013 367.085 104.897 367.113 104.795 367.169C104.696 367.223 104.613 367.302 104.546 367.406C104.479 367.509 104.427 367.635 104.39 367.782C104.356 367.926 104.339 368.089 104.339 368.271V368.4C104.339 368.554 104.359 368.696 104.4 368.828C104.443 368.958 104.506 369.071 104.588 369.168C104.67 369.265 104.77 369.342 104.886 369.398C105.003 369.452 105.136 369.479 105.285 369.479C105.473 369.479 105.64 369.441 105.787 369.366C105.934 369.29 106.061 369.183 106.169 369.045L106.581 369.444C106.505 369.554 106.407 369.66 106.286 369.761C106.165 369.86 106.017 369.941 105.842 370.004C105.669 370.067 105.468 370.098 105.239 370.098Z" fill="white"/>
</g>
<g clip-path="url(#clip3_283_12076)">
<rect width="184.834" height="20.8531" fill="white"/>
<path fill-rule="evenodd" clip-rule="evenodd" d="M151.351 9.4787H151.825C152.086 9.4787 152.299 9.69089 152.299 9.95263V12.7962C152.299 13.058 152.086 13.2702 151.825 13.2702H151.351C151.089 13.2702 150.877 13.058 150.877 12.7962V9.95263C150.877 9.69089 151.089 9.4787 151.351 9.4787Z" fill="#F9F9F9"/>
<path fill-rule="evenodd" clip-rule="evenodd" d="M149.218 10.4265H149.692C149.954 10.4265 150.166 10.6387 150.166 10.9004V12.7962C150.166 13.0579 149.954 13.2701 149.692 13.2701H149.218C148.956 13.2701 148.744 13.0579 148.744 12.7962V10.9004C148.744 10.6387 148.956 10.4265 149.218 10.4265Z" fill="#F9F9F9"/>
<path fill-rule="evenodd" clip-rule="evenodd" d="M147.085 11.1375H147.559C147.821 11.1375 148.033 11.3496 148.033 11.6114V12.7962C148.033 13.058 147.821 13.2702 147.559 13.2702H147.085C146.824 13.2702 146.611 13.058 146.611 12.7962V11.6114C146.611 11.3496 146.824 11.1375 147.085 11.1375Z" fill="#F9F9F9"/>
<path fill-rule="evenodd" clip-rule="evenodd" d="M153.483 8.53082H153.957C154.219 8.53082 154.431 8.74301 154.431 9.00476V12.7962C154.431 13.058 154.219 13.2702 153.957 13.2702H153.483C153.222 13.2702 153.009 13.058 153.009 12.7962V9.00476C153.009 8.74301 153.222 8.53082 153.483 8.53082Z" fill="#3C3C43" fill-opacity="0.18"/>
<path fill-rule="evenodd" clip-rule="evenodd" d="M151.351 9.4787H151.825C152.086 9.4787 152.299 9.69089 152.299 9.95263V12.7962C152.299 13.058 152.086 13.2702 151.825 13.2702H151.351C151.089 13.2702 150.877 13.058 150.877 12.7962V9.95263C150.877 9.69089 151.089 9.4787 151.351 9.4787Z" fill="black"/>
<path fill-rule="evenodd" clip-rule="evenodd" d="M149.218 10.4265H149.692C149.954 10.4265 150.166 10.6387 150.166 10.9004V12.7962C150.166 13.0579 149.954 13.2701 149.692 13.2701H149.218C148.956 13.2701 148.744 13.0579 148.744 12.7962V10.9004C148.744 10.6387 148.956 10.4265 149.218 10.4265Z" fill="black"/>
<path fill-rule="evenodd" clip-rule="evenodd" d="M147.085 11.1375H147.559C147.821 11.1375 148.033 11.3496 148.033 11.6114V12.7962C148.033 13.058 147.821 13.2702 147.559 13.2702H147.085C146.824 13.2702 146.611 13.058 146.611 12.7962V11.6114C146.611 11.3496 146.824 11.1375 147.085 11.1375Z" fill="black"/>
<path d="M160.892 11.8197C161.195 11.8197 161.49 11.8993 161.749 12.0512L161.854 12.1127C161.934 12.1594 161.948 12.2686 161.883 12.3337L160.985 13.2289C160.93 13.2839 160.841 13.2839 160.785 13.2289L159.894 12.3395C159.829 12.2746 159.842 12.166 159.921 12.119L160.025 12.0572C160.287 11.9015 160.585 11.8197 160.892 11.8197Z" fill="black"/>
<path d="M160.892 10.1753C161.646 10.1753 162.37 10.4254 162.96 10.8886L163.043 10.9541C163.11 11.0062 163.115 11.1046 163.056 11.1642L162.52 11.6986C162.47 11.7481 162.392 11.7538 162.336 11.712L162.27 11.6634C161.872 11.3674 161.392 11.2086 160.892 11.2086C160.39 11.2086 159.907 11.3694 159.507 11.6688L159.442 11.7178C159.386 11.7599 159.307 11.7544 159.257 11.7048L158.721 11.1706C158.662 11.111 158.667 11.013 158.734 10.9607L158.816 10.8952C159.407 10.4278 160.135 10.1753 160.892 10.1753Z" fill="black"/>
<path d="M160.892 8.53082C162.089 8.53082 163.233 8.95289 164.139 9.72653L164.216 9.79257C164.279 9.84593 164.282 9.94105 164.224 9.99906L163.69 10.5317C163.638 10.5834 163.555 10.587 163.499 10.5401L163.433 10.4848C162.72 9.88851 161.826 9.56417 160.892 9.56417C159.955 9.56417 159.058 9.89074 158.344 10.4907L158.278 10.5463C158.222 10.5934 158.139 10.5899 158.087 10.5382L157.553 10.0056C157.495 9.94766 157.499 9.85271 157.561 9.79929L157.638 9.73323C158.545 8.95542 159.692 8.53082 160.892 8.53082Z" fill="black"/>
<path d="M177.891 9.95264C178.153 9.95264 178.365 10.1648 178.365 10.4266V11.3744C178.365 11.6362 178.153 11.8484 177.891 11.8484V9.95264Z" fill="#3C3C43" fill-opacity="0.6"/>
<path fill-rule="evenodd" clip-rule="evenodd" d="M167.938 8.05688H175.995C176.78 8.05688 177.417 8.69345 177.417 9.47869V12.3223C177.417 13.1075 176.78 13.7441 175.995 13.7441H167.938C167.153 13.7441 166.517 13.1075 166.517 12.3223V9.47869C166.517 8.69345 167.153 8.05688 167.938 8.05688ZM167.938 8.53082C167.415 8.53082 166.991 8.95519 166.991 9.47869V12.3223C166.991 12.8458 167.415 13.2702 167.938 13.2702H175.995C176.519 13.2702 176.943 12.8458 176.943 12.3223V9.47869C176.943 8.95519 176.519 8.53082 175.995 8.53082H167.938Z" fill="#3C3C43" fill-opacity="0.6"/>
<rect x="167.464" y="9.00476" width="9.00474" height="3.79147" rx="0.473934" fill="black"/>
<path d="M17.9465 13.3123C19.2205 13.3123 19.9772 12.316 19.9772 10.629C19.9772 9.99381 19.8557 9.45925 19.6231 9.04617C19.2864 8.404 18.7067 8.05688 17.9743 8.05688C16.8843 8.05688 16.1137 8.78931 16.1137 9.81678C16.1137 10.7818 16.808 11.483 17.7626 11.483C18.3492 11.483 18.8247 11.2087 19.0608 10.7332H19.0712C19.0712 10.7332 19.0851 10.7332 19.0886 10.7332C19.0955 10.7332 19.1198 10.7332 19.1198 10.7332C19.1198 11.8787 18.6859 12.5625 17.9535 12.5625C17.523 12.5625 17.1898 12.3265 17.0753 11.9481H16.1832C16.3324 12.7708 17.0301 13.3123 17.9465 13.3123ZM17.9778 10.7714C17.4016 10.7714 16.992 10.3618 16.992 9.78901C16.992 9.23015 17.4224 8.80319 17.9812 8.80319C18.5401 8.80319 18.9705 9.23709 18.9705 9.8029C18.9705 10.3618 18.5505 10.7714 17.9778 10.7714Z" fill="black"/>
<path d="M21.4422 13.2637C21.7719 13.2637 21.9976 13.0276 21.9976 12.7152C21.9976 12.3993 21.7719 12.1668 21.4422 12.1668C21.1159 12.1668 20.8868 12.3993 20.8868 12.7152C20.8868 13.0276 21.1159 13.2637 21.4422 13.2637ZM21.4422 10.6603C21.7719 10.6603 21.9976 10.4277 21.9976 10.1153C21.9976 9.79942 21.7719 9.56685 21.4422 9.56685C21.1159 9.56685 20.8868 9.79942 20.8868 10.1153C20.8868 10.4277 21.1159 10.6603 21.4422 10.6603Z" fill="black"/>
<path d="M25.2467 13.1908H26.1041V12.257H26.781V11.5003H26.1041V8.18185H24.8406C23.9554 9.51479 23.2508 10.629 22.7995 11.4587V12.257H25.2467V13.1908ZM23.6292 11.4691C24.2123 10.4416 24.733 9.61892 25.212 8.9108H25.2606V11.5211H23.6292V11.4691Z" fill="black"/>
<path d="M28.6903 13.1908H29.5859V8.18185H28.6938L27.3851 9.09824V9.9591L28.6313 9.08436H28.6903V13.1908Z" fill="black"/>
</g>
</g>
<path d="M-0.183105 20.8531H184.651V43.6019H-0.183105V20.8531Z" fill="white"/>
<path d="M184.651 43.6019V43.3649H-0.183105V43.6019V43.8389H184.651V43.6019Z" fill="#D8DBD9"/>
<g clip-path="url(#clip4_283_12076)">
<path d="M13.9567 28.3744L13.1131 27.5355L8.4259 32.2275L13.1178 36.9194L13.9567 36.0805L10.1036 32.2275L13.9567 28.3744Z" fill="black"/>
</g>
<path d="M29.8173 34.4282V35.2275H26.111V34.4282H29.8173ZM26.3044 27.8149V35.2275H25.3218V27.8149H26.3044ZM30.5504 32.5343V32.4172C30.5504 32.0201 30.6081 31.6518 30.7235 31.3124C30.8389 30.9696 31.0052 30.6727 31.2224 30.4215C31.4396 30.1669 31.7027 29.9701 32.0115 29.8309C32.3204 29.6884 32.6666 29.6171 33.0501 29.6171C33.437 29.6171 33.7849 29.6884 34.0938 29.8309C34.406 29.9701 34.6708 30.1669 34.888 30.4215C35.1086 30.6727 35.2766 30.9696 35.392 31.3124C35.5074 31.6518 35.5651 32.0201 35.5651 32.4172V32.5343C35.5651 32.9314 35.5074 33.2997 35.392 33.6391C35.2766 33.9785 35.1086 34.2754 34.888 34.53C34.6708 34.7812 34.4077 34.978 34.0989 35.1206C33.7934 35.2597 33.4472 35.3293 33.0603 35.3293C32.6734 35.3293 32.3255 35.2597 32.0166 35.1206C31.7078 34.978 31.443 34.7812 31.2224 34.53C31.0052 34.2754 30.8389 33.9785 30.7235 33.6391C30.6081 33.2997 30.5504 32.9314 30.5504 32.5343ZM31.4922 32.4172V32.5343C31.4922 32.8092 31.5245 33.0689 31.589 33.3132C31.6534 33.5542 31.7502 33.768 31.8792 33.9547C32.0115 34.1414 32.1761 34.289 32.373 34.3976C32.5698 34.5028 32.7989 34.5555 33.0603 34.5555C33.3182 34.5555 33.5439 34.5028 33.7374 34.3976C33.9343 34.289 34.0972 34.1414 34.2261 33.9547C34.3551 33.768 34.4518 33.5542 34.5163 33.3132C34.5842 33.0689 34.6182 32.8092 34.6182 32.5343V32.4172C34.6182 32.1457 34.5842 31.8894 34.5163 31.6484C34.4518 31.4041 34.3534 31.1886 34.221 31.0019C34.0921 30.8118 33.9292 30.6625 33.7323 30.5539C33.5388 30.4453 33.3114 30.3909 33.0501 30.3909C32.7922 30.3909 32.5647 30.4453 32.3679 30.5539C32.1744 30.6625 32.0115 30.8118 31.8792 31.0019C31.7502 31.1886 31.6534 31.4041 31.589 31.6484C31.5245 31.8894 31.4922 32.1457 31.4922 32.4172ZM40.3151 29.7189H41.1704V35.1104C41.1704 35.5957 41.072 36.0098 40.8751 36.3526C40.6782 36.6954 40.4033 36.9551 40.0503 37.1315C39.7008 37.3114 39.2969 37.4014 38.8387 37.4014C38.6486 37.4014 38.4246 37.3708 38.1666 37.3097C37.9121 37.252 37.6609 37.1519 37.4132 37.0094C37.1688 36.8702 36.9634 36.6818 36.7971 36.4442L37.291 35.8842C37.5218 36.1625 37.7627 36.356 38.0139 36.4646C38.2685 36.5732 38.5196 36.6275 38.7674 36.6275C39.0661 36.6275 39.324 36.5715 39.5412 36.4595C39.7585 36.3475 39.9265 36.1812 40.0452 35.9606C40.1674 35.7434 40.2285 35.4752 40.2285 35.1562V30.9306L40.3151 29.7189ZM36.5222 32.5343V32.4274C36.5222 32.0065 36.5714 31.6247 36.6699 31.2819C36.7717 30.9357 36.9159 30.6387 37.1026 30.3909C37.2927 30.1432 37.5218 29.9531 37.7899 29.8207C38.058 29.685 38.3601 29.6171 38.6961 29.6171C39.0423 29.6171 39.3444 29.6782 39.6023 29.8004C39.8637 29.9192 40.0843 30.094 40.2642 30.3248C40.4474 30.5522 40.5917 30.8271 40.6969 31.1495C40.8021 31.472 40.8751 31.8368 40.9158 32.2441V32.7125C40.8785 33.1164 40.8055 33.4795 40.6969 33.802C40.5917 34.1244 40.4474 34.3993 40.2642 34.6267C40.0843 34.8541 39.8637 35.0289 39.6023 35.1511C39.341 35.2699 39.0355 35.3293 38.6859 35.3293C38.3567 35.3293 38.058 35.2597 37.7899 35.1206C37.5252 34.9814 37.2978 34.7863 37.1077 34.5351C36.9176 34.2839 36.7717 33.9886 36.6699 33.6492C36.5714 33.3064 36.5222 32.9348 36.5222 32.5343ZM37.4641 32.4274V32.5343C37.4641 32.8092 37.4912 33.0672 37.5455 33.3081C37.6032 33.5491 37.6898 33.7612 37.8052 33.9445C37.924 34.1278 38.075 34.2721 38.2583 34.3773C38.4416 34.4791 38.6605 34.53 38.915 34.53C39.2273 34.53 39.4852 34.4638 39.6889 34.3314C39.8925 34.1991 40.0537 34.0243 40.1725 33.8071C40.2947 33.5898 40.3897 33.354 40.4576 33.0994V31.8725C40.4203 31.6858 40.3626 31.5059 40.2845 31.3328C40.2099 31.1563 40.1114 31.0002 39.9892 30.8644C39.8705 30.7253 39.7228 30.615 39.5463 30.5335C39.3698 30.452 39.1628 30.4113 38.9252 30.4113C38.6673 30.4113 38.445 30.4656 38.2583 30.5742C38.075 30.6794 37.924 30.8254 37.8052 31.0121C37.6898 31.1953 37.6032 31.4092 37.5455 31.6535C37.4912 31.8945 37.4641 32.1525 37.4641 32.4274ZM46.3836 27.8149V35.2275H45.4011V27.8149H46.3836ZM48.9699 30.895V35.2275H48.0281V29.7189H48.919L48.9699 30.895ZM48.7459 32.2645L48.3539 32.2492C48.3573 31.8725 48.4133 31.5246 48.5219 31.2055C48.6305 30.8831 48.7832 30.6031 48.9801 30.3655C49.177 30.1279 49.4111 29.9446 49.6827 29.8157C49.9576 29.6833 50.2614 29.6171 50.594 29.6171C50.8655 29.6171 51.1099 29.6544 51.3271 29.7291C51.5443 29.8004 51.7293 29.9158 51.882 30.0753C52.0381 30.2348 52.1569 30.4419 52.2384 30.6964C52.3199 30.9476 52.3606 31.2547 52.3606 31.6179V35.2275H51.4136V31.6077C51.4136 31.3192 51.3712 31.0884 51.2864 30.9153C51.2015 30.7388 51.0776 30.6116 50.9147 30.5335C50.7518 30.452 50.5516 30.4113 50.314 30.4113C50.0798 30.4113 49.866 30.4605 49.6725 30.559C49.4824 30.6574 49.3178 30.7931 49.1787 30.9662C49.0429 31.1393 48.936 31.3379 48.8579 31.5619C48.7832 31.7825 48.7459 32.0167 48.7459 32.2645Z" fill="#191C1C"/>
</g>
<defs>
<clipPath id="clip0_283_12076">
<rect width="183.982" height="400" fill="white"/>
</clipPath>
<clipPath id="clip1_283_12076">
<rect width="184.834" height="400" fill="white"/>
</clipPath>
<clipPath id="clip2_283_12076">
<rect x="17.5355" y="358.294" width="151.659" height="19.4787" rx="9.73934" fill="white"/>
</clipPath>
<clipPath id="clip3_283_12076">
<rect width="184.834" height="20.8531" fill="white"/>
</clipPath>
<clipPath id="clip4_283_12076">
<rect x="1.71263" y="22.7488" width="18.9573" height="18.9573" rx="9.47867" fill="white"/>
</clipPath>
</defs>
</svg>
