<svg preserveAspectRatio="none" width="100%" height="100%" overflow="visible" style="display: block;" viewBox="0 0 90 36" fill="none" xmlns="http://www.w3.org/2000/svg">
<g id="Cloud1">
<path id="Vector" opacity="0.4" d="M38.3517 0H32.5117V5.84001H38.3517V0Z" fill="var(--fill-0, white)"/>
<path id="Vector_2" opacity="0.4" d="M44.1916 0H38.3516V5.84001H44.1916V0Z" fill="var(--fill-0, white)"/>
<path id="Vector_3" opacity="0.4" d="M50.0314 0H44.1914V5.84001H50.0314V0Z" fill="var(--fill-0, white)"/>
<path id="Vector_4" opacity="0.4" d="M55.8718 0H50.0317V5.84001H55.8718V0Z" fill="var(--fill-0, white)"/>
<path id="Vector_5" opacity="0.4" d="M61.7116 0H55.8716V5.84001H61.7116V0Z" fill="var(--fill-0, white)"/>
<g id="Vector_6" opacity="0.2">
</g>
<path id="Vector_7" opacity="0.4" d="M32.5109 5.83936H26.6709V11.6794H32.5109V5.83936Z" fill="var(--fill-0, white)"/>
<path id="Vector_8" opacity="0.4" d="M38.3517 5.83936H32.5117V11.6794H38.3517V5.83936Z" fill="var(--fill-0, white)"/>
<path id="Vector_9" opacity="0.4" d="M44.1916 5.83936H38.3516V11.6794H44.1916V5.83936Z" fill="var(--fill-0, white)"/>
<path id="Vector_10" opacity="0.4" d="M50.0314 5.83936H44.1914V11.6794H50.0314V5.83936Z" fill="var(--fill-0, white)"/>
<path id="Vector_11" opacity="0.4" d="M55.8718 5.83936H50.0317V11.6794H55.8718V5.83936Z" fill="var(--fill-0, white)"/>
<path id="Vector_12" opacity="0.4" d="M61.7116 5.83936H55.8716V11.6794H61.7116V5.83936Z" fill="var(--fill-0, white)"/>
<path id="Vector_13" opacity="0.4" d="M67.5514 5.83936H61.7114V11.6794H67.5514V5.83936Z" fill="var(--fill-0, white)"/>
<g id="Vector_14" opacity="0.2">
</g>
<path id="Vector_15" opacity="0.4" d="M26.6716 11.6797H20.8315V17.5197H26.6716V11.6797Z" fill="var(--fill-0, white)"/>
<path id="Vector_16" opacity="0.4" d="M32.5109 11.6797H26.6709V17.5197H32.5109V11.6797Z" fill="var(--fill-0, white)"/>
<path id="Vector_17" opacity="0.4" d="M38.3517 11.6797H32.5117V17.5197H38.3517V11.6797Z" fill="var(--fill-0, white)"/>
<path id="Vector_18" opacity="0.4" d="M44.1916 11.6797H38.3516V17.5197H44.1916V11.6797Z" fill="var(--fill-0, white)"/>
<path id="Vector_19" opacity="0.4" d="M50.0314 11.6797H44.1914V17.5197H50.0314V11.6797Z" fill="var(--fill-0, white)"/>
<path id="Vector_20" opacity="0.4" d="M55.8718 11.6797H50.0317V17.5197H55.8718V11.6797Z" fill="var(--fill-0, white)"/>
<path id="Vector_21" opacity="0.4" d="M61.7116 11.6797H55.8716V17.5197H61.7116V11.6797Z" fill="var(--fill-0, white)"/>
<path id="Vector_22" opacity="0.4" d="M67.5514 11.6797H61.7114V17.5197H67.5514V11.6797Z" fill="var(--fill-0, white)"/>
<path id="Vector_23" opacity="0.4" d="M73.3918 11.6797H67.5518V17.5197H73.3918V11.6797Z" fill="var(--fill-0, white)"/>
<g id="Vector_24" opacity="0.2">
</g>
<path id="Vector_25" opacity="0.4" d="M20.8312 17.52H14.9912V23.36H20.8312V17.52Z" fill="var(--fill-0, white)"/>
<path id="Vector_26" opacity="0.4" d="M26.6716 17.52H20.8315V23.36H26.6716V17.52Z" fill="var(--fill-0, white)"/>
<path id="Vector_27" opacity="0.4" d="M32.5109 17.52H26.6709V23.36H32.5109V17.52Z" fill="var(--fill-0, white)"/>
<path id="Vector_28" opacity="0.4" d="M38.3517 17.52H32.5117V23.36H38.3517V17.52Z" fill="var(--fill-0, white)"/>
<path id="Vector_29" opacity="0.4" d="M44.1916 17.52H38.3516V23.36H44.1916V17.52Z" fill="var(--fill-0, white)"/>
<path id="Vector_30" opacity="0.4" d="M50.0314 17.52H44.1914V23.36H50.0314V17.52Z" fill="var(--fill-0, white)"/>
<path id="Vector_31" opacity="0.4" d="M55.8718 17.52H50.0317V23.36H55.8718V17.52Z" fill="var(--fill-0, white)"/>
<path id="Vector_32" opacity="0.4" d="M61.7116 17.52H55.8716V23.36H61.7116V17.52Z" fill="var(--fill-0, white)"/>
<path id="Vector_33" opacity="0.4" d="M67.5514 17.52H61.7114V23.36H67.5514V17.52Z" fill="var(--fill-0, white)"/>
<path id="Vector_34" opacity="0.4" d="M73.3918 17.52H67.5518V23.36H73.3918V17.52Z" fill="var(--fill-0, white)"/>
<path id="Vector_35" opacity="0.4" d="M79.2316 17.52H73.3916V23.36H79.2316V17.52Z" fill="var(--fill-0, white)"/>
<g id="Vector_36" opacity="0.2">
</g>
<path id="Vector_37" opacity="0.4" d="M14.9919 23.3599H9.15186V29.1999H14.9919V23.3599Z" fill="var(--fill-0, white)"/>
<path id="Vector_38" opacity="0.4" d="M20.8312 23.3599H14.9912V29.1999H20.8312V23.3599Z" fill="var(--fill-0, white)"/>
<path id="Vector_39" opacity="0.4" d="M26.6716 23.3599H20.8315V29.1999H26.6716V23.3599Z" fill="var(--fill-0, white)"/>
<path id="Vector_40" opacity="0.4" d="M32.5109 23.3599H26.6709V29.1999H32.5109V23.3599Z" fill="var(--fill-0, white)"/>
<path id="Vector_41" opacity="0.4" d="M38.3517 23.3599H32.5117V29.1999H38.3517V23.3599Z" fill="var(--fill-0, white)"/>
<path id="Vector_42" opacity="0.4" d="M44.1916 23.3599H38.3516V29.1999H44.1916V23.3599Z" fill="var(--fill-0, white)"/>
<path id="Vector_43" opacity="0.4" d="M50.0314 23.3599H44.1914V29.1999H50.0314V23.3599Z" fill="var(--fill-0, white)"/>
<path id="Vector_44" opacity="0.4" d="M55.8718 23.3599H50.0317V29.1999H55.8718V23.3599Z" fill="var(--fill-0, white)"/>
<path id="Vector_45" opacity="0.4" d="M61.7116 23.3599H55.8716V29.1999H61.7116V23.3599Z" fill="var(--fill-0, white)"/>
<path id="Vector_46" opacity="0.4" d="M67.5514 23.3599H61.7114V29.1999H67.5514V23.3599Z" fill="var(--fill-0, white)"/>
<path id="Vector_47" opacity="0.4" d="M73.3918 23.3599H67.5518V29.1999H73.3918V23.3599Z" fill="var(--fill-0, white)"/>
<path id="Vector_48" opacity="0.4" d="M79.2316 23.3599H73.3916V29.1999H79.2316V23.3599Z" fill="var(--fill-0, white)"/>
<path id="Vector_49" opacity="0.4" d="M85.0719 23.3599H79.2319V29.1999H85.0719V23.3599Z" fill="var(--fill-0, white)"/>
<g id="Vector_50" opacity="0.2">
</g>
<path id="Vector_51" opacity="0.4" d="M14.9919 29.2002H9.15186V35.0402H14.9919V29.2002Z" fill="var(--fill-0, white)"/>
<g id="Vector_52" opacity="0.4">
</g>
<path id="Vector_53" opacity="0.4" d="M20.8312 29.2002H14.9912V35.0402H20.8312V29.2002Z" fill="var(--fill-0, white)"/>
<g id="Vector_54" opacity="0.4">
</g>
<path id="Vector_55" opacity="0.4" d="M26.6716 29.2002H20.8315V35.0402H26.6716V29.2002Z" fill="var(--fill-0, white)"/>
<g id="Vector_56" opacity="0.4">
</g>
<path id="Vector_57" opacity="0.4" d="M32.5109 29.2002H26.6709V35.0402H32.5109V29.2002Z" fill="var(--fill-0, white)"/>
<g id="Vector_58" opacity="0.4">
</g>
<path id="Vector_59" opacity="0.4" d="M38.3517 29.2002H32.5117V35.0402H38.3517V29.2002Z" fill="var(--fill-0, white)"/>
<g id="Vector_60" opacity="0.4">
</g>
<path id="Vector_61" opacity="0.4" d="M44.1916 29.2002H38.3516V35.0402H44.1916V29.2002Z" fill="var(--fill-0, white)"/>
<g id="Vector_62" opacity="0.4">
</g>
<path id="Vector_63" opacity="0.4" d="M50.0314 29.2002H44.1914V35.0402H50.0314V29.2002Z" fill="var(--fill-0, white)"/>
<g id="Vector_64" opacity="0.4">
</g>
<path id="Vector_65" opacity="0.4" d="M55.8718 29.2002H50.0317V35.0402H55.8718V29.2002Z" fill="var(--fill-0, white)"/>
<g id="Vector_66" opacity="0.4">
</g>
<path id="Vector_67" opacity="0.4" d="M61.7116 29.2002H55.8716V35.0402H61.7116V29.2002Z" fill="var(--fill-0, white)"/>
<g id="Vector_68" opacity="0.4">
</g>
<path id="Vector_69" opacity="0.4" d="M67.5514 29.2002H61.7114V35.0402H67.5514V29.2002Z" fill="var(--fill-0, white)"/>
<g id="Vector_70" opacity="0.4">
</g>
<path id="Vector_71" opacity="0.4" d="M73.3918 29.2002H67.5518V35.0402H73.3918V29.2002Z" fill="var(--fill-0, white)"/>
<g id="Vector_72" opacity="0.4">
</g>
<path id="Vector_73" opacity="0.4" d="M79.2316 29.2002H73.3916V35.0402H79.2316V29.2002Z" fill="var(--fill-0, white)"/>
<g id="Vector_74" opacity="0.4">
</g>
<path id="Vector_75" opacity="0.4" d="M85.0719 29.2002H79.2319V35.0402H85.0719V29.2002Z" fill="var(--fill-0, white)"/>
<g id="Vector_76" opacity="0.4">
</g>
<g id="Vector_77" opacity="0.2">
</g>
<path id="Vector_78" opacity="0.5" d="M76.9769 14.6714H72.9619V18.6864H76.9769V14.6714Z" fill="var(--fill-0, white)"/>
<path id="Vector_79" opacity="0.5" d="M80.9921 14.6714H76.9771V18.6864H80.9921V14.6714Z" fill="var(--fill-0, white)"/>
<g id="Vector_80" opacity="0.25">
</g>
<path id="Vector_81" opacity="0.5" d="M72.9623 18.686H68.9473V22.701H72.9623V18.686Z" fill="var(--fill-0, white)"/>
<path id="Vector_82" opacity="0.5" d="M76.9769 18.686H72.9619V22.701H76.9769V18.686Z" fill="var(--fill-0, white)"/>
<path id="Vector_83" opacity="0.5" d="M80.9921 18.686H76.9771V22.701H80.9921V18.686Z" fill="var(--fill-0, white)"/>
<path id="Vector_84" opacity="0.5" d="M85.0072 18.686H80.9922V22.701H85.0072V18.686Z" fill="var(--fill-0, white)"/>
<g id="Vector_85" opacity="0.25">
</g>
<path id="Vector_86" opacity="0.5" d="M68.9471 22.7012H64.9321V26.7162H68.9471V22.7012Z" fill="var(--fill-0, white)"/>
<path id="Vector_87" opacity="0.5" d="M72.9623 22.7012H68.9473V26.7162H72.9623V22.7012Z" fill="var(--fill-0, white)"/>
<path id="Vector_88" opacity="0.5" d="M76.9769 22.7012H72.9619V26.7162H76.9769V22.7012Z" fill="var(--fill-0, white)"/>
<path id="Vector_89" opacity="0.5" d="M80.9921 22.7012H76.9771V26.7162H80.9921V22.7012Z" fill="var(--fill-0, white)"/>
<path id="Vector_90" opacity="0.5" d="M85.0072 22.7012H80.9922V26.7162H85.0072V22.7012Z" fill="var(--fill-0, white)"/>
<path id="Vector_91" opacity="0.5" d="M89.0218 22.7012H85.0068V26.7162H89.0218V22.7012Z" fill="var(--fill-0, white)"/>
<g id="Vector_92" opacity="0.25">
</g>
<path id="Vector_93" opacity="0.5" d="M68.9471 26.7163H64.9321V30.7313H68.9471V26.7163Z" fill="var(--fill-0, white)"/>
<g id="Vector_94" opacity="0.5">
</g>
<path id="Vector_95" opacity="0.5" d="M72.9623 26.7163H68.9473V30.7313H72.9623V26.7163Z" fill="var(--fill-0, white)"/>
<g id="Vector_96" opacity="0.5">
</g>
<path id="Vector_97" opacity="0.5" d="M76.9769 26.7163H72.9619V30.7313H76.9769V26.7163Z" fill="var(--fill-0, white)"/>
<g id="Vector_98" opacity="0.5">
</g>
<path id="Vector_99" opacity="0.5" d="M80.9921 26.7163H76.9771V30.7313H80.9921V26.7163Z" fill="var(--fill-0, white)"/>
<g id="Vector_100" opacity="0.5">
</g>
<path id="Vector_101" opacity="0.5" d="M85.0072 26.7163H80.9922V30.7313H85.0072V26.7163Z" fill="var(--fill-0, white)"/>
<g id="Vector_102" opacity="0.5">
</g>
<path id="Vector_103" opacity="0.5" d="M89.0218 26.7163H85.0068V30.7313H89.0218V26.7163Z" fill="var(--fill-0, white)"/>
<g id="Vector_104" opacity="0.5">
</g>
<g id="Vector_105" opacity="0.25">
</g>
<path id="Vector_106" opacity="0.2" d="M7.29991 23.5156H3.6499V27.1656H7.29991V23.5156Z" fill="var(--fill-0, white)"/>
<path id="Vector_107" opacity="0.2" d="M10.9498 23.5156H7.2998V27.1656H10.9498V23.5156Z" fill="var(--fill-0, white)"/>
<g id="Vector_108" opacity="0.1">
</g>
<path id="Vector_109" opacity="0.2" d="M21.9 23.5156H18.25V27.1656H21.9V23.5156Z" fill="var(--fill-0, white)"/>
<path id="Vector_110" opacity="0.2" d="M25.5504 23.5156H21.9004V27.1656H25.5504V23.5156Z" fill="var(--fill-0, white)"/>
<g id="Vector_111" opacity="0.1">
</g>
<path id="Vector_112" opacity="0.2" d="M3.65001 27.1655H0V30.8155H3.65001V27.1655Z" fill="var(--fill-0, white)"/>
<path id="Vector_113" opacity="0.2" d="M7.29991 27.1655H3.6499V30.8155H7.29991V27.1655Z" fill="var(--fill-0, white)"/>
<path id="Vector_114" opacity="0.2" d="M10.9498 27.1655H7.2998V30.8155H10.9498V27.1655Z" fill="var(--fill-0, white)"/>
<path id="Vector_115" opacity="0.2" d="M14.6002 27.1655H10.9502V30.8155H14.6002V27.1655Z" fill="var(--fill-0, white)"/>
<path id="Vector_116" opacity="0.2" d="M18.2501 27.1655H14.6001V30.8155H18.2501V27.1655Z" fill="var(--fill-0, white)"/>
<path id="Vector_117" opacity="0.2" d="M21.9 27.1655H18.25V30.8155H21.9V27.1655Z" fill="var(--fill-0, white)"/>
<path id="Vector_118" opacity="0.2" d="M25.5504 27.1655H21.9004V30.8155H25.5504V27.1655Z" fill="var(--fill-0, white)"/>
<path id="Vector_119" opacity="0.2" d="M29.1998 27.1655H25.5498V30.8155H29.1998V27.1655Z" fill="var(--fill-0, white)"/>
<g id="Vector_120" opacity="0.1">
</g>
<path id="Vector_121" opacity="0.2" d="M3.65001 30.8159H0V34.4659H3.65001V30.8159Z" fill="var(--fill-0, white)"/>
<g id="Vector_122" opacity="0.2">
</g>
<path id="Vector_123" opacity="0.2" d="M7.29991 30.8159H3.6499V34.4659H7.29991V30.8159Z" fill="var(--fill-0, white)"/>
<g id="Vector_124" opacity="0.2">
</g>
<path id="Vector_125" opacity="0.2" d="M10.9498 30.8159H7.2998V34.4659H10.9498V30.8159Z" fill="var(--fill-0, white)"/>
<g id="Vector_126" opacity="0.2">
</g>
<path id="Vector_127" opacity="0.2" d="M14.6002 30.8159H10.9502V34.4659H14.6002V30.8159Z" fill="var(--fill-0, white)"/>
<g id="Vector_128" opacity="0.2">
</g>
<path id="Vector_129" opacity="0.2" d="M18.2501 30.8159H14.6001V34.4659H18.2501V30.8159Z" fill="var(--fill-0, white)"/>
<g id="Vector_130" opacity="0.2">
</g>
<path id="Vector_131" opacity="0.2" d="M21.9 30.8159H18.25V34.4659H21.9V30.8159Z" fill="var(--fill-0, white)"/>
<g id="Vector_132" opacity="0.2">
</g>
<path id="Vector_133" opacity="0.2" d="M25.5504 30.8159H21.9004V34.4659H25.5504V30.8159Z" fill="var(--fill-0, white)"/>
<g id="Vector_134" opacity="0.2">
</g>
<path id="Vector_135" opacity="0.2" d="M29.1998 30.8159H25.5498V34.4659H29.1998V30.8159Z" fill="var(--fill-0, white)"/>
<g id="Vector_136" opacity="0.2">
</g>
<g id="Vector_137" opacity="0.1">
</g>
</g>
</svg>
