<svg preserveAspectRatio="none" width="100%" height="100%" overflow="visible" style="display: block;" viewBox="0 0 117 47" fill="none" xmlns="http://www.w3.org/2000/svg">
<g id="Cloud2 ">
<path id="Vector" opacity="0.6" d="M54.9199 0H48.2666V6.65333H54.9199V0Z" fill="var(--fill-0, white)"/>
<path id="Vector_2" opacity="0.6" d="M61.5733 0H54.9199V6.65333H61.5733V0Z" fill="var(--fill-0, white)"/>
<path id="Vector_3" opacity="0.6" d="M68.2266 0H61.5732V6.65333H68.2266V0Z" fill="var(--fill-0, white)"/>
<path id="Vector_4" opacity="0.6" d="M74.8799 0H68.2266V6.65333H74.8799V0Z" fill="var(--fill-0, white)"/>
<path id="Vector_5" opacity="0.6" d="M81.5327 0H74.8794V6.65333H81.5327V0Z" fill="var(--fill-0, white)"/>
<g id="Vector_6" opacity="0.3">
</g>
<path id="Vector_7" opacity="0.6" d="M48.2656 6.65332H41.6123V13.3067H48.2656V6.65332Z" fill="var(--fill-0, white)"/>
<path id="Vector_8" opacity="0.6" d="M54.9199 6.65332H48.2666V13.3067H54.9199V6.65332Z" fill="var(--fill-0, white)"/>
<path id="Vector_9" opacity="0.6" d="M61.5733 6.65332H54.9199V13.3067H61.5733V6.65332Z" fill="var(--fill-0, white)"/>
<path id="Vector_10" opacity="0.6" d="M68.2266 6.65332H61.5732V13.3067H68.2266V6.65332Z" fill="var(--fill-0, white)"/>
<path id="Vector_11" opacity="0.6" d="M74.8799 6.65332H68.2266V13.3067H74.8799V6.65332Z" fill="var(--fill-0, white)"/>
<path id="Vector_12" opacity="0.6" d="M81.5327 6.65332H74.8794V13.3067H81.5327V6.65332Z" fill="var(--fill-0, white)"/>
<path id="Vector_13" opacity="0.6" d="M88.186 6.65332H81.5327V13.3067H88.186V6.65332Z" fill="var(--fill-0, white)"/>
<g id="Vector_14" opacity="0.3">
</g>
<path id="Vector_15" opacity="0.6" d="M41.6133 13.3066H34.96V19.96H41.6133V13.3066Z" fill="var(--fill-0, white)"/>
<path id="Vector_16" opacity="0.6" d="M48.2656 13.3066H41.6123V19.96H48.2656V13.3066Z" fill="var(--fill-0, white)"/>
<path id="Vector_17" opacity="0.6" d="M54.9199 13.3066H48.2666V19.96H54.9199V13.3066Z" fill="var(--fill-0, white)"/>
<path id="Vector_18" opacity="0.6" d="M61.5733 13.3066H54.9199V19.96H61.5733V13.3066Z" fill="var(--fill-0, white)"/>
<path id="Vector_19" opacity="0.6" d="M68.2266 13.3066H61.5732V19.96H68.2266V13.3066Z" fill="var(--fill-0, white)"/>
<path id="Vector_20" opacity="0.6" d="M74.8799 13.3066H68.2266V19.96H74.8799V13.3066Z" fill="var(--fill-0, white)"/>
<path id="Vector_21" opacity="0.6" d="M81.5327 13.3066H74.8794V19.96H81.5327V13.3066Z" fill="var(--fill-0, white)"/>
<path id="Vector_22" opacity="0.6" d="M88.186 13.3066H81.5327V19.96H88.186V13.3066Z" fill="var(--fill-0, white)"/>
<path id="Vector_23" opacity="0.6" d="M94.8394 13.3066H88.186V19.96H94.8394V13.3066Z" fill="var(--fill-0, white)"/>
<g id="Vector_24" opacity="0.3">
</g>
<path id="Vector_25" opacity="0.6" d="M34.96 19.96H28.3066V26.6133H34.96V19.96Z" fill="var(--fill-0, white)"/>
<path id="Vector_26" opacity="0.6" d="M41.6133 19.96H34.96V26.6133H41.6133V19.96Z" fill="var(--fill-0, white)"/>
<path id="Vector_27" opacity="0.6" d="M48.2656 19.96H41.6123V26.6133H48.2656V19.96Z" fill="var(--fill-0, white)"/>
<path id="Vector_28" opacity="0.6" d="M54.9199 19.96H48.2666V26.6133H54.9199V19.96Z" fill="var(--fill-0, white)"/>
<path id="Vector_29" opacity="0.6" d="M61.5733 19.96H54.9199V26.6133H61.5733V19.96Z" fill="var(--fill-0, white)"/>
<path id="Vector_30" opacity="0.6" d="M68.2266 19.96H61.5732V26.6133H68.2266V19.96Z" fill="var(--fill-0, white)"/>
<path id="Vector_31" opacity="0.6" d="M74.8799 19.96H68.2266V26.6133H74.8799V19.96Z" fill="var(--fill-0, white)"/>
<path id="Vector_32" opacity="0.6" d="M81.5327 19.96H74.8794V26.6133H81.5327V19.96Z" fill="var(--fill-0, white)"/>
<path id="Vector_33" opacity="0.6" d="M88.186 19.96H81.5327V26.6133H88.186V19.96Z" fill="var(--fill-0, white)"/>
<path id="Vector_34" opacity="0.6" d="M94.8394 19.96H88.186V26.6133H94.8394V19.96Z" fill="var(--fill-0, white)"/>
<path id="Vector_35" opacity="0.6" d="M101.494 19.96H94.8403V26.6133H101.494V19.96Z" fill="var(--fill-0, white)"/>
<g id="Vector_36" opacity="0.3">
</g>
<path id="Vector_37" opacity="0.6" d="M28.3062 26.6133H21.6528V33.2666H28.3062V26.6133Z" fill="var(--fill-0, white)"/>
<path id="Vector_38" opacity="0.6" d="M34.96 26.6133H28.3066V33.2666H34.96V26.6133Z" fill="var(--fill-0, white)"/>
<path id="Vector_39" opacity="0.6" d="M41.6133 26.6133H34.96V33.2666H41.6133V26.6133Z" fill="var(--fill-0, white)"/>
<path id="Vector_40" opacity="0.6" d="M48.2656 26.6133H41.6123V33.2666H48.2656V26.6133Z" fill="var(--fill-0, white)"/>
<path id="Vector_41" opacity="0.6" d="M54.9199 26.6133H48.2666V33.2666H54.9199V26.6133Z" fill="var(--fill-0, white)"/>
<path id="Vector_42" opacity="0.6" d="M61.5733 26.6133H54.9199V33.2666H61.5733V26.6133Z" fill="var(--fill-0, white)"/>
<path id="Vector_43" opacity="0.6" d="M68.2266 26.6133H61.5732V33.2666H68.2266V26.6133Z" fill="var(--fill-0, white)"/>
<path id="Vector_44" opacity="0.6" d="M74.8799 26.6133H68.2266V33.2666H74.8799V26.6133Z" fill="var(--fill-0, white)"/>
<path id="Vector_45" opacity="0.6" d="M81.5327 26.6133H74.8794V33.2666H81.5327V26.6133Z" fill="var(--fill-0, white)"/>
<path id="Vector_46" opacity="0.6" d="M88.186 26.6133H81.5327V33.2666H88.186V26.6133Z" fill="var(--fill-0, white)"/>
<path id="Vector_47" opacity="0.6" d="M94.8394 26.6133H88.186V33.2666H94.8394V26.6133Z" fill="var(--fill-0, white)"/>
<path id="Vector_48" opacity="0.6" d="M101.494 26.6133H94.8403V33.2666H101.494V26.6133Z" fill="var(--fill-0, white)"/>
<path id="Vector_49" opacity="0.6" d="M108.146 26.6133H101.493V33.2666H108.146V26.6133Z" fill="var(--fill-0, white)"/>
<g id="Vector_50" opacity="0.3">
</g>
<path id="Vector_51" opacity="0.6" d="M28.3062 33.2666H21.6528V39.9199H28.3062V33.2666Z" fill="var(--fill-0, white)"/>
<g id="Vector_52" opacity="0.6">
</g>
<path id="Vector_53" opacity="0.6" d="M34.96 33.2666H28.3066V39.9199H34.96V33.2666Z" fill="var(--fill-0, white)"/>
<g id="Vector_54" opacity="0.6">
</g>
<path id="Vector_55" opacity="0.6" d="M41.6133 33.2666H34.96V39.9199H41.6133V33.2666Z" fill="var(--fill-0, white)"/>
<g id="Vector_56" opacity="0.6">
</g>
<path id="Vector_57" opacity="0.6" d="M48.2656 33.2666H41.6123V39.9199H48.2656V33.2666Z" fill="var(--fill-0, white)"/>
<g id="Vector_58" opacity="0.6">
</g>
<path id="Vector_59" opacity="0.6" d="M54.9199 33.2666H48.2666V39.9199H54.9199V33.2666Z" fill="var(--fill-0, white)"/>
<g id="Vector_60" opacity="0.6">
</g>
<path id="Vector_61" opacity="0.6" d="M61.5733 33.2666H54.9199V39.9199H61.5733V33.2666Z" fill="var(--fill-0, white)"/>
<g id="Vector_62" opacity="0.6">
</g>
<path id="Vector_63" opacity="0.6" d="M68.2266 33.2666H61.5732V39.9199H68.2266V33.2666Z" fill="var(--fill-0, white)"/>
<g id="Vector_64" opacity="0.6">
</g>
<path id="Vector_65" opacity="0.6" d="M74.8799 33.2666H68.2266V39.9199H74.8799V33.2666Z" fill="var(--fill-0, white)"/>
<g id="Vector_66" opacity="0.6">
</g>
<path id="Vector_67" opacity="0.6" d="M81.5327 33.2666H74.8794V39.9199H81.5327V33.2666Z" fill="var(--fill-0, white)"/>
<g id="Vector_68" opacity="0.6">
</g>
<path id="Vector_69" opacity="0.6" d="M88.186 33.2666H81.5327V39.9199H88.186V33.2666Z" fill="var(--fill-0, white)"/>
<g id="Vector_70" opacity="0.6">
</g>
<path id="Vector_71" opacity="0.6" d="M94.8394 33.2666H88.186V39.9199H94.8394V33.2666Z" fill="var(--fill-0, white)"/>
<g id="Vector_72" opacity="0.6">
</g>
<path id="Vector_73" opacity="0.6" d="M101.494 33.2666H94.8403V39.9199H101.494V33.2666Z" fill="var(--fill-0, white)"/>
<g id="Vector_74" opacity="0.6">
</g>
<path id="Vector_75" opacity="0.6" d="M108.146 33.2666H101.493V39.9199H108.146V33.2666Z" fill="var(--fill-0, white)"/>
<g id="Vector_76" opacity="0.6">
</g>
<g id="Vector_77" opacity="0.3">
</g>
<path id="Vector_78" opacity="0.5" d="M103.082 26.6948H98.5083V31.269H103.082V26.6948Z" fill="var(--fill-0, white)"/>
<path id="Vector_79" opacity="0.5" d="M107.657 26.6948H103.083V31.269H107.657V26.6948Z" fill="var(--fill-0, white)"/>
<g id="Vector_80" opacity="0.25">
</g>
<path id="Vector_81" opacity="0.5" d="M98.5082 31.269H93.9341V35.8432H98.5082V31.269Z" fill="var(--fill-0, white)"/>
<path id="Vector_82" opacity="0.5" d="M103.082 31.269H98.5083V35.8432H103.082V31.269Z" fill="var(--fill-0, white)"/>
<path id="Vector_83" opacity="0.5" d="M107.657 31.269H103.083V35.8432H107.657V31.269Z" fill="var(--fill-0, white)"/>
<path id="Vector_84" opacity="0.5" d="M112.231 31.269H107.657V35.8432H112.231V31.269Z" fill="var(--fill-0, white)"/>
<g id="Vector_85" opacity="0.25">
</g>
<path id="Vector_86" opacity="0.5" d="M93.935 35.8433H89.3608V40.4174H93.935V35.8433Z" fill="var(--fill-0, white)"/>
<path id="Vector_87" opacity="0.5" d="M98.5082 35.8433H93.9341V40.4174H98.5082V35.8433Z" fill="var(--fill-0, white)"/>
<path id="Vector_88" opacity="0.5" d="M103.082 35.8433H98.5083V40.4174H103.082V35.8433Z" fill="var(--fill-0, white)"/>
<path id="Vector_89" opacity="0.5" d="M107.657 35.8433H103.083V40.4174H107.657V35.8433Z" fill="var(--fill-0, white)"/>
<path id="Vector_90" opacity="0.5" d="M112.231 35.8433H107.657V40.4174H112.231V35.8433Z" fill="var(--fill-0, white)"/>
<path id="Vector_91" opacity="0.5" d="M116.805 35.8433H112.231V40.4174H116.805V35.8433Z" fill="var(--fill-0, white)"/>
<g id="Vector_92" opacity="0.25">
</g>
<path id="Vector_93" opacity="0.5" d="M93.935 40.4175H89.3608V44.9916H93.935V40.4175Z" fill="var(--fill-0, white)"/>
<g id="Vector_94" opacity="0.5">
</g>
<path id="Vector_95" opacity="0.5" d="M98.5082 40.4175H93.9341V44.9916H98.5082V40.4175Z" fill="var(--fill-0, white)"/>
<g id="Vector_96" opacity="0.5">
</g>
<path id="Vector_97" opacity="0.5" d="M103.082 40.4175H98.5083V44.9916H103.082V40.4175Z" fill="var(--fill-0, white)"/>
<g id="Vector_98" opacity="0.5">
</g>
<path id="Vector_99" opacity="0.5" d="M107.657 40.4175H103.083V44.9916H107.657V40.4175Z" fill="var(--fill-0, white)"/>
<g id="Vector_100" opacity="0.5">
</g>
<path id="Vector_101" opacity="0.5" d="M112.231 40.4175H107.657V44.9916H112.231V40.4175Z" fill="var(--fill-0, white)"/>
<g id="Vector_102" opacity="0.5">
</g>
<path id="Vector_103" opacity="0.5" d="M116.805 40.4175H112.231V44.9916H116.805V40.4175Z" fill="var(--fill-0, white)"/>
<g id="Vector_104" opacity="0.5">
</g>
<g id="Vector_105" opacity="0.25">
</g>
<path id="Vector_106" opacity="0.7" d="M8.31653 33.4443H4.1582V37.6027H8.31653V33.4443Z" fill="var(--fill-0, white)"/>
<path id="Vector_107" opacity="0.7" d="M12.4747 33.4443H8.31641V37.6027H12.4747V33.4443Z" fill="var(--fill-0, white)"/>
<g id="Vector_108" opacity="0.35">
</g>
<path id="Vector_109" opacity="0.7" d="M24.9498 33.4443H20.7915V37.6027H24.9498V33.4443Z" fill="var(--fill-0, white)"/>
<path id="Vector_110" opacity="0.7" d="M29.108 33.4443H24.9497V37.6027H29.108V33.4443Z" fill="var(--fill-0, white)"/>
<g id="Vector_111" opacity="0.35">
</g>
<path id="Vector_112" opacity="0.7" d="M4.15833 37.603H0V41.7614H4.15833V37.603Z" fill="var(--fill-0, white)"/>
<path id="Vector_113" opacity="0.7" d="M8.31653 37.603H4.1582V41.7614H8.31653V37.603Z" fill="var(--fill-0, white)"/>
<path id="Vector_114" opacity="0.7" d="M12.4747 37.603H8.31641V41.7614H12.4747V37.603Z" fill="var(--fill-0, white)"/>
<path id="Vector_115" opacity="0.7" d="M16.6329 37.603H12.4746V41.7614H16.6329V37.603Z" fill="var(--fill-0, white)"/>
<path id="Vector_116" opacity="0.7" d="M20.7911 37.603H16.6328V41.7614H20.7911V37.603Z" fill="var(--fill-0, white)"/>
<path id="Vector_117" opacity="0.7" d="M24.9498 37.603H20.7915V41.7614H24.9498V37.603Z" fill="var(--fill-0, white)"/>
<path id="Vector_118" opacity="0.7" d="M29.108 37.603H24.9497V41.7614H29.108V37.603Z" fill="var(--fill-0, white)"/>
<path id="Vector_119" opacity="0.7" d="M33.2667 37.603H29.1084V41.7614H33.2667V37.603Z" fill="var(--fill-0, white)"/>
<g id="Vector_120" opacity="0.35">
</g>
<path id="Vector_121" opacity="0.7" d="M4.15833 41.7612H0V45.9196H4.15833V41.7612Z" fill="var(--fill-0, white)"/>
<g id="Vector_122" opacity="0.7">
</g>
<path id="Vector_123" opacity="0.7" d="M8.31653 41.7612H4.1582V45.9196H8.31653V41.7612Z" fill="var(--fill-0, white)"/>
<g id="Vector_124" opacity="0.7">
</g>
<path id="Vector_125" opacity="0.7" d="M12.4747 41.7612H8.31641V45.9196H12.4747V41.7612Z" fill="var(--fill-0, white)"/>
<g id="Vector_126" opacity="0.7">
</g>
<path id="Vector_127" opacity="0.7" d="M16.6329 41.7612H12.4746V45.9196H16.6329V41.7612Z" fill="var(--fill-0, white)"/>
<g id="Vector_128" opacity="0.7">
</g>
<path id="Vector_129" opacity="0.7" d="M20.7911 41.7612H16.6328V45.9196H20.7911V41.7612Z" fill="var(--fill-0, white)"/>
<g id="Vector_130" opacity="0.7">
</g>
<path id="Vector_131" opacity="0.7" d="M24.9498 41.7612H20.7915V45.9196H24.9498V41.7612Z" fill="var(--fill-0, white)"/>
<g id="Vector_132" opacity="0.7">
</g>
<path id="Vector_133" opacity="0.7" d="M29.108 41.7612H24.9497V45.9196H29.108V41.7612Z" fill="var(--fill-0, white)"/>
<g id="Vector_134" opacity="0.7">
</g>
<path id="Vector_135" opacity="0.7" d="M33.2667 41.7612H29.1084V45.9196H33.2667V41.7612Z" fill="var(--fill-0, white)"/>
<g id="Vector_136" opacity="0.7">
</g>
<g id="Vector_137" opacity="0.35">
</g>
<path id="Vector_138" opacity="0.8" d="M40.8378 23.4194H36.2637V27.9936H40.8378V23.4194Z" fill="var(--fill-0, white)"/>
<path id="Vector_139" opacity="0.8" d="M45.413 23.4194H40.8389V27.9936H45.413V23.4194Z" fill="var(--fill-0, white)"/>
<path id="Vector_140" opacity="0.8" d="M49.9868 23.4194H45.4126V27.9936H49.9868V23.4194Z" fill="var(--fill-0, white)"/>
<g id="Vector_141" opacity="0.4">
</g>
<path id="Vector_142" opacity="0.8" d="M36.2646 27.9932H31.6904V32.5673H36.2646V27.9932Z" fill="var(--fill-0, white)"/>
<path id="Vector_143" opacity="0.8" d="M40.8378 27.9932H36.2637V32.5673H40.8378V27.9932Z" fill="var(--fill-0, white)"/>
<path id="Vector_144" opacity="0.8" d="M45.413 27.9932H40.8389V32.5673H45.413V27.9932Z" fill="var(--fill-0, white)"/>
<path id="Vector_145" opacity="0.8" d="M49.9868 27.9932H45.4126V32.5673H49.9868V27.9932Z" fill="var(--fill-0, white)"/>
<path id="Vector_146" opacity="0.8" d="M54.5615 27.9932H49.9873V32.5673H54.5615V27.9932Z" fill="var(--fill-0, white)"/>
<g id="Vector_147" opacity="0.4">
</g>
<path id="Vector_148" opacity="0.8" d="M31.6909 32.5674H27.1167V37.1415H31.6909V32.5674Z" fill="var(--fill-0, white)"/>
<path id="Vector_149" opacity="0.8" d="M36.2646 32.5674H31.6904V37.1415H36.2646V32.5674Z" fill="var(--fill-0, white)"/>
<path id="Vector_150" opacity="0.8" d="M40.8378 32.5674H36.2637V37.1415H40.8378V32.5674Z" fill="var(--fill-0, white)"/>
<path id="Vector_151" opacity="0.8" d="M45.413 32.5674H40.8389V37.1415H45.413V32.5674Z" fill="var(--fill-0, white)"/>
<path id="Vector_152" opacity="0.8" d="M49.9868 32.5674H45.4126V37.1415H49.9868V32.5674Z" fill="var(--fill-0, white)"/>
<path id="Vector_153" opacity="0.8" d="M54.5615 32.5674H49.9873V37.1415H54.5615V32.5674Z" fill="var(--fill-0, white)"/>
<path id="Vector_154" opacity="0.8" d="M59.1352 32.5674H54.561V37.1415H59.1352V32.5674Z" fill="var(--fill-0, white)"/>
<g id="Vector_155" opacity="0.4">
</g>
<path id="Vector_156" opacity="0.8" d="M27.1157 37.1416H22.5415V41.7158H27.1157V37.1416Z" fill="var(--fill-0, white)"/>
<path id="Vector_157" opacity="0.8" d="M31.6909 37.1416H27.1167V41.7158H31.6909V37.1416Z" fill="var(--fill-0, white)"/>
<path id="Vector_158" opacity="0.8" d="M36.2646 37.1416H31.6904V41.7158H36.2646V37.1416Z" fill="var(--fill-0, white)"/>
<path id="Vector_159" opacity="0.8" d="M40.8378 37.1416H36.2637V41.7158H40.8378V37.1416Z" fill="var(--fill-0, white)"/>
<path id="Vector_160" opacity="0.8" d="M45.413 37.1416H40.8389V41.7158H45.413V37.1416Z" fill="var(--fill-0, white)"/>
<path id="Vector_161" opacity="0.8" d="M49.9868 37.1416H45.4126V41.7158H49.9868V37.1416Z" fill="var(--fill-0, white)"/>
<path id="Vector_162" opacity="0.8" d="M54.5615 37.1416H49.9873V41.7158H54.5615V37.1416Z" fill="var(--fill-0, white)"/>
<path id="Vector_163" opacity="0.8" d="M59.1352 37.1416H54.561V41.7158H59.1352V37.1416Z" fill="var(--fill-0, white)"/>
<path id="Vector_164" opacity="0.8" d="M63.7089 37.1416H59.1348V41.7158H63.7089V37.1416Z" fill="var(--fill-0, white)"/>
<g id="Vector_165" opacity="0.4">
</g>
<path id="Vector_166" opacity="0.8" d="M27.1157 41.7158H22.5415V46.29H27.1157V41.7158Z" fill="var(--fill-0, white)"/>
<g id="Vector_167" opacity="0.8">
</g>
<path id="Vector_168" opacity="0.8" d="M31.6909 41.7158H27.1167V46.29H31.6909V41.7158Z" fill="var(--fill-0, white)"/>
<g id="Vector_169" opacity="0.8">
</g>
<path id="Vector_170" opacity="0.8" d="M36.2646 41.7158H31.6904V46.29H36.2646V41.7158Z" fill="var(--fill-0, white)"/>
<g id="Vector_171" opacity="0.8">
</g>
<path id="Vector_172" opacity="0.8" d="M40.8378 41.7158H36.2637V46.29H40.8378V41.7158Z" fill="var(--fill-0, white)"/>
<g id="Vector_173" opacity="0.8">
</g>
<path id="Vector_174" opacity="0.8" d="M45.413 41.7158H40.8389V46.29H45.413V41.7158Z" fill="var(--fill-0, white)"/>
<g id="Vector_175" opacity="0.8">
</g>
<path id="Vector_176" opacity="0.8" d="M49.9868 41.7158H45.4126V46.29H49.9868V41.7158Z" fill="var(--fill-0, white)"/>
<g id="Vector_177" opacity="0.8">
</g>
<path id="Vector_178" opacity="0.8" d="M54.5615 41.7158H49.9873V46.29H54.5615V41.7158Z" fill="var(--fill-0, white)"/>
<g id="Vector_179" opacity="0.8">
</g>
<path id="Vector_180" opacity="0.8" d="M59.1352 41.7158H54.561V46.29H59.1352V41.7158Z" fill="var(--fill-0, white)"/>
<g id="Vector_181" opacity="0.8">
</g>
<path id="Vector_182" opacity="0.8" d="M63.7089 41.7158H59.1348V46.29H63.7089V41.7158Z" fill="var(--fill-0, white)"/>
<g id="Vector_183" opacity="0.8">
</g>
<g id="Vector_184" opacity="0.4">
</g>
</g>
</svg>
