<svg preserveAspectRatio="none" width="100%" height="100%" overflow="visible" style="display: block;" viewBox="0 0 172 69" fill="none" xmlns="http://www.w3.org/2000/svg">
<g id="Cloud1 ">
<path id="Vector" opacity="0.6" d="M71.0027 5.33154H61.166V15.1682H71.0027V5.33154Z" fill="var(--fill-0, white)"/>
<path id="Vector_2" opacity="0.6" d="M80.8396 5.33154H71.0029V15.1682H80.8396V5.33154Z" fill="var(--fill-0, white)"/>
<g id="Vector_3" opacity="0.3">
</g>
<path id="Vector_4" opacity="0.6" d="M110.349 5.33154H100.513V15.1682H110.349V5.33154Z" fill="var(--fill-0, white)"/>
<path id="Vector_5" opacity="0.6" d="M120.186 5.33154H110.35V15.1682H120.186V5.33154Z" fill="var(--fill-0, white)"/>
<g id="Vector_6" opacity="0.3">
</g>
<path id="Vector_7" opacity="0.6" d="M61.1668 15.1685H51.3301V25.0051H61.1668V15.1685Z" fill="var(--fill-0, white)"/>
<path id="Vector_8" opacity="0.6" d="M71.0027 15.1685H61.166V25.0051H71.0027V15.1685Z" fill="var(--fill-0, white)"/>
<path id="Vector_9" opacity="0.6" d="M80.8396 15.1685H71.0029V25.0051H80.8396V15.1685Z" fill="var(--fill-0, white)"/>
<path id="Vector_10" opacity="0.6" d="M90.6765 15.1685H80.8398V25.0051H90.6765V15.1685Z" fill="var(--fill-0, white)"/>
<path id="Vector_11" opacity="0.6" d="M100.513 15.1685H90.6768V25.0051H100.513V15.1685Z" fill="var(--fill-0, white)"/>
<path id="Vector_12" opacity="0.6" d="M110.349 15.1685H100.513V25.0051H110.349V15.1685Z" fill="var(--fill-0, white)"/>
<path id="Vector_13" opacity="0.6" d="M120.186 15.1685H110.35V25.0051H120.186V15.1685Z" fill="var(--fill-0, white)"/>
<path id="Vector_14" opacity="0.6" d="M130.023 15.1685H120.187V25.0051H130.023V15.1685Z" fill="var(--fill-0, white)"/>
<g id="Vector_15" opacity="0.3">
</g>
<path id="Vector_16" opacity="0.6" d="M51.3289 25.0054H41.4922V34.8421H51.3289V25.0054Z" fill="var(--fill-0, white)"/>
<path id="Vector_17" opacity="0.6" d="M61.1668 25.0054H51.3301V34.8421H61.1668V25.0054Z" fill="var(--fill-0, white)"/>
<path id="Vector_18" opacity="0.6" d="M71.0027 25.0054H61.166V34.8421H71.0027V25.0054Z" fill="var(--fill-0, white)"/>
<path id="Vector_19" opacity="0.6" d="M80.8396 25.0054H71.0029V34.8421H80.8396V25.0054Z" fill="var(--fill-0, white)"/>
<path id="Vector_20" opacity="0.6" d="M90.6765 25.0054H80.8398V34.8421H90.6765V25.0054Z" fill="var(--fill-0, white)"/>
<path id="Vector_21" opacity="0.6" d="M100.513 25.0054H90.6768V34.8421H100.513V25.0054Z" fill="var(--fill-0, white)"/>
<path id="Vector_22" opacity="0.6" d="M110.349 25.0054H100.513V34.8421H110.349V25.0054Z" fill="var(--fill-0, white)"/>
<path id="Vector_23" opacity="0.6" d="M120.186 25.0054H110.35V34.8421H120.186V25.0054Z" fill="var(--fill-0, white)"/>
<path id="Vector_24" opacity="0.6" d="M130.023 25.0054H120.187V34.8421H130.023V25.0054Z" fill="var(--fill-0, white)"/>
<path id="Vector_25" opacity="0.6" d="M139.86 25.0054H130.023V34.8421H139.86V25.0054Z" fill="var(--fill-0, white)"/>
<g id="Vector_26" opacity="0.3">
</g>
<path id="Vector_27" opacity="0.6" d="M41.4929 34.8418H31.6562V44.6785H41.4929V34.8418Z" fill="var(--fill-0, white)"/>
<path id="Vector_28" opacity="0.6" d="M51.3289 34.8418H41.4922V44.6785H51.3289V34.8418Z" fill="var(--fill-0, white)"/>
<path id="Vector_29" opacity="0.6" d="M61.1668 34.8418H51.3301V44.6785H61.1668V34.8418Z" fill="var(--fill-0, white)"/>
<path id="Vector_30" opacity="0.6" d="M71.0027 34.8418H61.166V44.6785H71.0027V34.8418Z" fill="var(--fill-0, white)"/>
<path id="Vector_31" opacity="0.6" d="M80.8396 34.8418H71.0029V44.6785H80.8396V34.8418Z" fill="var(--fill-0, white)"/>
<path id="Vector_32" opacity="0.6" d="M90.6765 34.8418H80.8398V44.6785H90.6765V34.8418Z" fill="var(--fill-0, white)"/>
<path id="Vector_33" opacity="0.6" d="M100.513 34.8418H90.6768V44.6785H100.513V34.8418Z" fill="var(--fill-0, white)"/>
<path id="Vector_34" opacity="0.6" d="M110.349 34.8418H100.513V44.6785H110.349V34.8418Z" fill="var(--fill-0, white)"/>
<path id="Vector_35" opacity="0.6" d="M120.186 34.8418H110.35V44.6785H120.186V34.8418Z" fill="var(--fill-0, white)"/>
<path id="Vector_36" opacity="0.6" d="M130.023 34.8418H120.187V44.6785H130.023V34.8418Z" fill="var(--fill-0, white)"/>
<path id="Vector_37" opacity="0.6" d="M139.86 34.8418H130.023V44.6785H139.86V34.8418Z" fill="var(--fill-0, white)"/>
<path id="Vector_38" opacity="0.6" d="M149.696 34.8418H139.859V44.6785H149.696V34.8418Z" fill="var(--fill-0, white)"/>
<g id="Vector_39" opacity="0.3">
</g>
<path id="Vector_40" opacity="0.6" d="M41.4929 44.6787H31.6562V54.5154H41.4929V44.6787Z" fill="var(--fill-0, white)"/>
<path id="Vector_41" opacity="0.6" d="M51.3289 44.6787H41.4922V54.5154H51.3289V44.6787Z" fill="var(--fill-0, white)"/>
<path id="Vector_42" opacity="0.6" d="M61.1668 44.6787H51.3301V54.5154H61.1668V44.6787Z" fill="var(--fill-0, white)"/>
<path id="Vector_43" opacity="0.6" d="M71.0027 44.6787H61.166V54.5154H71.0027V44.6787Z" fill="var(--fill-0, white)"/>
<path id="Vector_44" opacity="0.6" d="M80.8396 44.6787H71.0029V54.5154H80.8396V44.6787Z" fill="var(--fill-0, white)"/>
<path id="Vector_45" opacity="0.6" d="M90.6765 44.6787H80.8398V54.5154H90.6765V44.6787Z" fill="var(--fill-0, white)"/>
<path id="Vector_46" opacity="0.6" d="M100.513 44.6787H90.6768V54.5154H100.513V44.6787Z" fill="var(--fill-0, white)"/>
<path id="Vector_47" opacity="0.6" d="M110.349 44.6787H100.513V54.5154H110.349V44.6787Z" fill="var(--fill-0, white)"/>
<path id="Vector_48" opacity="0.6" d="M120.186 44.6787H110.35V54.5154H120.186V44.6787Z" fill="var(--fill-0, white)"/>
<path id="Vector_49" opacity="0.6" d="M130.023 44.6787H120.187V54.5154H130.023V44.6787Z" fill="var(--fill-0, white)"/>
<path id="Vector_50" opacity="0.6" d="M139.86 44.6787H130.023V54.5154H139.86V44.6787Z" fill="var(--fill-0, white)"/>
<path id="Vector_51" opacity="0.6" d="M149.696 44.6787H139.859V54.5154H149.696V44.6787Z" fill="var(--fill-0, white)"/>
<g id="Vector_52" opacity="0.3">
</g>
<path id="Vector_53" opacity="0.6" d="M41.4929 54.5151H31.6562V64.3518H41.4929V54.5151Z" fill="var(--fill-0, white)"/>
<g id="Vector_54" opacity="0.6">
</g>
<path id="Vector_55" opacity="0.6" d="M51.3289 54.5151H41.4922V64.3518H51.3289V54.5151Z" fill="var(--fill-0, white)"/>
<g id="Vector_56" opacity="0.6">
</g>
<path id="Vector_57" opacity="0.6" d="M61.1668 54.5151H51.3301V64.3518H61.1668V54.5151Z" fill="var(--fill-0, white)"/>
<g id="Vector_58" opacity="0.6">
</g>
<path id="Vector_59" opacity="0.6" d="M71.0027 54.5151H61.166V64.3518H71.0027V54.5151Z" fill="var(--fill-0, white)"/>
<g id="Vector_60" opacity="0.6">
</g>
<path id="Vector_61" opacity="0.6" d="M80.8396 54.5151H71.0029V64.3518H80.8396V54.5151Z" fill="var(--fill-0, white)"/>
<g id="Vector_62" opacity="0.6">
</g>
<path id="Vector_63" opacity="0.6" d="M90.6765 54.5151H80.8398V64.3518H90.6765V54.5151Z" fill="var(--fill-0, white)"/>
<g id="Vector_64" opacity="0.6">
</g>
<path id="Vector_65" opacity="0.6" d="M100.513 54.5151H90.6768V64.3518H100.513V54.5151Z" fill="var(--fill-0, white)"/>
<g id="Vector_66" opacity="0.6">
</g>
<path id="Vector_67" opacity="0.6" d="M110.349 54.5151H100.513V64.3518H110.349V54.5151Z" fill="var(--fill-0, white)"/>
<g id="Vector_68" opacity="0.6">
</g>
<path id="Vector_69" opacity="0.6" d="M120.186 54.5151H110.35V64.3518H120.186V54.5151Z" fill="var(--fill-0, white)"/>
<g id="Vector_70" opacity="0.6">
</g>
<path id="Vector_71" opacity="0.6" d="M130.023 54.5151H120.187V64.3518H130.023V54.5151Z" fill="var(--fill-0, white)"/>
<g id="Vector_72" opacity="0.6">
</g>
<path id="Vector_73" opacity="0.6" d="M139.86 54.5151H130.023V64.3518H139.86V54.5151Z" fill="var(--fill-0, white)"/>
<g id="Vector_74" opacity="0.6">
</g>
<path id="Vector_75" opacity="0.6" d="M149.696 54.5151H139.859V64.3518H149.696V54.5151Z" fill="var(--fill-0, white)"/>
<g id="Vector_76" opacity="0.6">
</g>
<g id="Vector_77" opacity="0.3">
</g>
<path id="Vector_78" opacity="0.6" d="M30.2653 31.0381H24.2119V37.0914H30.2653V31.0381Z" fill="var(--fill-0, white)"/>
<path id="Vector_79" opacity="0.6" d="M36.319 31.0381H30.2656V37.0914H36.319V31.0381Z" fill="var(--fill-0, white)"/>
<path id="Vector_80" opacity="0.6" d="M42.3727 31.0381H36.3193V37.0914H42.3727V31.0381Z" fill="var(--fill-0, white)"/>
<path id="Vector_81" opacity="0.6" d="M48.4254 31.0381H42.3721V37.0914H48.4254V31.0381Z" fill="var(--fill-0, white)"/>
<path id="Vector_82" opacity="0.6" d="M54.4791 31.0381H48.4258V37.0914H54.4791V31.0381Z" fill="var(--fill-0, white)"/>
<g id="Vector_83" opacity="0.3">
</g>
<path id="Vector_84" opacity="0.6" d="M24.2125 37.0918H18.1592V43.1451H24.2125V37.0918Z" fill="var(--fill-0, white)"/>
<path id="Vector_85" opacity="0.6" d="M30.2653 37.0918H24.2119V43.1451H30.2653V37.0918Z" fill="var(--fill-0, white)"/>
<path id="Vector_86" opacity="0.6" d="M36.319 37.0918H30.2656V43.1451H36.319V37.0918Z" fill="var(--fill-0, white)"/>
<path id="Vector_87" opacity="0.6" d="M42.3727 37.0918H36.3193V43.1451H42.3727V37.0918Z" fill="var(--fill-0, white)"/>
<path id="Vector_88" opacity="0.6" d="M48.4254 37.0918H42.3721V43.1451H48.4254V37.0918Z" fill="var(--fill-0, white)"/>
<path id="Vector_89" opacity="0.6" d="M54.4791 37.0918H48.4258V43.1451H54.4791V37.0918Z" fill="var(--fill-0, white)"/>
<path id="Vector_90" opacity="0.6" d="M60.5328 37.0918H54.4795V43.1451H60.5328V37.0918Z" fill="var(--fill-0, white)"/>
<g id="Vector_91" opacity="0.3">
</g>
<path id="Vector_92" opacity="0.6" d="M18.1588 43.1445H12.1055V49.1979H18.1588V43.1445Z" fill="var(--fill-0, white)"/>
<path id="Vector_93" opacity="0.6" d="M24.2125 43.1445H18.1592V49.1979H24.2125V43.1445Z" fill="var(--fill-0, white)"/>
<path id="Vector_94" opacity="0.6" d="M30.2653 43.1445H24.2119V49.1979H30.2653V43.1445Z" fill="var(--fill-0, white)"/>
<path id="Vector_95" opacity="0.6" d="M36.319 43.1445H30.2656V49.1979H36.319V43.1445Z" fill="var(--fill-0, white)"/>
<path id="Vector_96" opacity="0.6" d="M42.3727 43.1445H36.3193V49.1979H42.3727V43.1445Z" fill="var(--fill-0, white)"/>
<path id="Vector_97" opacity="0.6" d="M48.4254 43.1445H42.3721V49.1979H48.4254V43.1445Z" fill="var(--fill-0, white)"/>
<path id="Vector_98" opacity="0.6" d="M54.4791 43.1445H48.4258V49.1979H54.4791V43.1445Z" fill="var(--fill-0, white)"/>
<path id="Vector_99" opacity="0.6" d="M60.5328 43.1445H54.4795V49.1979H60.5328V43.1445Z" fill="var(--fill-0, white)"/>
<path id="Vector_100" opacity="0.6" d="M66.5865 43.1445H60.5332V49.1979H66.5865V43.1445Z" fill="var(--fill-0, white)"/>
<g id="Vector_101" opacity="0.3">
</g>
<path id="Vector_102" opacity="0.6" d="M12.1061 49.1978H6.05273V55.2511H12.1061V49.1978Z" fill="var(--fill-0, white)"/>
<path id="Vector_103" opacity="0.6" d="M18.1588 49.1978H12.1055V55.2511H18.1588V49.1978Z" fill="var(--fill-0, white)"/>
<path id="Vector_104" opacity="0.6" d="M24.2125 49.1978H18.1592V55.2511H24.2125V49.1978Z" fill="var(--fill-0, white)"/>
<path id="Vector_105" opacity="0.6" d="M30.2653 49.1978H24.2119V55.2511H30.2653V49.1978Z" fill="var(--fill-0, white)"/>
<path id="Vector_106" opacity="0.6" d="M36.319 49.1978H30.2656V55.2511H36.319V49.1978Z" fill="var(--fill-0, white)"/>
<path id="Vector_107" opacity="0.6" d="M42.3727 49.1978H36.3193V55.2511H42.3727V49.1978Z" fill="var(--fill-0, white)"/>
<path id="Vector_108" opacity="0.6" d="M48.4254 49.1978H42.3721V55.2511H48.4254V49.1978Z" fill="var(--fill-0, white)"/>
<path id="Vector_109" opacity="0.6" d="M54.4791 49.1978H48.4258V55.2511H54.4791V49.1978Z" fill="var(--fill-0, white)"/>
<path id="Vector_110" opacity="0.6" d="M60.5328 49.1978H54.4795V55.2511H60.5328V49.1978Z" fill="var(--fill-0, white)"/>
<path id="Vector_111" opacity="0.6" d="M66.5865 49.1978H60.5332V55.2511H66.5865V49.1978Z" fill="var(--fill-0, white)"/>
<path id="Vector_112" opacity="0.6" d="M72.6393 49.1978H66.5859V55.2511H72.6393V49.1978Z" fill="var(--fill-0, white)"/>
<g id="Vector_113" opacity="0.3">
</g>
<path id="Vector_114" opacity="0.6" d="M6.05335 55.2515H0V61.3048H6.05335V55.2515Z" fill="var(--fill-0, white)"/>
<path id="Vector_115" opacity="0.6" d="M12.1061 55.2515H6.05273V61.3048H12.1061V55.2515Z" fill="var(--fill-0, white)"/>
<path id="Vector_116" opacity="0.6" d="M18.1588 55.2515H12.1055V61.3048H18.1588V55.2515Z" fill="var(--fill-0, white)"/>
<path id="Vector_117" opacity="0.6" d="M24.2125 55.2515H18.1592V61.3048H24.2125V55.2515Z" fill="var(--fill-0, white)"/>
<path id="Vector_118" opacity="0.6" d="M30.2653 55.2515H24.2119V61.3048H30.2653V55.2515Z" fill="var(--fill-0, white)"/>
<path id="Vector_119" opacity="0.6" d="M36.319 55.2515H30.2656V61.3048H36.319V55.2515Z" fill="var(--fill-0, white)"/>
<path id="Vector_120" opacity="0.6" d="M42.3727 55.2515H36.3193V61.3048H42.3727V55.2515Z" fill="var(--fill-0, white)"/>
<path id="Vector_121" opacity="0.6" d="M48.4254 55.2515H42.3721V61.3048H48.4254V55.2515Z" fill="var(--fill-0, white)"/>
<path id="Vector_122" opacity="0.6" d="M54.4791 55.2515H48.4258V61.3048H54.4791V55.2515Z" fill="var(--fill-0, white)"/>
<path id="Vector_123" opacity="0.6" d="M60.5328 55.2515H54.4795V61.3048H60.5328V55.2515Z" fill="var(--fill-0, white)"/>
<path id="Vector_124" opacity="0.6" d="M66.5865 55.2515H60.5332V61.3048H66.5865V55.2515Z" fill="var(--fill-0, white)"/>
<path id="Vector_125" opacity="0.6" d="M72.6393 55.2515H66.5859V61.3048H72.6393V55.2515Z" fill="var(--fill-0, white)"/>
<path id="Vector_126" opacity="0.6" d="M78.692 55.2515H72.6387V61.3048H78.692V55.2515Z" fill="var(--fill-0, white)"/>
<g id="Vector_127" opacity="0.3">
</g>
<path id="Vector_128" opacity="0.6" d="M6.05335 61.3047H0V67.358H6.05335V61.3047Z" fill="var(--fill-0, white)"/>
<g id="Vector_129" opacity="0.6">
</g>
<path id="Vector_130" opacity="0.6" d="M12.1061 61.3047H6.05273V67.358H12.1061V61.3047Z" fill="var(--fill-0, white)"/>
<g id="Vector_131" opacity="0.6">
</g>
<path id="Vector_132" opacity="0.6" d="M18.1588 61.3047H12.1055V67.358H18.1588V61.3047Z" fill="var(--fill-0, white)"/>
<g id="Vector_133" opacity="0.6">
</g>
<path id="Vector_134" opacity="0.6" d="M24.2125 61.3047H18.1592V67.358H24.2125V61.3047Z" fill="var(--fill-0, white)"/>
<g id="Vector_135" opacity="0.6">
</g>
<path id="Vector_136" opacity="0.6" d="M30.2653 61.3047H24.2119V67.358H30.2653V61.3047Z" fill="var(--fill-0, white)"/>
<g id="Vector_137" opacity="0.6">
</g>
<path id="Vector_138" opacity="0.6" d="M36.319 61.3047H30.2656V67.358H36.319V61.3047Z" fill="var(--fill-0, white)"/>
<g id="Vector_139" opacity="0.6">
</g>
<path id="Vector_140" opacity="0.6" d="M42.3727 61.3047H36.3193V67.358H42.3727V61.3047Z" fill="var(--fill-0, white)"/>
<g id="Vector_141" opacity="0.6">
</g>
<path id="Vector_142" opacity="0.6" d="M48.4254 61.3047H42.3721V67.358H48.4254V61.3047Z" fill="var(--fill-0, white)"/>
<g id="Vector_143" opacity="0.6">
</g>
<path id="Vector_144" opacity="0.6" d="M54.4791 61.3047H48.4258V67.358H54.4791V61.3047Z" fill="var(--fill-0, white)"/>
<g id="Vector_145" opacity="0.6">
</g>
<path id="Vector_146" opacity="0.6" d="M60.5328 61.3047H54.4795V67.358H60.5328V61.3047Z" fill="var(--fill-0, white)"/>
<g id="Vector_147" opacity="0.6">
</g>
<path id="Vector_148" opacity="0.6" d="M66.5865 61.3047H60.5332V67.358H66.5865V61.3047Z" fill="var(--fill-0, white)"/>
<g id="Vector_149" opacity="0.6">
</g>
<path id="Vector_150" opacity="0.6" d="M72.6393 61.3047H66.5859V67.358H72.6393V61.3047Z" fill="var(--fill-0, white)"/>
<g id="Vector_151" opacity="0.6">
</g>
<path id="Vector_152" opacity="0.6" d="M78.692 61.3047H72.6387V67.358H78.692V61.3047Z" fill="var(--fill-0, white)"/>
<g id="Vector_153" opacity="0.6">
</g>
<g id="Vector_154" opacity="0.3">
</g>
<path id="Vector_155" opacity="0.3" d="M86.6519 0H76.0586V10.5934H86.6519V0Z" fill="var(--fill-0, white)"/>
<path id="Vector_156" opacity="0.3" d="M97.2457 0H86.6523V10.5934H97.2457V0Z" fill="var(--fill-0, white)"/>
<path id="Vector_157" opacity="0.3" d="M107.839 0H97.2461V10.5934H107.839V0Z" fill="var(--fill-0, white)"/>
<path id="Vector_158" opacity="0.3" d="M118.432 0H107.839V10.5934H118.432V0Z" fill="var(--fill-0, white)"/>
<path id="Vector_159" opacity="0.3" d="M129.026 0H118.433V10.5934H129.026V0Z" fill="var(--fill-0, white)"/>
<g id="Vector_160" opacity="0.15">
</g>
<path id="Vector_161" opacity="0.3" d="M76.0582 10.5933H65.4648V21.1866H76.0582V10.5933Z" fill="var(--fill-0, white)"/>
<path id="Vector_162" opacity="0.3" d="M86.6519 10.5933H76.0586V21.1866H86.6519V10.5933Z" fill="var(--fill-0, white)"/>
<path id="Vector_163" opacity="0.3" d="M97.2457 10.5933H86.6523V21.1866H97.2457V10.5933Z" fill="var(--fill-0, white)"/>
<path id="Vector_164" opacity="0.3" d="M107.839 10.5933H97.2461V21.1866H107.839V10.5933Z" fill="var(--fill-0, white)"/>
<path id="Vector_165" opacity="0.3" d="M118.432 10.5933H107.839V21.1866H118.432V10.5933Z" fill="var(--fill-0, white)"/>
<path id="Vector_166" opacity="0.3" d="M129.026 10.5933H118.433V21.1866H129.026V10.5933Z" fill="var(--fill-0, white)"/>
<path id="Vector_167" opacity="0.3" d="M139.619 10.5933H129.025V21.1866H139.619V10.5933Z" fill="var(--fill-0, white)"/>
<g id="Vector_168" opacity="0.15">
</g>
<path id="Vector_169" opacity="0.3" d="M65.4654 21.187H54.8721V31.7804H65.4654V21.187Z" fill="var(--fill-0, white)"/>
<path id="Vector_170" opacity="0.3" d="M76.0582 21.187H65.4648V31.7804H76.0582V21.187Z" fill="var(--fill-0, white)"/>
<path id="Vector_171" opacity="0.3" d="M86.6519 21.187H76.0586V31.7804H86.6519V21.187Z" fill="var(--fill-0, white)"/>
<path id="Vector_172" opacity="0.3" d="M97.2457 21.187H86.6523V31.7804H97.2457V21.187Z" fill="var(--fill-0, white)"/>
<path id="Vector_173" opacity="0.3" d="M107.839 21.187H97.2461V31.7804H107.839V21.187Z" fill="var(--fill-0, white)"/>
<path id="Vector_174" opacity="0.3" d="M118.432 21.187H107.839V31.7804H118.432V21.187Z" fill="var(--fill-0, white)"/>
<path id="Vector_175" opacity="0.3" d="M129.026 21.187H118.433V31.7804H129.026V21.187Z" fill="var(--fill-0, white)"/>
<path id="Vector_176" opacity="0.3" d="M139.619 21.187H129.025V31.7804H139.619V21.187Z" fill="var(--fill-0, white)"/>
<path id="Vector_177" opacity="0.3" d="M150.212 21.187H139.619V31.7804H150.212V21.187Z" fill="var(--fill-0, white)"/>
<g id="Vector_178" opacity="0.15">
</g>
<path id="Vector_179" opacity="0.3" d="M54.8727 31.7798H44.2793V42.3731H54.8727V31.7798Z" fill="var(--fill-0, white)"/>
<path id="Vector_180" opacity="0.3" d="M65.4654 31.7798H54.8721V42.3731H65.4654V31.7798Z" fill="var(--fill-0, white)"/>
<path id="Vector_181" opacity="0.3" d="M76.0582 31.7798H65.4648V42.3731H76.0582V31.7798Z" fill="var(--fill-0, white)"/>
<path id="Vector_182" opacity="0.3" d="M86.6519 31.7798H76.0586V42.3731H86.6519V31.7798Z" fill="var(--fill-0, white)"/>
<path id="Vector_183" opacity="0.3" d="M97.2457 31.7798H86.6523V42.3731H97.2457V31.7798Z" fill="var(--fill-0, white)"/>
<path id="Vector_184" opacity="0.3" d="M107.839 31.7798H97.2461V42.3731H107.839V31.7798Z" fill="var(--fill-0, white)"/>
<path id="Vector_185" opacity="0.3" d="M118.432 31.7798H107.839V42.3731H118.432V31.7798Z" fill="var(--fill-0, white)"/>
<path id="Vector_186" opacity="0.3" d="M129.026 31.7798H118.433V42.3731H129.026V31.7798Z" fill="var(--fill-0, white)"/>
<path id="Vector_187" opacity="0.3" d="M139.619 31.7798H129.025V42.3731H139.619V31.7798Z" fill="var(--fill-0, white)"/>
<path id="Vector_188" opacity="0.3" d="M150.212 31.7798H139.619V42.3731H150.212V31.7798Z" fill="var(--fill-0, white)"/>
<path id="Vector_189" opacity="0.3" d="M160.806 31.7798H150.213V42.3731H160.806V31.7798Z" fill="var(--fill-0, white)"/>
<g id="Vector_190" opacity="0.15">
</g>
<path id="Vector_191" opacity="0.3" d="M44.2789 42.373H33.6855V52.9664H44.2789V42.373Z" fill="var(--fill-0, white)"/>
<path id="Vector_192" opacity="0.3" d="M54.8727 42.373H44.2793V52.9664H54.8727V42.373Z" fill="var(--fill-0, white)"/>
<path id="Vector_193" opacity="0.3" d="M65.4654 42.373H54.8721V52.9664H65.4654V42.373Z" fill="var(--fill-0, white)"/>
<path id="Vector_194" opacity="0.3" d="M76.0582 42.373H65.4648V52.9664H76.0582V42.373Z" fill="var(--fill-0, white)"/>
<path id="Vector_195" opacity="0.3" d="M86.6519 42.373H76.0586V52.9664H86.6519V42.373Z" fill="var(--fill-0, white)"/>
<path id="Vector_196" opacity="0.3" d="M97.2457 42.373H86.6523V52.9664H97.2457V42.373Z" fill="var(--fill-0, white)"/>
<path id="Vector_197" opacity="0.3" d="M107.839 42.373H97.2461V52.9664H107.839V42.373Z" fill="var(--fill-0, white)"/>
<path id="Vector_198" opacity="0.3" d="M118.432 42.373H107.839V52.9664H118.432V42.373Z" fill="var(--fill-0, white)"/>
<path id="Vector_199" opacity="0.3" d="M129.026 42.373H118.433V52.9664H129.026V42.373Z" fill="var(--fill-0, white)"/>
<path id="Vector_200" opacity="0.3" d="M139.619 42.373H129.025V52.9664H139.619V42.373Z" fill="var(--fill-0, white)"/>
<path id="Vector_201" opacity="0.3" d="M150.212 42.373H139.619V52.9664H150.212V42.373Z" fill="var(--fill-0, white)"/>
<path id="Vector_202" opacity="0.3" d="M160.806 42.373H150.213V52.9664H160.806V42.373Z" fill="var(--fill-0, white)"/>
<path id="Vector_203" opacity="0.3" d="M171.4 42.373H160.807V52.9664H171.4V42.373Z" fill="var(--fill-0, white)"/>
<g id="Vector_204" opacity="0.15">
</g>
<path id="Vector_205" opacity="0.3" d="M44.2789 52.9663H33.6855V63.5597H44.2789V52.9663Z" fill="var(--fill-0, white)"/>
<g id="Vector_206" opacity="0.3">
</g>
<path id="Vector_207" opacity="0.3" d="M54.8727 52.9663H44.2793V63.5597H54.8727V52.9663Z" fill="var(--fill-0, white)"/>
<g id="Vector_208" opacity="0.3">
</g>
<path id="Vector_209" opacity="0.3" d="M65.4654 52.9663H54.8721V63.5597H65.4654V52.9663Z" fill="var(--fill-0, white)"/>
<g id="Vector_210" opacity="0.3">
</g>
<path id="Vector_211" opacity="0.3" d="M76.0582 52.9663H65.4648V63.5597H76.0582V52.9663Z" fill="var(--fill-0, white)"/>
<g id="Vector_212" opacity="0.3">
</g>
<path id="Vector_213" opacity="0.3" d="M86.6519 52.9663H76.0586V63.5597H86.6519V52.9663Z" fill="var(--fill-0, white)"/>
<g id="Vector_214" opacity="0.3">
</g>
<path id="Vector_215" opacity="0.3" d="M97.2457 52.9663H86.6523V63.5597H97.2457V52.9663Z" fill="var(--fill-0, white)"/>
<g id="Vector_216" opacity="0.3">
</g>
<path id="Vector_217" opacity="0.3" d="M107.839 52.9663H97.2461V63.5597H107.839V52.9663Z" fill="var(--fill-0, white)"/>
<g id="Vector_218" opacity="0.3">
</g>
<path id="Vector_219" opacity="0.3" d="M118.432 52.9663H107.839V63.5597H118.432V52.9663Z" fill="var(--fill-0, white)"/>
<g id="Vector_220" opacity="0.3">
</g>
<path id="Vector_221" opacity="0.3" d="M129.026 52.9663H118.433V63.5597H129.026V52.9663Z" fill="var(--fill-0, white)"/>
<g id="Vector_222" opacity="0.3">
</g>
<path id="Vector_223" opacity="0.3" d="M139.619 52.9663H129.025V63.5597H139.619V52.9663Z" fill="var(--fill-0, white)"/>
<g id="Vector_224" opacity="0.3">
</g>
<path id="Vector_225" opacity="0.3" d="M150.212 52.9663H139.619V63.5597H150.212V52.9663Z" fill="var(--fill-0, white)"/>
<g id="Vector_226" opacity="0.3">
</g>
<path id="Vector_227" opacity="0.3" d="M160.806 52.9663H150.213V63.5597H160.806V52.9663Z" fill="var(--fill-0, white)"/>
<g id="Vector_228" opacity="0.3">
</g>
<path id="Vector_229" opacity="0.3" d="M171.4 52.9663H160.807V63.5597H171.4V52.9663Z" fill="var(--fill-0, white)"/>
<g id="Vector_230" opacity="0.3">
</g>
<g id="Vector_231" opacity="0.15">
</g>
<path id="Vector_232" opacity="0.5" d="M123.036 45.5044H115.47V53.0711H123.036V45.5044Z" fill="var(--fill-0, white)"/>
<path id="Vector_233" opacity="0.5" d="M130.603 45.5044H123.036V53.0711H130.603V45.5044Z" fill="var(--fill-0, white)"/>
<g id="Vector_234" opacity="0.25">
</g>
<path id="Vector_235" opacity="0.5" d="M153.303 45.5044H145.736V53.0711H153.303V45.5044Z" fill="var(--fill-0, white)"/>
<path id="Vector_236" opacity="0.5" d="M160.869 45.5044H153.303V53.0711H160.869V45.5044Z" fill="var(--fill-0, white)"/>
<g id="Vector_237" opacity="0.25">
</g>
<path id="Vector_238" opacity="0.5" d="M115.469 53.0713H107.902V60.638H115.469V53.0713Z" fill="var(--fill-0, white)"/>
<path id="Vector_239" opacity="0.5" d="M123.036 53.0713H115.47V60.638H123.036V53.0713Z" fill="var(--fill-0, white)"/>
<path id="Vector_240" opacity="0.5" d="M130.603 53.0713H123.036V60.638H130.603V53.0713Z" fill="var(--fill-0, white)"/>
<path id="Vector_241" opacity="0.5" d="M138.17 53.0713H130.604V60.638H138.17V53.0713Z" fill="var(--fill-0, white)"/>
<path id="Vector_242" opacity="0.5" d="M145.737 53.0713H138.17V60.638H145.737V53.0713Z" fill="var(--fill-0, white)"/>
<path id="Vector_243" opacity="0.5" d="M153.303 53.0713H145.736V60.638H153.303V53.0713Z" fill="var(--fill-0, white)"/>
<path id="Vector_244" opacity="0.5" d="M160.869 53.0713H153.303V60.638H160.869V53.0713Z" fill="var(--fill-0, white)"/>
<path id="Vector_245" opacity="0.5" d="M168.437 53.0713H160.87V60.638H168.437V53.0713Z" fill="var(--fill-0, white)"/>
<g id="Vector_246" opacity="0.25">
</g>
<path id="Vector_247" opacity="0.5" d="M115.469 60.6377H107.902V68.2044H115.469V60.6377Z" fill="var(--fill-0, white)"/>
<g id="Vector_248" opacity="0.5">
</g>
<path id="Vector_249" opacity="0.5" d="M123.036 60.6377H115.47V68.2044H123.036V60.6377Z" fill="var(--fill-0, white)"/>
<g id="Vector_250" opacity="0.5">
</g>
<path id="Vector_251" opacity="0.5" d="M130.603 60.6377H123.036V68.2044H130.603V60.6377Z" fill="var(--fill-0, white)"/>
<g id="Vector_252" opacity="0.5">
</g>
<path id="Vector_253" opacity="0.5" d="M138.17 60.6377H130.604V68.2044H138.17V60.6377Z" fill="var(--fill-0, white)"/>
<g id="Vector_254" opacity="0.5">
</g>
<path id="Vector_255" opacity="0.5" d="M145.737 60.6377H138.17V68.2044H145.737V60.6377Z" fill="var(--fill-0, white)"/>
<g id="Vector_256" opacity="0.5">
</g>
<path id="Vector_257" opacity="0.5" d="M153.303 60.6377H145.736V68.2044H153.303V60.6377Z" fill="var(--fill-0, white)"/>
<g id="Vector_258" opacity="0.5">
</g>
<path id="Vector_259" opacity="0.5" d="M160.869 60.6377H153.303V68.2044H160.869V60.6377Z" fill="var(--fill-0, white)"/>
<g id="Vector_260" opacity="0.5">
</g>
<path id="Vector_261" opacity="0.5" d="M168.437 60.6377H160.87V68.2044H168.437V60.6377Z" fill="var(--fill-0, white)"/>
<g id="Vector_262" opacity="0.5">
</g>
<g id="Vector_263" opacity="0.25">
</g>
</g>
</svg>
