<svg width="90" height="36" viewBox="0 0 90 36" fill="none" xmlns="http://www.w3.org/2000/svg">
<path opacity="0.4" d="M38.3517 0H32.5117V5.84001H38.3517V0Z" fill="white"/>
<path opacity="0.4" d="M44.1916 0H38.3516V5.84001H44.1916V0Z" fill="white"/>
<path opacity="0.4" d="M50.0314 0H44.1914V5.84001H50.0314V0Z" fill="white"/>
<path opacity="0.4" d="M55.8722 0H50.0322V5.84001H55.8722V0Z" fill="white"/>
<path opacity="0.4" d="M61.7111 0H55.8711V5.84001H61.7111V0Z" fill="white"/>
<path opacity="0.4" d="M32.5109 5.83936H26.6709V11.6794H32.5109V5.83936Z" fill="white"/>
<path opacity="0.4" d="M38.3517 5.83936H32.5117V11.6794H38.3517V5.83936Z" fill="white"/>
<path opacity="0.4" d="M44.1916 5.83936H38.3516V11.6794H44.1916V5.83936Z" fill="white"/>
<path opacity="0.4" d="M50.0314 5.83936H44.1914V11.6794H50.0314V5.83936Z" fill="white"/>
<path opacity="0.4" d="M55.8722 5.83936H50.0322V11.6794H55.8722V5.83936Z" fill="white"/>
<path opacity="0.4" d="M61.7111 5.83936H55.8711V11.6794H61.7111V5.83936Z" fill="white"/>
<path opacity="0.4" d="M67.5519 5.83936H61.7119V11.6794H67.5519V5.83936Z" fill="white"/>
<path opacity="0.4" d="M26.6711 11.6797H20.8311V17.5197H26.6711V11.6797Z" fill="white"/>
<path opacity="0.4" d="M32.5109 11.6797H26.6709V17.5197H32.5109V11.6797Z" fill="white"/>
<path opacity="0.4" d="M38.3517 11.6797H32.5117V17.5197H38.3517V11.6797Z" fill="white"/>
<path opacity="0.4" d="M44.1916 11.6797H38.3516V17.5197H44.1916V11.6797Z" fill="white"/>
<path opacity="0.4" d="M50.0314 11.6797H44.1914V17.5197H50.0314V11.6797Z" fill="white"/>
<path opacity="0.4" d="M55.8722 11.6797H50.0322V17.5197H55.8722V11.6797Z" fill="white"/>
<path opacity="0.4" d="M61.7111 11.6797H55.8711V17.5197H61.7111V11.6797Z" fill="white"/>
<path opacity="0.4" d="M67.5519 11.6797H61.7119V17.5197H67.5519V11.6797Z" fill="white"/>
<path opacity="0.4" d="M73.3918 11.6797H67.5518V17.5197H73.3918V11.6797Z" fill="white"/>
<path opacity="0.4" d="M20.8312 17.52H14.9912V23.36H20.8312V17.52Z" fill="white"/>
<path opacity="0.4" d="M26.6711 17.52H20.8311V23.36H26.6711V17.52Z" fill="white"/>
<path opacity="0.4" d="M32.5109 17.52H26.6709V23.36H32.5109V17.52Z" fill="white"/>
<path opacity="0.4" d="M38.3517 17.52H32.5117V23.36H38.3517V17.52Z" fill="white"/>
<path opacity="0.4" d="M44.1916 17.52H38.3516V23.36H44.1916V17.52Z" fill="white"/>
<path opacity="0.4" d="M50.0314 17.52H44.1914V23.36H50.0314V17.52Z" fill="white"/>
<path opacity="0.4" d="M55.8722 17.52H50.0322V23.36H55.8722V17.52Z" fill="white"/>
<path opacity="0.4" d="M61.7111 17.52H55.8711V23.36H61.7111V17.52Z" fill="white"/>
<path opacity="0.4" d="M67.5519 17.52H61.7119V23.36H67.5519V17.52Z" fill="white"/>
<path opacity="0.4" d="M73.3918 17.52H67.5518V23.36H73.3918V17.52Z" fill="white"/>
<path opacity="0.4" d="M79.2316 17.52H73.3916V23.36H79.2316V17.52Z" fill="white"/>
<path opacity="0.4" d="M14.9914 23.3599H9.15137V29.1999H14.9914V23.3599Z" fill="white"/>
<path opacity="0.4" d="M20.8312 23.3599H14.9912V29.1999H20.8312V23.3599Z" fill="white"/>
<path opacity="0.4" d="M26.6711 23.3599H20.8311V29.1999H26.6711V23.3599Z" fill="white"/>
<path opacity="0.4" d="M32.5109 23.3599H26.6709V29.1999H32.5109V23.3599Z" fill="white"/>
<path opacity="0.4" d="M38.3517 23.3599H32.5117V29.1999H38.3517V23.3599Z" fill="white"/>
<path opacity="0.4" d="M44.1916 23.3599H38.3516V29.1999H44.1916V23.3599Z" fill="white"/>
<path opacity="0.4" d="M50.0314 23.3599H44.1914V29.1999H50.0314V23.3599Z" fill="white"/>
<path opacity="0.4" d="M55.8722 23.3599H50.0322V29.1999H55.8722V23.3599Z" fill="white"/>
<path opacity="0.4" d="M61.7111 23.3599H55.8711V29.1999H61.7111V23.3599Z" fill="white"/>
<path opacity="0.4" d="M67.5519 23.3599H61.7119V29.1999H67.5519V23.3599Z" fill="white"/>
<path opacity="0.4" d="M73.3918 23.3599H67.5518V29.1999H73.3918V23.3599Z" fill="white"/>
<path opacity="0.4" d="M79.2316 23.3599H73.3916V29.1999H79.2316V23.3599Z" fill="white"/>
<path opacity="0.4" d="M85.0715 23.3599H79.2314V29.1999H85.0715V23.3599Z" fill="white"/>
<path opacity="0.4" d="M14.9914 29.2002H9.15137V35.0402H14.9914V29.2002Z" fill="white"/>
<path opacity="0.4" d="M20.8312 29.2002H14.9912V35.0402H20.8312V29.2002Z" fill="white"/>
<path opacity="0.4" d="M26.6711 29.2002H20.8311V35.0402H26.6711V29.2002Z" fill="white"/>
<path opacity="0.4" d="M32.5109 29.2002H26.6709V35.0402H32.5109V29.2002Z" fill="white"/>
<path opacity="0.4" d="M38.3517 29.2002H32.5117V35.0402H38.3517V29.2002Z" fill="white"/>
<path opacity="0.4" d="M44.1916 29.2002H38.3516V35.0402H44.1916V29.2002Z" fill="white"/>
<path opacity="0.4" d="M50.0314 29.2002H44.1914V35.0402H50.0314V29.2002Z" fill="white"/>
<path opacity="0.4" d="M55.8722 29.2002H50.0322V35.0402H55.8722V29.2002Z" fill="white"/>
<path opacity="0.4" d="M61.7111 29.2002H55.8711V35.0402H61.7111V29.2002Z" fill="white"/>
<path opacity="0.4" d="M67.5519 29.2002H61.7119V35.0402H67.5519V29.2002Z" fill="white"/>
<path opacity="0.4" d="M73.3918 29.2002H67.5518V35.0402H73.3918V29.2002Z" fill="white"/>
<path opacity="0.4" d="M79.2316 29.2002H73.3916V35.0402H79.2316V29.2002Z" fill="white"/>
<path opacity="0.4" d="M85.0715 29.2002H79.2314V35.0402H85.0715V29.2002Z" fill="white"/>
<path opacity="0.5" d="M76.9769 14.6714H72.9619V18.6864H76.9769V14.6714Z" fill="white"/>
<path opacity="0.5" d="M80.9925 14.6714H76.9775V18.6864H80.9925V14.6714Z" fill="white"/>
<path opacity="0.5" d="M72.9623 18.686H68.9473V22.701H72.9623V18.686Z" fill="white"/>
<path opacity="0.5" d="M76.9769 18.686H72.9619V22.701H76.9769V18.686Z" fill="white"/>
<path opacity="0.5" d="M80.9925 18.686H76.9775V22.701H80.9925V18.686Z" fill="white"/>
<path opacity="0.5" d="M85.0072 18.686H80.9922V22.701H85.0072V18.686Z" fill="white"/>
<path opacity="0.5" d="M68.9476 22.7012H64.9326V26.7162H68.9476V22.7012Z" fill="white"/>
<path opacity="0.5" d="M72.9623 22.7012H68.9473V26.7162H72.9623V22.7012Z" fill="white"/>
<path opacity="0.5" d="M76.9769 22.7012H72.9619V26.7162H76.9769V22.7012Z" fill="white"/>
<path opacity="0.5" d="M80.9925 22.7012H76.9775V26.7162H80.9925V22.7012Z" fill="white"/>
<path opacity="0.5" d="M85.0072 22.7012H80.9922V26.7162H85.0072V22.7012Z" fill="white"/>
<path opacity="0.5" d="M89.0218 22.7012H85.0068V26.7162H89.0218V22.7012Z" fill="white"/>
<path opacity="0.5" d="M68.9476 26.7163H64.9326V30.7313H68.9476V26.7163Z" fill="white"/>
<path opacity="0.5" d="M72.9623 26.7163H68.9473V30.7313H72.9623V26.7163Z" fill="white"/>
<path opacity="0.5" d="M76.9769 26.7163H72.9619V30.7313H76.9769V26.7163Z" fill="white"/>
<path opacity="0.5" d="M80.9925 26.7163H76.9775V30.7313H80.9925V26.7163Z" fill="white"/>
<path opacity="0.5" d="M85.0072 26.7163H80.9922V30.7313H85.0072V26.7163Z" fill="white"/>
<path opacity="0.5" d="M89.0218 26.7163H85.0068V30.7313H89.0218V26.7163Z" fill="white"/>
<path opacity="0.2" d="M7.29942 23.5156H3.64941V27.1656H7.29942V23.5156Z" fill="white"/>
<path opacity="0.2" d="M10.9498 23.5156H7.2998V27.1656H10.9498V23.5156Z" fill="white"/>
<path opacity="0.2" d="M21.9 23.5156H18.25V27.1656H21.9V23.5156Z" fill="white"/>
<path opacity="0.2" d="M25.5504 23.5156H21.9004V27.1656H25.5504V23.5156Z" fill="white"/>
<path opacity="0.2" d="M3.65001 27.1655H0V30.8155H3.65001V27.1655Z" fill="white"/>
<path opacity="0.2" d="M7.29942 27.1655H3.64941V30.8155H7.29942V27.1655Z" fill="white"/>
<path opacity="0.2" d="M10.9498 27.1655H7.2998V30.8155H10.9498V27.1655Z" fill="white"/>
<path opacity="0.2" d="M14.6002 27.1655H10.9502V30.8155H14.6002V27.1655Z" fill="white"/>
<path opacity="0.2" d="M18.2506 27.1655H14.6006V30.8155H18.2506V27.1655Z" fill="white"/>
<path opacity="0.2" d="M21.9 27.1655H18.25V30.8155H21.9V27.1655Z" fill="white"/>
<path opacity="0.2" d="M25.5504 27.1655H21.9004V30.8155H25.5504V27.1655Z" fill="white"/>
<path opacity="0.2" d="M29.1998 27.1655H25.5498V30.8155H29.1998V27.1655Z" fill="white"/>
<path opacity="0.2" d="M3.65001 30.8159H0V34.4659H3.65001V30.8159Z" fill="white"/>
<path opacity="0.2" d="M7.29942 30.8159H3.64941V34.4659H7.29942V30.8159Z" fill="white"/>
<path opacity="0.2" d="M10.9498 30.8159H7.2998V34.4659H10.9498V30.8159Z" fill="white"/>
<path opacity="0.2" d="M14.6002 30.8159H10.9502V34.4659H14.6002V30.8159Z" fill="white"/>
<path opacity="0.2" d="M18.2506 30.8159H14.6006V34.4659H18.2506V30.8159Z" fill="white"/>
<path opacity="0.2" d="M21.9 30.8159H18.25V34.4659H21.9V30.8159Z" fill="white"/>
<path opacity="0.2" d="M25.5504 30.8159H21.9004V34.4659H25.5504V30.8159Z" fill="white"/>
<path opacity="0.2" d="M29.1998 30.8159H25.5498V34.4659H29.1998V30.8159Z" fill="white"/>
</svg>
