<svg preserveAspectRatio="none" width="100%" height="100%" overflow="visible" style="display: block;" viewBox="0 0 142 56" fill="none" xmlns="http://www.w3.org/2000/svg">
<g id="Cloud2">
<path id="Vector" opacity="0.4" d="M60.9426 0H51.6626V9.28003H60.9426V0Z" fill="var(--fill-0, white)"/>
<path id="Vector_2" opacity="0.4" d="M70.2229 0H60.9429V9.28003H70.2229V0Z" fill="var(--fill-0, white)"/>
<path id="Vector_3" opacity="0.4" d="M79.5022 0H70.2222V9.28003H79.5022V0Z" fill="var(--fill-0, white)"/>
<path id="Vector_4" opacity="0.4" d="M88.783 0H79.5029V9.28003H88.783V0Z" fill="var(--fill-0, white)"/>
<path id="Vector_5" opacity="0.4" d="M98.0623 0H88.7822V9.28003H98.0623V0Z" fill="var(--fill-0, white)"/>
<g id="Vector_6" opacity="0.2">
</g>
<path id="Vector_7" opacity="0.4" d="M51.6619 9.2793H42.3818V18.5593H51.6619V9.2793Z" fill="var(--fill-0, white)"/>
<path id="Vector_8" opacity="0.4" d="M60.9426 9.2793H51.6626V18.5593H60.9426V9.2793Z" fill="var(--fill-0, white)"/>
<path id="Vector_9" opacity="0.4" d="M70.2229 9.2793H60.9429V18.5593H70.2229V9.2793Z" fill="var(--fill-0, white)"/>
<path id="Vector_10" opacity="0.4" d="M79.5022 9.2793H70.2222V18.5593H79.5022V9.2793Z" fill="var(--fill-0, white)"/>
<path id="Vector_11" opacity="0.4" d="M88.783 9.2793H79.5029V18.5593H88.783V9.2793Z" fill="var(--fill-0, white)"/>
<path id="Vector_12" opacity="0.4" d="M98.0623 9.2793H88.7822V18.5593H98.0623V9.2793Z" fill="var(--fill-0, white)"/>
<path id="Vector_13" opacity="0.4" d="M107.343 9.2793H98.0625V18.5593H107.343V9.2793Z" fill="var(--fill-0, white)"/>
<g id="Vector_14" opacity="0.2">
</g>
<path id="Vector_15" opacity="0.4" d="M42.3826 18.5601H33.1025V27.8401H42.3826V18.5601Z" fill="var(--fill-0, white)"/>
<path id="Vector_16" opacity="0.4" d="M51.6619 18.5601H42.3818V27.8401H51.6619V18.5601Z" fill="var(--fill-0, white)"/>
<path id="Vector_17" opacity="0.4" d="M60.9426 18.5601H51.6626V27.8401H60.9426V18.5601Z" fill="var(--fill-0, white)"/>
<path id="Vector_18" opacity="0.4" d="M70.2229 18.5601H60.9429V27.8401H70.2229V18.5601Z" fill="var(--fill-0, white)"/>
<path id="Vector_19" opacity="0.4" d="M79.5022 18.5601H70.2222V27.8401H79.5022V18.5601Z" fill="var(--fill-0, white)"/>
<path id="Vector_20" opacity="0.4" d="M88.783 18.5601H79.5029V27.8401H88.783V18.5601Z" fill="var(--fill-0, white)"/>
<path id="Vector_21" opacity="0.4" d="M98.0623 18.5601H88.7822V27.8401H98.0623V18.5601Z" fill="var(--fill-0, white)"/>
<path id="Vector_22" opacity="0.4" d="M107.343 18.5601H98.0625V27.8401H107.343V18.5601Z" fill="var(--fill-0, white)"/>
<path id="Vector_23" opacity="0.4" d="M116.623 18.5601H107.343V27.8401H116.623V18.5601Z" fill="var(--fill-0, white)"/>
<g id="Vector_24" opacity="0.2">
</g>
<path id="Vector_25" opacity="0.4" d="M33.1023 27.8403H23.8223V37.1204H33.1023V27.8403Z" fill="var(--fill-0, white)"/>
<path id="Vector_26" opacity="0.4" d="M42.3826 27.8403H33.1025V37.1204H42.3826V27.8403Z" fill="var(--fill-0, white)"/>
<path id="Vector_27" opacity="0.4" d="M51.6619 27.8403H42.3818V37.1204H51.6619V27.8403Z" fill="var(--fill-0, white)"/>
<path id="Vector_28" opacity="0.4" d="M60.9426 27.8403H51.6626V37.1204H60.9426V27.8403Z" fill="var(--fill-0, white)"/>
<path id="Vector_29" opacity="0.4" d="M70.2229 27.8403H60.9429V37.1204H70.2229V27.8403Z" fill="var(--fill-0, white)"/>
<path id="Vector_30" opacity="0.4" d="M79.5022 27.8403H70.2222V37.1204H79.5022V27.8403Z" fill="var(--fill-0, white)"/>
<path id="Vector_31" opacity="0.4" d="M88.783 27.8403H79.5029V37.1204H88.783V27.8403Z" fill="var(--fill-0, white)"/>
<path id="Vector_32" opacity="0.4" d="M98.0623 27.8403H88.7822V37.1204H98.0623V27.8403Z" fill="var(--fill-0, white)"/>
<path id="Vector_33" opacity="0.4" d="M107.343 27.8403H98.0625V37.1204H107.343V27.8403Z" fill="var(--fill-0, white)"/>
<path id="Vector_34" opacity="0.4" d="M116.623 27.8403H107.343V37.1204H116.623V27.8403Z" fill="var(--fill-0, white)"/>
<path id="Vector_35" opacity="0.4" d="M125.903 27.8403H116.623V37.1204H125.903V27.8403Z" fill="var(--fill-0, white)"/>
<g id="Vector_36" opacity="0.2">
</g>
<path id="Vector_37" opacity="0.4" d="M23.823 37.1196H14.543V46.3997H23.823V37.1196Z" fill="var(--fill-0, white)"/>
<path id="Vector_38" opacity="0.4" d="M33.1023 37.1196H23.8223V46.3997H33.1023V37.1196Z" fill="var(--fill-0, white)"/>
<path id="Vector_39" opacity="0.4" d="M42.3826 37.1196H33.1025V46.3997H42.3826V37.1196Z" fill="var(--fill-0, white)"/>
<path id="Vector_40" opacity="0.4" d="M51.6619 37.1196H42.3818V46.3997H51.6619V37.1196Z" fill="var(--fill-0, white)"/>
<path id="Vector_41" opacity="0.4" d="M60.9426 37.1196H51.6626V46.3997H60.9426V37.1196Z" fill="var(--fill-0, white)"/>
<path id="Vector_42" opacity="0.4" d="M70.2229 37.1196H60.9429V46.3997H70.2229V37.1196Z" fill="var(--fill-0, white)"/>
<path id="Vector_43" opacity="0.4" d="M79.5022 37.1196H70.2222V46.3997H79.5022V37.1196Z" fill="var(--fill-0, white)"/>
<path id="Vector_44" opacity="0.4" d="M88.783 37.1196H79.5029V46.3997H88.783V37.1196Z" fill="var(--fill-0, white)"/>
<path id="Vector_45" opacity="0.4" d="M98.0623 37.1196H88.7822V46.3997H98.0623V37.1196Z" fill="var(--fill-0, white)"/>
<path id="Vector_46" opacity="0.4" d="M107.343 37.1196H98.0625V46.3997H107.343V37.1196Z" fill="var(--fill-0, white)"/>
<path id="Vector_47" opacity="0.4" d="M116.623 37.1196H107.343V46.3997H116.623V37.1196Z" fill="var(--fill-0, white)"/>
<path id="Vector_48" opacity="0.4" d="M125.903 37.1196H116.623V46.3997H125.903V37.1196Z" fill="var(--fill-0, white)"/>
<path id="Vector_49" opacity="0.4" d="M135.183 37.1196H125.903V46.3997H135.183V37.1196Z" fill="var(--fill-0, white)"/>
<g id="Vector_50" opacity="0.2">
</g>
<path id="Vector_51" opacity="0.4" d="M23.823 46.4004H14.543V55.6804H23.823V46.4004Z" fill="var(--fill-0, white)"/>
<g id="Vector_52" opacity="0.4">
</g>
<path id="Vector_53" opacity="0.4" d="M33.1023 46.4004H23.8223V55.6804H33.1023V46.4004Z" fill="var(--fill-0, white)"/>
<g id="Vector_54" opacity="0.4">
</g>
<path id="Vector_55" opacity="0.4" d="M42.3826 46.4004H33.1025V55.6804H42.3826V46.4004Z" fill="var(--fill-0, white)"/>
<g id="Vector_56" opacity="0.4">
</g>
<path id="Vector_57" opacity="0.4" d="M51.6619 46.4004H42.3818V55.6804H51.6619V46.4004Z" fill="var(--fill-0, white)"/>
<g id="Vector_58" opacity="0.4">
</g>
<path id="Vector_59" opacity="0.4" d="M60.9426 46.4004H51.6626V55.6804H60.9426V46.4004Z" fill="var(--fill-0, white)"/>
<g id="Vector_60" opacity="0.4">
</g>
<path id="Vector_61" opacity="0.4" d="M70.2229 46.4004H60.9429V55.6804H70.2229V46.4004Z" fill="var(--fill-0, white)"/>
<g id="Vector_62" opacity="0.4">
</g>
<path id="Vector_63" opacity="0.4" d="M79.5022 46.4004H70.2222V55.6804H79.5022V46.4004Z" fill="var(--fill-0, white)"/>
<g id="Vector_64" opacity="0.4">
</g>
<path id="Vector_65" opacity="0.4" d="M88.783 46.4004H79.5029V55.6804H88.783V46.4004Z" fill="var(--fill-0, white)"/>
<g id="Vector_66" opacity="0.4">
</g>
<path id="Vector_67" opacity="0.4" d="M98.0623 46.4004H88.7822V55.6804H98.0623V46.4004Z" fill="var(--fill-0, white)"/>
<g id="Vector_68" opacity="0.4">
</g>
<path id="Vector_69" opacity="0.4" d="M107.343 46.4004H98.0625V55.6804H107.343V46.4004Z" fill="var(--fill-0, white)"/>
<g id="Vector_70" opacity="0.4">
</g>
<path id="Vector_71" opacity="0.4" d="M116.623 46.4004H107.343V55.6804H116.623V46.4004Z" fill="var(--fill-0, white)"/>
<g id="Vector_72" opacity="0.4">
</g>
<path id="Vector_73" opacity="0.4" d="M125.903 46.4004H116.623V55.6804H125.903V46.4004Z" fill="var(--fill-0, white)"/>
<g id="Vector_74" opacity="0.4">
</g>
<path id="Vector_75" opacity="0.4" d="M135.183 46.4004H125.903V55.6804H135.183V46.4004Z" fill="var(--fill-0, white)"/>
<g id="Vector_76" opacity="0.4">
</g>
<g id="Vector_77" opacity="0.2">
</g>
<path id="Vector_78" opacity="0.5" d="M122.32 23.3135H115.94V29.6935H122.32V23.3135Z" fill="var(--fill-0, white)"/>
<path id="Vector_79" opacity="0.5" d="M128.7 23.3135H122.32V29.6935H128.7V23.3135Z" fill="var(--fill-0, white)"/>
<g id="Vector_80" opacity="0.25">
</g>
<path id="Vector_81" opacity="0.5" d="M115.941 29.6929H109.561V36.0729H115.941V29.6929Z" fill="var(--fill-0, white)"/>
<path id="Vector_82" opacity="0.5" d="M122.32 29.6929H115.94V36.0729H122.32V29.6929Z" fill="var(--fill-0, white)"/>
<path id="Vector_83" opacity="0.5" d="M128.7 29.6929H122.32V36.0729H128.7V29.6929Z" fill="var(--fill-0, white)"/>
<path id="Vector_84" opacity="0.5" d="M135.081 29.6929H128.701V36.0729H135.081V29.6929Z" fill="var(--fill-0, white)"/>
<g id="Vector_85" opacity="0.25">
</g>
<path id="Vector_86" opacity="0.5" d="M109.56 36.0732H103.18V42.4533H109.56V36.0732Z" fill="var(--fill-0, white)"/>
<path id="Vector_87" opacity="0.5" d="M115.941 36.0732H109.561V42.4533H115.941V36.0732Z" fill="var(--fill-0, white)"/>
<path id="Vector_88" opacity="0.5" d="M122.32 36.0732H115.94V42.4533H122.32V36.0732Z" fill="var(--fill-0, white)"/>
<path id="Vector_89" opacity="0.5" d="M128.7 36.0732H122.32V42.4533H128.7V36.0732Z" fill="var(--fill-0, white)"/>
<path id="Vector_90" opacity="0.5" d="M135.081 36.0732H128.701V42.4533H135.081V36.0732Z" fill="var(--fill-0, white)"/>
<path id="Vector_91" opacity="0.5" d="M141.46 36.0732H135.08V42.4533H141.46V36.0732Z" fill="var(--fill-0, white)"/>
<g id="Vector_92" opacity="0.25">
</g>
<path id="Vector_93" opacity="0.5" d="M109.56 42.4536H103.18V48.8336H109.56V42.4536Z" fill="var(--fill-0, white)"/>
<g id="Vector_94" opacity="0.5">
</g>
<path id="Vector_95" opacity="0.5" d="M115.941 42.4536H109.561V48.8336H115.941V42.4536Z" fill="var(--fill-0, white)"/>
<g id="Vector_96" opacity="0.5">
</g>
<path id="Vector_97" opacity="0.5" d="M122.32 42.4536H115.94V48.8336H122.32V42.4536Z" fill="var(--fill-0, white)"/>
<g id="Vector_98" opacity="0.5">
</g>
<path id="Vector_99" opacity="0.5" d="M128.7 42.4536H122.32V48.8336H128.7V42.4536Z" fill="var(--fill-0, white)"/>
<g id="Vector_100" opacity="0.5">
</g>
<path id="Vector_101" opacity="0.5" d="M135.081 42.4536H128.701V48.8336H135.081V42.4536Z" fill="var(--fill-0, white)"/>
<g id="Vector_102" opacity="0.5">
</g>
<path id="Vector_103" opacity="0.5" d="M141.46 42.4536H135.08V48.8336H141.46V42.4536Z" fill="var(--fill-0, white)"/>
<g id="Vector_104" opacity="0.5">
</g>
<g id="Vector_105" opacity="0.25">
</g>
<path id="Vector_106" opacity="0.2" d="M11.5998 37.3677H5.7998V43.1677H11.5998V37.3677Z" fill="var(--fill-0, white)"/>
<path id="Vector_107" opacity="0.2" d="M17.4001 37.3677H11.6001V43.1677H17.4001V37.3677Z" fill="var(--fill-0, white)"/>
<g id="Vector_108" opacity="0.1">
</g>
<path id="Vector_109" opacity="0.2" d="M34.8005 37.3677H29.0005V43.1677H34.8005V37.3677Z" fill="var(--fill-0, white)"/>
<path id="Vector_110" opacity="0.2" d="M40.6008 37.3677H34.8008V43.1677H40.6008V37.3677Z" fill="var(--fill-0, white)"/>
<g id="Vector_111" opacity="0.1">
</g>
<path id="Vector_112" opacity="0.2" d="M5.80002 43.1675H0V48.9675H5.80002V43.1675Z" fill="var(--fill-0, white)"/>
<path id="Vector_113" opacity="0.2" d="M11.5998 43.1675H5.7998V48.9675H11.5998V43.1675Z" fill="var(--fill-0, white)"/>
<path id="Vector_114" opacity="0.2" d="M17.4001 43.1675H11.6001V48.9675H17.4001V43.1675Z" fill="var(--fill-0, white)"/>
<path id="Vector_115" opacity="0.2" d="M23.2004 43.1675H17.4004V48.9675H23.2004V43.1675Z" fill="var(--fill-0, white)"/>
<path id="Vector_116" opacity="0.2" d="M29.0007 43.1675H23.2007V48.9675H29.0007V43.1675Z" fill="var(--fill-0, white)"/>
<path id="Vector_117" opacity="0.2" d="M34.8005 43.1675H29.0005V48.9675H34.8005V43.1675Z" fill="var(--fill-0, white)"/>
<path id="Vector_118" opacity="0.2" d="M40.6008 43.1675H34.8008V48.9675H40.6008V43.1675Z" fill="var(--fill-0, white)"/>
<path id="Vector_119" opacity="0.2" d="M46.4001 43.1675H40.6001V48.9675H46.4001V43.1675Z" fill="var(--fill-0, white)"/>
<g id="Vector_120" opacity="0.1">
</g>
<path id="Vector_121" opacity="0.2" d="M5.80002 48.9678H0V54.7678H5.80002V48.9678Z" fill="var(--fill-0, white)"/>
<g id="Vector_122" opacity="0.2">
</g>
<path id="Vector_123" opacity="0.2" d="M11.5998 48.9678H5.7998V54.7678H11.5998V48.9678Z" fill="var(--fill-0, white)"/>
<g id="Vector_124" opacity="0.2">
</g>
<path id="Vector_125" opacity="0.2" d="M17.4001 48.9678H11.6001V54.7678H17.4001V48.9678Z" fill="var(--fill-0, white)"/>
<g id="Vector_126" opacity="0.2">
</g>
<path id="Vector_127" opacity="0.2" d="M23.2004 48.9678H17.4004V54.7678H23.2004V48.9678Z" fill="var(--fill-0, white)"/>
<g id="Vector_128" opacity="0.2">
</g>
<path id="Vector_129" opacity="0.2" d="M29.0007 48.9678H23.2007V54.7678H29.0007V48.9678Z" fill="var(--fill-0, white)"/>
<g id="Vector_130" opacity="0.2">
</g>
<path id="Vector_131" opacity="0.2" d="M34.8005 48.9678H29.0005V54.7678H34.8005V48.9678Z" fill="var(--fill-0, white)"/>
<g id="Vector_132" opacity="0.2">
</g>
<path id="Vector_133" opacity="0.2" d="M40.6008 48.9678H34.8008V54.7678H40.6008V48.9678Z" fill="var(--fill-0, white)"/>
<g id="Vector_134" opacity="0.2">
</g>
<path id="Vector_135" opacity="0.2" d="M46.4001 48.9678H40.6001V54.7678H46.4001V48.9678Z" fill="var(--fill-0, white)"/>
<g id="Vector_136" opacity="0.2">
</g>
<g id="Vector_137" opacity="0.1">
</g>
</g>
</svg>
