<svg width="566" height="424" viewBox="0 0 566 424" fill="none" xmlns="http://www.w3.org/2000/svg">
<rect x="0.5" y="0.5" width="565" height="423" fill="#09090A"/>
<rect x="0.5" y="0.5" width="565" height="423" stroke="#30302A"/>
<path d="M301.539 293.628H206V393.852H301.539V293.628Z" fill="#FFFFE3" stroke="#FFFFE3" stroke-width="2.38849" stroke-linejoin="round"/>
<path d="M206 294.013L229.885 281.485H325.424L301.539 294.013H206Z" fill="#1E1E1E" stroke="#FFFFE3" stroke-width="2.38849" stroke-linejoin="round"/>
<path d="M301.539 294.013L325.424 281.485V381.71L301.539 394.238V294.013Z" stroke="#FFFFE3" stroke-width="2.38849" stroke-linejoin="round"/>
<path d="M463.539 369.085H368V393.804H463.539V369.085Z" fill="#FFFFE3" stroke="#FFFFE3" stroke-width="2.38849" stroke-linejoin="round"/>
<path d="M368 369.471L391.885 356.943H487.424L463.539 369.471H368Z" fill="#1E1E1E" stroke="#FFFFE3" stroke-width="2.38849" stroke-linejoin="round"/>
<path d="M463.54 369.471L487.425 356.943L487.425 381.662L463.54 393.804L463.54 369.471Z" stroke="#FFFFE3" stroke-width="2.38849" stroke-linejoin="round"/>
<path d="M139.539 152.426H44L44.0004 394.025H91.7702L139.539 394.025V152.426Z" fill="#FFFFE3" stroke="#FFFFE3" stroke-width="2.38849" stroke-linejoin="round"/>
<path d="M78.2296 272.347H76.3908V271.025H79.6433V279.426H78.2296V272.347ZM81.0734 275.243C81.0734 272.634 82.4756 270.864 84.6247 270.864C86.7739 270.864 88.1876 272.634 88.1876 275.243C88.1876 277.84 86.8544 279.576 84.6247 279.576C82.3951 279.576 81.0734 277.84 81.0734 275.243ZM82.5215 275.243C82.5215 277.185 83.3031 278.277 84.6247 278.277C85.9579 278.277 86.7395 277.185 86.7395 275.243C86.7395 273.255 85.9579 272.163 84.6247 272.163C83.3031 272.163 82.5215 273.255 82.5215 275.243ZM89.1769 275.243C89.1769 272.634 90.579 270.864 92.7282 270.864C94.8774 270.864 96.291 272.634 96.291 275.243C96.291 277.84 94.9578 279.576 92.7282 279.576C90.4985 279.576 89.1769 277.84 89.1769 275.243ZM90.625 275.243C90.625 277.185 91.4065 278.277 92.7282 278.277C94.0614 278.277 94.8429 277.185 94.8429 275.243C94.8429 273.255 94.0614 272.163 92.7282 272.163C91.4065 272.163 90.625 273.255 90.625 275.243ZM101.567 273.071C101.567 274.37 100.648 275.277 99.372 275.277C98.0963 275.277 97.1769 274.37 97.1769 273.071C97.1769 271.784 98.0963 270.864 99.372 270.864C100.648 270.864 101.567 271.784 101.567 273.071ZM106.176 271.037L99.7972 279.426H98.3951L104.774 271.037H106.176ZM100.452 273.071C100.452 272.404 100.016 271.945 99.372 271.945C98.7284 271.945 98.3032 272.404 98.3032 273.071C98.3032 273.737 98.7399 274.197 99.372 274.197C100.016 274.197 100.452 273.737 100.452 273.071ZM107.406 277.369C107.406 278.656 106.498 279.576 105.222 279.576C103.935 279.576 103.027 278.656 103.027 277.369C103.027 276.082 103.935 275.163 105.222 275.163C106.498 275.163 107.406 276.082 107.406 277.369ZM106.291 277.369C106.291 276.703 105.854 276.243 105.222 276.243C104.578 276.243 104.142 276.703 104.142 277.369C104.142 278.036 104.578 278.496 105.222 278.496C105.854 278.496 106.291 278.036 106.291 277.369Z" fill="#0E0E10"/>
<path d="M243.977 345.266H242.954V344.312L245.114 342.324H241.621V341.025H246.953V342.197L244.908 344.082C246.195 344.335 247.195 345.277 247.195 346.76C247.195 348.484 245.85 349.576 244.149 349.576C242.506 349.576 241.23 348.564 241.23 346.749H242.678C242.678 347.714 243.276 348.266 244.172 348.266C245.091 348.266 245.701 347.668 245.701 346.737C245.701 345.887 245.149 345.266 243.977 345.266ZM248.038 345.243C248.038 342.634 249.44 340.864 251.589 340.864C253.738 340.864 255.152 342.634 255.152 345.243C255.152 347.84 253.819 349.576 251.589 349.576C249.359 349.576 248.038 347.84 248.038 345.243ZM249.486 345.243C249.486 347.185 250.267 348.277 251.589 348.277C252.922 348.277 253.704 347.185 253.704 345.243C253.704 343.255 252.922 342.163 251.589 342.163C250.267 342.163 249.486 343.255 249.486 345.243ZM260.428 343.071C260.428 344.37 259.508 345.277 258.233 345.277C256.957 345.277 256.038 344.37 256.038 343.071C256.038 341.784 256.957 340.864 258.233 340.864C259.508 340.864 260.428 341.784 260.428 343.071ZM265.037 341.037L258.658 349.426H257.256L263.634 341.037H265.037ZM259.313 343.071C259.313 342.404 258.876 341.945 258.233 341.945C257.589 341.945 257.164 342.404 257.164 343.071C257.164 343.737 257.601 344.197 258.233 344.197C258.876 344.197 259.313 343.737 259.313 343.071ZM266.266 347.369C266.266 348.656 265.358 349.576 264.083 349.576C262.795 349.576 261.887 348.656 261.887 347.369C261.887 346.082 262.795 345.163 264.083 345.163C265.358 345.163 266.266 346.082 266.266 347.369ZM265.151 347.369C265.151 346.703 264.715 346.243 264.083 346.243C263.439 346.243 263.002 346.703 263.002 347.369C263.002 348.036 263.439 348.496 264.083 348.496C264.715 348.496 265.151 348.036 265.151 347.369Z" fill="#0E0E10"/>
<path d="M410.356 385.989L404.529 386V384.897L407.275 382.575C408.413 381.61 408.793 381.058 408.793 380.254C408.793 379.3 408.275 378.759 407.39 378.759C406.471 378.759 405.896 379.403 405.885 380.483H404.425C404.437 378.645 405.609 377.449 407.39 377.449C409.183 377.449 410.298 378.472 410.298 380.173C410.298 381.345 409.655 382.23 408.379 383.322L406.862 384.621H410.356V385.989ZM414.057 386.138C412.299 386.138 411.138 385.012 411.138 383.311H412.598C412.598 384.265 413.161 384.828 414.092 384.828C415.08 384.828 415.712 384.184 415.712 383.161C415.712 382.184 415.126 381.518 414.115 381.518C413.471 381.518 412.885 381.84 412.586 382.276L411.287 382L412.322 377.599H416.701V378.955H413.379L412.931 380.702C413.333 380.437 413.839 380.288 414.414 380.288C416.091 380.288 417.206 381.426 417.206 383.081C417.206 384.897 415.931 386.138 414.057 386.138ZM422.339 379.644C422.339 380.943 421.42 381.851 420.144 381.851C418.868 381.851 417.949 380.943 417.949 379.644C417.949 378.357 418.868 377.438 420.144 377.438C421.42 377.438 422.339 378.357 422.339 379.644ZM426.948 377.61L420.569 386H419.167L425.546 377.61H426.948ZM421.224 379.644C421.224 378.978 420.788 378.518 420.144 378.518C419.5 378.518 419.075 378.978 419.075 379.644C419.075 380.311 419.512 380.771 420.144 380.771C420.788 380.771 421.224 380.311 421.224 379.644ZM428.178 383.943C428.178 385.23 427.27 386.149 425.994 386.149C424.707 386.149 423.799 385.23 423.799 383.943C423.799 382.656 424.707 381.736 425.994 381.736C427.27 381.736 428.178 382.656 428.178 383.943ZM427.063 383.943C427.063 383.276 426.626 382.816 425.994 382.816C425.35 382.816 424.914 383.276 424.914 383.943C424.914 384.609 425.35 385.069 425.994 385.069C426.626 385.069 427.063 384.609 427.063 383.943Z" fill="#0E0E10"/>
<path d="M44 152.639L67.8849 140.111H115.655H163.424L139.539 152.639H44Z" fill="#1E1E1E" stroke="#FFFFE3" stroke-width="2.38849" stroke-linejoin="round"/>
<path d="M139.406 152.639L163.291 140.111L163.291 381.71L139.406 394.238L139.406 152.639Z" fill="#0E0E10" stroke="#FFFFE3" stroke-width="2.38849" stroke-linejoin="round"/>
<path d="M190 110.782H67V82H190V110.782Z" fill="#1E1E1E"/>
<path d="M67 140V111.654M67 111.654V110.782H190V82H67V111.654Z" stroke="#FFFFE3" stroke-width="2.38515"/>
<path d="M317 251.782H230V223H317V251.782Z" fill="#1E1E1E"/>
<path d="M230 281V252.654M230 252.654V251.782H317V223H230V252.654Z" stroke="#FFFFE3" stroke-width="2.38515"/>
<path d="M513 327.782H391V299H513V327.782Z" fill="#1E1E1E"/>
<path d="M391 357V328.654M391 328.654V327.782H513V299H391V328.654Z" stroke="#FFFFE3" stroke-width="2.38515"/>
<path d="M82.0554 100.541L81.3143 98.086H78.3379L77.5909 100.541H76.5296L79.2865 91.9851H80.4012L83.1582 100.541H82.0554ZM79.8142 93.242L78.6106 97.1907H81.0415L79.8439 93.242H79.8142ZM87.7532 94.0009C89.2413 94.0009 90.2137 95.0741 90.2137 96.7283V97.9259C90.2137 99.5742 89.2413 100.647 87.7532 100.647C86.8223 100.647 86.1405 100.25 85.8618 99.5445H85.7492V102.711H84.7234V94.1077H85.7195V95.0919H85.8262C86.1642 94.3804 86.8342 94.0009 87.7532 94.0009ZM87.4626 94.9259C86.4013 94.9259 85.7254 95.6848 85.7254 96.8706V97.7955C85.7254 98.9872 86.4013 99.7461 87.4626 99.7461C88.5239 99.7461 89.1998 98.9813 89.1998 97.7955V96.8706C89.1998 95.6848 88.5239 94.9259 87.4626 94.9259ZM95.2593 94.0009C96.7474 94.0009 97.7198 95.0741 97.7198 96.7283V97.9259C97.7198 99.5742 96.7474 100.647 95.2593 100.647C94.3284 100.647 93.6466 100.25 93.3679 99.5445H93.2553V102.711H92.2296V94.1077H93.2256V95.0919H93.3323C93.6703 94.3804 94.3403 94.0009 95.2593 94.0009ZM94.9687 94.9259C93.9075 94.9259 93.2316 95.6848 93.2316 96.8706V97.7955C93.2316 98.9872 93.9075 99.7461 94.9687 99.7461C96.03 99.7461 96.7059 98.9813 96.7059 97.7955V96.8706C96.7059 95.6848 96.03 94.9259 94.9687 94.9259ZM107.064 91.9851H109.459C111.884 91.9851 113.106 93.414 113.106 96.248C113.106 99.1058 111.884 100.541 109.459 100.541H107.064V91.9851ZM108.113 92.9456V99.5801H109.364C111.179 99.5801 112.038 98.5188 112.038 96.254C112.038 94.0128 111.173 92.9456 109.364 92.9456H108.113ZM117.374 100.659C115.673 100.659 114.588 99.5505 114.588 97.8133V96.8409C114.588 95.1037 115.673 93.995 117.374 93.995C119.076 93.995 120.161 95.1037 120.161 96.8409V97.8133C120.161 99.5505 119.076 100.659 117.374 100.659ZM117.374 94.8844C116.272 94.8844 115.584 95.667 115.584 96.9299V97.7184C115.584 98.9872 116.272 99.7639 117.374 99.7639C118.477 99.7639 119.165 98.9872 119.165 97.7184V96.9299C119.165 95.667 118.477 94.8844 117.374 94.8844ZM128.355 94.1077L126.973 100.541H126.007L124.916 95.5247H124.845L123.754 100.541H122.788L121.406 94.1077H122.39L123.262 99.2659H123.369L124.406 94.1136H125.355L126.392 99.2659H126.499L127.371 94.1077H128.355ZM129.754 100.541V94.1077H130.721V95.2401H130.804C131.147 94.4397 131.883 93.9891 132.861 93.9891C134.26 93.9891 135.019 94.8251 135.019 96.3666V100.541H134.011V96.6216C134.011 95.4595 133.537 94.914 132.535 94.914C131.474 94.914 130.762 95.6551 130.762 96.752V100.541H129.754ZM142.703 100.541H137.373V99.7046H139.573V92.4179H137.391V91.5819H140.581V99.7046H142.703V100.541ZM147.399 100.659C145.697 100.659 144.612 99.5505 144.612 97.8133V96.8409C144.612 95.1037 145.697 93.995 147.399 93.995C149.1 93.995 150.185 95.1037 150.185 96.8409V97.8133C150.185 99.5505 149.1 100.659 147.399 100.659ZM147.399 94.8844C146.296 94.8844 145.608 95.667 145.608 96.9299V97.7184C145.608 98.9872 146.296 99.7639 147.399 99.7639C148.502 99.7639 149.189 98.9872 149.189 97.7184V96.9299C149.189 95.667 148.502 94.8844 147.399 94.8844ZM154.253 100.653C153.025 100.653 152.207 99.8825 152.207 98.7145C152.207 97.5761 153.025 96.9002 154.49 96.8231L156.257 96.7342V96.1532C156.257 95.3468 155.765 94.9021 154.869 94.9021C154.128 94.9021 153.607 95.2164 153.441 95.7678H152.45C152.569 94.7361 153.565 94.0306 154.881 94.0306C156.393 94.0306 157.259 94.8013 157.259 96.1413V100.547H156.298V99.5801H156.198C155.889 100.268 155.19 100.653 154.253 100.653ZM154.543 99.7698C155.516 99.7698 156.257 99.1236 156.257 98.2639V97.505L154.603 97.582C153.701 97.6236 153.227 98.0089 153.227 98.6789C153.227 99.3548 153.731 99.7698 154.543 99.7698ZM162.008 100.647C160.52 100.647 159.547 99.5742 159.547 97.92V96.7223C159.547 95.0741 160.52 94.0009 162.008 94.0009C162.939 94.0009 163.627 94.3982 163.905 95.1037H164.012V91.5819H165.038V100.541H164.047V99.5564H163.935C163.603 100.268 162.927 100.647 162.008 100.647ZM162.304 99.7283C163.36 99.7283 164.042 98.9694 164.042 97.7777V96.8528C164.042 95.667 163.36 94.9081 162.304 94.9081C161.243 94.9081 160.561 95.667 160.561 96.8528V97.7777C160.561 98.9635 161.243 99.7283 162.304 99.7283ZM171.654 98.8805H172.633C172.437 99.9418 171.417 100.659 170.065 100.659C168.299 100.659 167.273 99.5979 167.273 97.7658V96.7994C167.273 95.1037 168.358 93.9891 169.994 93.9891C171.666 93.9891 172.65 95.0978 172.65 96.9595V97.588H168.269V97.8489C168.269 99.0287 168.969 99.7876 170.065 99.7876C170.878 99.7876 171.477 99.4438 171.654 98.8805ZM169.988 94.8547C168.915 94.8547 168.269 95.5899 168.269 96.8231H171.654C171.654 95.5958 171.026 94.8547 169.988 94.8547ZM177.02 100.647C175.532 100.647 174.56 99.5742 174.56 97.92V96.7223C174.56 95.0741 175.532 94.0009 177.02 94.0009C177.951 94.0009 178.639 94.3982 178.917 95.1037H179.024V91.5819H180.05V100.541H179.06V99.5564H178.947C178.615 100.268 177.939 100.647 177.02 100.647ZM177.317 99.7283C178.372 99.7283 179.054 98.9694 179.054 97.7777V96.8528C179.054 95.667 178.372 94.9081 177.317 94.9081C176.255 94.9081 175.573 95.667 175.573 96.8528V97.7777C175.573 98.9635 176.255 99.7283 177.317 99.7283Z" fill="white"/>
<path d="M362.439 27.8817C362.439 31.6 360.006 34.2028 356.541 34.2028C353.093 34.2028 350.693 31.6 350.693 27.8817C350.693 24.1803 353.11 21.5606 356.558 21.5606C360.023 21.5606 362.439 24.1634 362.439 27.8817ZM360.699 27.8817C360.699 25.0423 359.042 23.1662 356.558 23.1662C354.073 23.1662 352.434 25.0423 352.434 27.8817C352.434 30.7211 354.073 32.6141 356.558 32.6141C359.042 32.6141 360.699 30.7042 360.699 27.8817ZM365.876 34H364.288V25.7352H365.724L365.893 27.0028C366.417 26.0563 367.465 25.4986 368.631 25.4986C370.811 25.4986 371.809 26.8338 371.809 28.9465V34H370.22V29.3014C370.22 27.6282 369.442 26.9521 368.226 26.9521C366.738 26.9521 365.876 28.0169 365.876 29.6225V34ZM378.901 34V21.7803H383.566C385.949 21.7803 387.402 22.9972 387.402 25.0085C387.402 26.4113 386.794 27.3577 385.577 27.8648C386.929 28.3042 387.622 29.2845 387.622 30.738C387.622 32.7662 386.152 34 383.735 34H378.901ZM383.464 23.2507H380.557V27.1718H383.566C384.935 27.1718 385.712 26.4282 385.712 25.1606C385.712 23.9437 384.901 23.2507 383.464 23.2507ZM383.701 28.6085H380.557V32.5296H383.701C385.121 32.5296 385.915 31.8028 385.915 30.5352C385.915 29.3183 385.104 28.6085 383.701 28.6085ZM388.884 29.8592C388.884 27.307 390.71 25.5155 393.194 25.5155C395.662 25.5155 397.487 27.307 397.487 29.8592C397.487 32.4113 395.662 34.2028 393.194 34.2028C390.71 34.2028 388.884 32.4113 388.884 29.8592ZM390.49 29.8592C390.49 31.5831 391.588 32.7831 393.194 32.7831C394.783 32.7831 395.898 31.5831 395.898 29.8592C395.898 28.1352 394.783 26.9352 393.194 26.9352C391.588 26.9352 390.49 28.1352 390.49 29.8592ZM401.663 34.2028C399.888 34.2028 398.84 33.2056 398.84 31.7014C398.84 30.1803 399.972 29.2338 401.916 29.0817L404.519 28.8789V28.6423C404.519 27.2563 403.691 26.7662 402.575 26.7662C401.24 26.7662 400.479 27.3577 400.479 28.3549H399.094C399.094 26.631 400.513 25.4986 402.643 25.4986C404.688 25.4986 406.074 26.5803 406.074 28.8113V34H404.722L404.553 32.6648C404.13 33.6113 402.998 34.2028 401.663 34.2028ZM402.119 32.969C403.623 32.969 404.536 31.9887 404.536 30.4338V29.9944L402.423 30.1634C401.02 30.2986 400.446 30.8394 400.446 31.6507C400.446 32.5296 401.088 32.969 402.119 32.969ZM413.006 25.6676V27.1211H412.297C410.792 27.1211 409.863 28.0338 409.863 29.6225V34H408.274V25.7521H409.761L409.863 27.0028C410.201 26.1408 411.029 25.5662 412.161 25.5662C412.449 25.5662 412.685 25.6 413.006 25.6676ZM417.512 34.2028C415.112 34.2028 413.659 32.4113 413.659 29.893C413.659 27.3577 415.129 25.4986 417.58 25.4986C418.847 25.4986 419.912 26.0563 420.47 27.0704V21.5606H422.042V34H420.622L420.487 32.4958C419.946 33.6282 418.83 34.2028 417.512 34.2028ZM417.833 32.7662C419.456 32.7662 420.453 31.5662 420.453 29.8423C420.453 28.1521 419.456 26.9352 417.833 26.9352C416.211 26.9352 415.264 28.1521 415.264 29.8423C415.264 31.5493 416.211 32.7662 417.833 32.7662ZM435.682 28.8113H430.882V34H429.226V21.7803H436.595V23.3014H430.882V27.307H435.682V28.8113ZM443.531 25.7352H445.103V34H443.683L443.514 32.7493C443.041 33.6113 441.942 34.2028 440.726 34.2028C438.799 34.2028 437.717 32.9014 437.717 30.8732V25.7352H439.306V30.3493C439.306 32.1239 440.066 32.8 441.283 32.8C442.737 32.8 443.531 31.8704 443.531 30.0958V25.7352ZM448.997 34H447.408V25.7352H448.845L449.014 27.0028C449.538 26.0563 450.586 25.4986 451.752 25.4986C453.932 25.4986 454.929 26.8338 454.929 28.9465V34H453.34V29.3014C453.34 27.6282 452.563 26.9521 451.346 26.9521C449.859 26.9521 448.997 28.0169 448.997 29.6225V34ZM458.718 34H457.13V25.7352H458.566L458.735 27.0028C459.259 26.0563 460.307 25.4986 461.473 25.4986C463.654 25.4986 464.651 26.8338 464.651 28.9465V34H463.062V29.3014C463.062 27.6282 462.285 26.9521 461.068 26.9521C459.58 26.9521 458.718 28.0169 458.718 29.6225V34ZM470.418 34.2028C467.984 34.2028 466.31 32.4451 466.31 29.8761C466.31 27.2901 467.95 25.4986 470.35 25.4986C472.699 25.4986 474.237 27.1211 474.237 29.5718V30.1634L467.849 30.1803C467.967 31.9211 468.879 32.8845 470.451 32.8845C471.685 32.8845 472.496 32.3775 472.767 31.431H474.254C473.849 33.2056 472.463 34.2028 470.418 34.2028ZM470.35 26.8338C468.964 26.8338 468.085 27.662 467.882 29.1155H472.649C472.649 27.7465 471.753 26.8338 470.35 26.8338ZM477.634 34H476.046V21.5606H477.634V34ZM488.904 34H484.865V21.7803H488.837C492.487 21.7803 494.955 24.2479 494.955 27.8986C494.955 31.5324 492.521 34 488.904 34ZM488.718 23.3014H486.521V32.462H488.786C491.507 32.462 493.231 30.7042 493.231 27.8986C493.231 25.0592 491.507 23.3014 488.718 23.3014ZM501.524 25.6676V27.1211H500.814C499.31 27.1211 498.381 28.0338 498.381 29.6225V34H496.792V25.7521H498.279L498.381 27.0028C498.719 26.1408 499.547 25.5662 500.679 25.5662C500.967 25.5662 501.203 25.6 501.524 25.6676ZM502.176 29.8592C502.176 27.307 504.002 25.5155 506.486 25.5155C508.954 25.5155 510.779 27.307 510.779 29.8592C510.779 32.4113 508.954 34.2028 506.486 34.2028C504.002 34.2028 502.176 32.4113 502.176 29.8592ZM503.782 29.8592C503.782 31.5831 504.881 32.7831 506.486 32.7831C508.075 32.7831 509.191 31.5831 509.191 29.8592C509.191 28.1352 508.075 26.9352 506.486 26.9352C504.881 26.9352 503.782 28.1352 503.782 29.8592ZM512.538 37.7014V25.7352H513.975L514.093 27.2225C514.651 26.0901 515.766 25.4986 517.084 25.4986C519.451 25.4986 520.921 27.2732 520.921 29.8085C520.921 32.3268 519.535 34.2197 517.084 34.2197C515.766 34.2197 514.668 33.662 514.127 32.6479V37.7014H512.538ZM514.144 29.8761C514.144 31.5662 515.124 32.7831 516.746 32.7831C518.369 32.7831 519.332 31.5662 519.332 29.8761C519.332 28.169 518.369 26.9521 516.746 26.9521C515.124 26.9521 514.144 28.1521 514.144 29.8761ZM538.584 27.8817C538.584 31.6 536.15 34.2028 532.685 34.2028C529.237 34.2028 526.837 31.6 526.837 27.8817C526.837 24.1803 529.254 21.5606 532.702 21.5606C536.167 21.5606 538.584 24.1634 538.584 27.8817ZM536.843 27.8817C536.843 25.0423 535.187 23.1662 532.702 23.1662C530.218 23.1662 528.578 25.0423 528.578 27.8817C528.578 30.7211 530.218 32.6141 532.702 32.6141C535.187 32.6141 536.843 30.7042 536.843 27.8817ZM539.553 25.7352H540.77V24.4169C540.77 22.3887 541.868 21.5606 543.39 21.5606C543.694 21.5606 544.049 21.5775 544.353 21.6282V22.9972H543.643C542.612 22.9972 542.359 23.5211 542.359 24.4169V25.7352H546.026V24.4169C546.026 22.3887 547.125 21.5606 548.629 21.5606C548.933 21.5606 549.305 21.5775 549.609 21.6282V22.9972H548.899C547.868 22.9972 547.598 23.5211 547.598 24.4169V25.7352H549.559V27.0704H547.598V34H546.026V27.0704H542.359V34H540.77V27.0704H539.553V25.7352Z" fill="#FFFFE3"/>
<path d="M239.783 239.638H240.803C240.91 240.575 241.663 241.144 242.801 241.144C243.939 241.144 244.686 240.551 244.686 239.632C244.686 238.891 244.188 238.447 243.032 238.162L242.297 237.978C240.708 237.575 239.991 236.822 239.991 235.583C239.991 234.124 241.087 233.182 242.795 233.182C244.408 233.182 245.516 234.112 245.588 235.535H244.568C244.461 234.652 243.809 234.13 242.801 234.13C241.704 234.13 241.046 234.652 241.046 235.524C241.046 236.265 241.52 236.692 242.635 236.97L243.382 237.16C245.042 237.569 245.742 238.292 245.742 239.579C245.742 241.115 244.586 242.093 242.795 242.093C241.028 242.093 239.872 241.156 239.783 239.638ZM250.331 233.905C249.856 233.905 249.495 233.549 249.495 233.075C249.495 232.606 249.856 232.251 250.331 232.251C250.805 232.251 251.167 232.606 251.167 233.075C251.167 233.549 250.805 233.905 250.331 233.905ZM253.028 241.915H247.698V241.079H249.904V236.318H247.716V235.482H250.9V241.079H253.028V241.915ZM257.535 244.328C256.046 244.328 255.05 243.676 254.92 242.609H255.916C256.046 243.142 256.693 243.492 257.552 243.492C258.679 243.492 259.301 242.923 259.301 241.891V240.889H259.195C258.91 241.565 258.199 241.974 257.262 241.974C255.774 241.974 254.795 240.901 254.795 239.253V238.097C254.795 236.443 255.78 235.375 257.286 235.375C258.216 235.375 258.922 235.784 259.201 236.478H259.313V235.482H260.309V241.915C260.309 243.427 259.278 244.328 257.535 244.328ZM255.809 239.111C255.809 240.29 256.497 241.061 257.564 241.061C258.625 241.061 259.307 240.296 259.307 239.111V238.227C259.307 237.041 258.625 236.282 257.564 236.282C256.497 236.282 255.809 237.047 255.809 238.227V239.111ZM262.598 241.915V235.482H263.564V236.614H263.647C263.991 235.814 264.726 235.363 265.705 235.363C267.104 235.363 267.863 236.199 267.863 237.741V241.915H266.855V237.996C266.855 236.834 266.381 236.288 265.379 236.288C264.317 236.288 263.606 237.029 263.606 238.126V241.915H262.598ZM274.474 240.255H275.452C275.256 241.316 274.237 242.034 272.885 242.034C271.118 242.034 270.092 240.972 270.092 239.14V238.174C270.092 236.478 271.177 235.363 272.814 235.363C274.486 235.363 275.47 236.472 275.47 238.334V238.962H271.088V239.223C271.088 240.403 271.788 241.162 272.885 241.162C273.697 241.162 274.296 240.818 274.474 240.255ZM272.808 236.229C271.734 236.229 271.088 236.964 271.088 238.197H274.474C274.474 236.97 273.845 236.229 272.808 236.229ZM279.839 242.022C278.351 242.022 277.379 240.949 277.379 239.294V238.097C277.379 236.448 278.351 235.375 279.839 235.375C280.77 235.375 281.458 235.773 281.737 236.478H281.843V232.956H282.869V241.915H281.879V240.931H281.766C281.434 241.642 280.758 242.022 279.839 242.022ZM280.136 241.103C281.191 241.103 281.873 240.344 281.873 239.152V238.227C281.873 237.041 281.191 236.282 280.136 236.282C279.075 236.282 278.393 237.041 278.393 238.227V239.152C278.393 240.338 279.075 241.103 280.136 241.103ZM295.255 241.103C296.5 241.103 297.223 240.285 297.223 238.879V233.359H298.267V238.945C298.267 240.913 297.14 242.093 295.255 242.093C293.369 242.093 292.243 240.913 292.243 238.945V233.359H293.286V238.879C293.286 240.285 294.01 241.103 295.255 241.103ZM303.164 235.375C304.652 235.375 305.625 236.448 305.625 238.103V239.3C305.625 240.949 304.652 242.022 303.164 242.022C302.233 242.022 301.551 241.624 301.273 240.919H301.16V244.085H300.134V235.482H301.13V236.466H301.237C301.575 235.755 302.245 235.375 303.164 235.375ZM302.874 236.3C301.812 236.3 301.136 237.059 301.136 238.245V239.17C301.136 240.362 301.812 241.12 302.874 241.12C303.935 241.12 304.611 240.356 304.611 239.17V238.245C304.611 237.059 303.935 236.3 302.874 236.3Z" fill="white"/>
<path d="M406.056 317.372L405.315 314.918H402.338L401.591 317.372H400.53L403.287 308.817H404.402L407.159 317.372H406.056ZM403.815 310.074L402.611 314.023H405.042L403.844 310.074H403.815ZM414.03 312.944H413.034C412.91 312.191 412.281 311.716 411.451 311.716C410.331 311.716 409.708 312.481 409.708 313.863V314.444C409.708 315.825 410.331 316.584 411.451 316.584C412.281 316.584 412.91 316.116 413.034 315.38H414.03C413.87 316.691 412.892 317.491 411.469 317.491C409.72 317.491 408.7 316.418 408.7 314.574V313.732C408.7 311.888 409.72 310.815 411.469 310.815C412.892 310.815 413.864 311.621 414.03 312.944ZM417.76 309.214H418.756V310.957H421.365V311.817H418.768V315.446C418.768 316.145 419.26 316.525 420.167 316.525C420.529 316.525 421.175 316.507 421.347 316.489V317.343C421.187 317.372 420.404 317.402 420.096 317.402C418.501 317.402 417.76 316.797 417.76 315.457V311.817H416.046V310.957H417.76V309.214ZM426.475 309.362C426.001 309.362 425.639 309.007 425.639 308.532C425.639 308.064 426.001 307.708 426.475 307.708C426.95 307.708 427.311 308.064 427.311 308.532C427.311 309.007 426.95 309.362 426.475 309.362ZM429.173 317.372H423.843V316.537H426.048V311.776H423.861V310.94H427.045V316.537H429.173V317.372ZM430.964 310.94H432.043L433.839 316.293H433.916L435.701 310.94H436.774L434.426 317.372H433.317L430.964 310.94ZM440.723 317.485C439.495 317.485 438.677 316.714 438.677 315.546C438.677 314.408 439.495 313.732 440.96 313.655L442.727 313.566V312.985C442.727 312.179 442.235 311.734 441.339 311.734C440.598 311.734 440.076 312.048 439.91 312.6H438.92C439.039 311.568 440.035 310.862 441.351 310.862C442.863 310.862 443.729 311.633 443.729 312.973V317.378H442.768V316.412H442.667C442.359 317.1 441.66 317.485 440.723 317.485ZM441.013 316.602C441.986 316.602 442.727 315.955 442.727 315.096V314.337L441.073 314.414C440.171 314.455 439.697 314.841 439.697 315.511C439.697 316.187 440.201 316.602 441.013 316.602ZM447.784 309.214H448.78V310.957H451.389V311.817H448.792V315.446C448.792 316.145 449.284 316.525 450.191 316.525C450.553 316.525 451.199 316.507 451.371 316.489V317.343C451.211 317.372 450.428 317.402 450.12 317.402C448.525 317.402 447.784 316.797 447.784 315.457V311.817H446.071V310.957H447.784V309.214ZM458.124 315.712H459.103C458.907 316.774 457.887 317.491 456.535 317.491C454.769 317.491 453.743 316.43 453.743 314.598V313.631C453.743 311.936 454.828 310.821 456.464 310.821C458.136 310.821 459.12 311.93 459.12 313.791V314.42H454.739V314.681C454.739 315.861 455.438 316.62 456.535 316.62C457.348 316.62 457.946 316.276 458.124 315.712ZM456.458 311.687C455.385 311.687 454.739 312.422 454.739 313.655H458.124C458.124 312.428 457.496 311.687 456.458 311.687ZM463.49 317.479C462.002 317.479 461.03 316.406 461.03 314.752V313.554C461.03 311.906 462.002 310.833 463.49 310.833C464.421 310.833 465.109 311.23 465.387 311.936H465.494V308.414H466.52V317.372H465.53V316.388H465.417C465.085 317.1 464.409 317.479 463.49 317.479ZM463.787 316.56C464.842 316.56 465.524 315.801 465.524 314.61V313.685C465.524 312.499 464.842 311.74 463.787 311.74C462.725 311.74 462.043 312.499 462.043 313.685V314.61C462.043 315.795 462.725 316.56 463.787 316.56ZM478.905 316.56C480.151 316.56 480.874 315.742 480.874 314.337V308.817H481.917V314.402C481.917 316.37 480.791 317.55 478.905 317.55C477.02 317.55 475.894 316.37 475.894 314.402V308.817H476.937V314.337C476.937 315.742 477.66 316.56 478.905 316.56ZM484.07 312.677C484.07 311.562 485.018 310.815 486.435 310.815C487.775 310.815 488.682 311.485 488.801 312.558H487.829C487.71 311.995 487.17 311.651 486.418 311.651C485.599 311.651 485.072 312.03 485.072 312.617C485.072 313.11 485.404 313.388 486.21 313.566L487.117 313.774C488.368 314.058 488.937 314.604 488.937 315.535C488.937 316.72 487.947 317.491 486.423 317.491C484.965 317.491 483.998 316.809 483.886 315.706H484.912C485.06 316.299 485.629 316.643 486.459 316.643C487.337 316.643 487.894 316.246 487.894 315.629C487.894 315.119 487.58 314.847 486.761 314.663L485.807 314.444C484.645 314.177 484.07 313.59 484.07 312.677ZM495.655 315.712H496.633C496.438 316.774 495.418 317.491 494.066 317.491C492.299 317.491 491.273 316.43 491.273 314.598V313.631C491.273 311.936 492.358 310.821 493.995 310.821C495.667 310.821 496.651 311.93 496.651 313.791V314.42H492.269V314.681C492.269 315.861 492.969 316.62 494.066 316.62C494.878 316.62 495.477 316.276 495.655 315.712ZM493.989 311.687C492.916 311.687 492.269 312.422 492.269 313.655H495.655C495.655 312.428 495.026 311.687 493.989 311.687ZM501.169 314.491V316.566H503.161V317.372H498.886V316.566H500.185V311.746H498.756V310.94H501.157V312.582H501.287C501.525 311.39 502.325 310.774 503.564 310.774C503.932 310.774 504.282 310.827 504.495 310.916V312.048C504.199 311.942 503.784 311.87 503.434 311.87C502.011 311.87 501.169 312.855 501.169 314.491Z" fill="white"/>
</svg>
