<svg width="184" height="400" viewBox="0 0 184 400" fill="none" xmlns="http://www.w3.org/2000/svg">
<g clip-path="url(#clip0_268_5802)">
<rect width="184" height="400" fill="#979797"/>
<g clip-path="url(#clip1_268_5802)">
<rect width="184.852" height="400.04" fill="#00C7BE"/>
<g clip-path="url(#clip2_268_5802)">
<path d="M27.4523 190.8C29.2453 190.8 30.6988 189.347 30.6988 187.554C30.6988 185.761 29.2453 184.307 27.4523 184.307C25.6594 184.307 24.2059 185.761 24.2059 187.554C24.2059 189.347 25.6594 190.8 27.4523 190.8Z" stroke="white" stroke-width="0.805767"/>
<path d="M27.4523 215.656C29.2453 215.656 30.6988 214.202 30.6988 212.409C30.6988 210.617 29.2453 209.163 27.4523 209.163C25.6594 209.163 24.2059 210.617 24.2059 212.409C24.2059 214.202 25.6594 215.656 27.4523 215.656Z" stroke="white" stroke-width="0.805767"/>
<path d="M36.2399 194.441C38.0329 194.441 39.4864 192.987 39.4864 191.194C39.4864 189.401 38.0329 187.948 36.2399 187.948C34.447 187.948 32.9935 189.401 32.9935 191.194C32.9935 192.987 34.447 194.441 36.2399 194.441Z" stroke="white" stroke-width="0.805767"/>
<path d="M18.6647 212.016C20.4577 212.016 21.9111 210.562 21.9111 208.769C21.9111 206.976 20.4577 205.523 18.6647 205.523C16.8717 205.523 15.4183 206.976 15.4183 208.769C15.4183 210.562 16.8717 212.016 18.6647 212.016Z" stroke="white" stroke-width="0.805767"/>
<path d="M39.8802 203.228C41.6732 203.228 43.1266 201.775 43.1266 199.982C43.1266 198.189 41.6732 196.735 39.8802 196.735C38.0872 196.735 36.6338 198.189 36.6338 199.982C36.6338 201.775 38.0872 203.228 39.8802 203.228Z" stroke="white" stroke-width="0.805767"/>
<path d="M15.0247 203.228C16.8176 203.228 18.2711 201.775 18.2711 199.982C18.2711 198.189 16.8176 196.735 15.0247 196.735C13.2317 196.735 11.7782 198.189 11.7782 199.982C11.7782 201.775 13.2317 203.228 15.0247 203.228Z" stroke="white" stroke-width="0.805767"/>
<path d="M36.2399 212.016C38.0329 212.016 39.4864 210.562 39.4864 208.769C39.4864 206.976 38.0329 205.523 36.2399 205.523C34.447 205.523 32.9935 206.976 32.9935 208.769C32.9935 210.562 34.447 212.016 36.2399 212.016Z" stroke="white" stroke-width="0.805767"/>
<path d="M18.6647 194.441C20.4577 194.441 21.9111 192.987 21.9111 191.194C21.9111 189.401 20.4577 187.948 18.6647 187.948C16.8717 187.948 15.4183 189.401 15.4183 191.194C15.4183 192.987 16.8717 194.441 18.6647 194.441Z" stroke="white" stroke-width="0.805767"/>
<path d="M69.6085 186.99H47.2319V189.379H57.1097V213.135H59.7308V189.379H69.6085V186.99Z" fill="white"/>
<path d="M66.5466 213.135H69.3147L72.2723 206.115H86.8662L89.8238 213.135H92.5919L81.4012 186.99H77.7326L66.5466 213.135ZM73.2819 203.722L79.5669 188.858L85.8519 203.722H73.2771H73.2819Z" fill="white"/>
<path d="M98.7157 188.673L114.058 213.135H118.509V186.99H115.888V211.452L100.55 186.99H96.0993V213.135H98.7205V188.673H98.7157Z" fill="white"/>
<path d="M124.486 213.135H134.027C142.109 213.135 146.749 207.717 146.749 200.063C146.749 192.408 142.109 186.99 134.027 186.99H124.486V213.135ZM127.107 189.379H134.032C140.431 189.379 144.137 193.375 144.137 200.063C144.137 206.75 140.431 210.746 134.032 210.746H127.107V189.379Z" fill="white"/>
<path d="M147.706 213.135H150.474L153.432 206.115H168.026L170.984 213.135H173.752L162.561 186.99H158.892L147.702 213.135H147.706ZM154.442 203.722L160.727 188.858L167.012 203.722H154.437H154.442Z" fill="white"/>
</g>
<g clip-path="url(#clip3_268_5802)">
<rect x="18.4852" y="358.253" width="151.659" height="19.4787" rx="9.73934" fill="white"/>
<path d="M85.3861 368.777C85.3861 368.68 85.371 368.593 85.3407 368.518C85.3127 368.442 85.2619 368.373 85.1885 368.31C85.115 368.248 85.0114 368.187 84.8775 368.129C84.7457 368.068 84.5772 368.007 84.3721 367.944C84.1474 367.875 83.9401 367.798 83.75 367.714C83.5621 367.628 83.398 367.529 83.2576 367.416C83.1172 367.302 83.0081 367.171 82.9303 367.024C82.8526 366.875 82.8137 366.703 82.8137 366.509C82.8137 366.317 82.8537 366.142 82.9336 365.984C83.0157 365.827 83.1312 365.69 83.2802 365.576C83.4314 365.459 83.6096 365.37 83.8148 365.307C84.02 365.242 84.2468 365.21 84.4952 365.21C84.8451 365.21 85.1464 365.275 85.3991 365.404C85.6539 365.534 85.8494 365.708 85.9855 365.926C86.1237 366.144 86.1928 366.385 86.1928 366.648H85.3861C85.3861 366.493 85.3526 366.356 85.2857 366.237C85.2209 366.116 85.1215 366.021 84.9876 365.952C84.8559 365.883 84.6885 365.848 84.4854 365.848C84.2932 365.848 84.1334 365.877 84.006 365.936C83.8785 365.994 83.7835 366.073 83.7209 366.172C83.6582 366.271 83.6269 366.384 83.6269 366.509C83.6269 366.598 83.6474 366.679 83.6885 366.752C83.7295 366.823 83.7921 366.89 83.8764 366.953C83.9606 367.013 84.0664 367.071 84.1939 367.125C84.3213 367.179 84.4714 367.23 84.6442 367.28C84.9055 367.358 85.1334 367.444 85.3278 367.539C85.5222 367.632 85.6842 367.738 85.8138 367.857C85.9433 367.976 86.0405 368.111 86.1053 368.262C86.1701 368.411 86.2025 368.58 86.2025 368.77C86.2025 368.969 86.1626 369.148 86.0827 369.308C86.0027 369.466 85.8883 369.601 85.7392 369.713C85.5924 369.823 85.4153 369.909 85.2079 369.969C85.0027 370.027 84.7738 370.057 84.5211 370.057C84.2943 370.057 84.0708 370.026 83.8504 369.966C83.6323 369.905 83.4336 369.814 83.2543 369.691C83.0751 369.565 82.9325 369.41 82.8267 369.224C82.7208 369.036 82.6679 368.817 82.6679 368.566H83.4811C83.4811 368.72 83.507 368.85 83.5589 368.958C83.6129 369.066 83.6874 369.155 83.7824 369.224C83.8774 369.291 83.9876 369.341 84.1129 369.373C84.2403 369.405 84.3764 369.422 84.5211 369.422C84.7111 369.422 84.8699 369.395 84.9973 369.341C85.1269 369.287 85.2241 369.211 85.2889 369.114C85.3537 369.017 85.3861 368.904 85.3861 368.777ZM87.7273 366.486V369.992H86.9432V366.486H87.7273ZM86.8914 365.566C86.8914 365.447 86.9303 365.349 87.008 365.271C87.0879 365.192 87.1981 365.152 87.3385 365.152C87.4767 365.152 87.5858 365.192 87.6657 365.271C87.7456 365.349 87.7856 365.447 87.7856 365.566C87.7856 365.683 87.7456 365.78 87.6657 365.858C87.5858 365.936 87.4767 365.974 87.3385 365.974C87.1981 365.974 87.0879 365.936 87.008 365.858C86.9303 365.78 86.8914 365.683 86.8914 365.566ZM90.8751 366.486H91.5846V369.895C91.5846 370.21 91.5177 370.478 91.3838 370.698C91.2499 370.918 91.063 371.086 90.8233 371.2C90.5835 371.317 90.306 371.375 89.9907 371.375C89.8568 371.375 89.7077 371.356 89.5436 371.317C89.3816 371.278 89.2239 371.215 89.0706 371.129C88.9194 371.045 88.793 370.934 88.6915 370.795L89.0576 370.335C89.1829 370.484 89.3211 370.593 89.4723 370.662C89.6235 370.732 89.7822 370.766 89.9485 370.766C90.1278 370.766 90.2801 370.733 90.4054 370.666C90.5328 370.601 90.6311 370.505 90.7002 370.377C90.7693 370.25 90.8038 370.094 90.8038 369.911V367.28L90.8751 366.486ZM88.4939 368.278V368.21C88.4939 367.944 88.5263 367.702 88.5911 367.484C88.6559 367.264 88.7487 367.075 88.8697 366.917C88.9907 366.757 89.1375 366.635 89.3103 366.551C89.4831 366.465 89.6786 366.422 89.8967 366.422C90.1235 366.422 90.3168 366.463 90.4766 366.545C90.6386 366.627 90.7736 366.744 90.8816 366.898C90.9896 367.049 91.0738 367.23 91.1343 367.442C91.1969 367.652 91.2434 367.885 91.2736 368.142V368.359C91.2455 368.61 91.198 368.838 91.1311 369.046C91.0641 369.253 90.9756 369.432 90.8654 369.584C90.7553 369.735 90.6192 369.851 90.4572 369.934C90.2974 370.016 90.1084 370.057 89.8902 370.057C89.6764 370.057 89.4831 370.012 89.3103 369.924C89.1397 369.835 88.9928 369.711 88.8697 369.551C88.7487 369.391 88.6559 369.203 88.5911 368.987C88.5263 368.769 88.4939 368.533 88.4939 368.278ZM89.2747 368.21V368.278C89.2747 368.438 89.2898 368.587 89.32 368.725C89.3524 368.863 89.401 368.985 89.4658 369.091C89.5328 369.195 89.617 369.277 89.7185 369.337C89.8222 369.396 89.9442 369.425 90.0846 369.425C90.2682 369.425 90.4183 369.386 90.5349 369.308C90.6537 369.23 90.7445 369.126 90.8071 368.994C90.8719 368.86 90.9172 368.711 90.9432 368.547V367.96C90.9302 367.833 90.9032 367.714 90.8622 367.604C90.8233 367.494 90.7704 367.398 90.7034 367.316C90.6365 367.232 90.5522 367.167 90.4507 367.121C90.3492 367.074 90.2293 367.05 90.0911 367.05C89.9507 367.05 89.8287 367.08 89.725 367.141C89.6213 367.201 89.536 367.284 89.4691 367.39C89.4043 367.496 89.3557 367.619 89.3233 367.76C89.2909 367.9 89.2747 368.05 89.2747 368.21ZM93.2163 367.235V369.992H92.4355V366.486H93.1709L93.2163 367.235ZM93.077 368.11L92.8243 368.106C92.8264 367.858 92.861 367.63 92.9279 367.423C92.9971 367.215 93.0921 367.037 93.213 366.888C93.3362 366.739 93.483 366.625 93.6537 366.545C93.8243 366.463 94.0143 366.422 94.2239 366.422C94.3923 366.422 94.5446 366.445 94.6807 366.493C94.8189 366.538 94.9366 366.613 95.0338 366.716C95.1332 366.82 95.2087 366.955 95.2606 367.121C95.3124 367.286 95.3383 367.487 95.3383 367.727V369.992H94.5543V367.724C94.5543 367.556 94.5295 367.423 94.4798 367.325C94.4323 367.226 94.3621 367.156 94.2692 367.115C94.1785 367.072 94.0651 367.05 93.929 367.05C93.7951 367.05 93.6753 367.078 93.5694 367.134C93.4636 367.19 93.374 367.267 93.3005 367.364C93.2292 367.462 93.1742 367.574 93.1353 367.701C93.0964 367.829 93.077 367.965 93.077 368.11ZM97.754 367.666V368.288H96.0402V367.666H97.754ZM101.21 365.275H102.02V368.427C102.02 368.786 101.942 369.086 101.786 369.328C101.631 369.57 101.419 369.752 101.151 369.875C100.886 369.996 100.589 370.057 100.26 370.057C99.9213 370.057 99.6189 369.996 99.3533 369.875C99.0876 369.752 98.8781 369.57 98.7247 369.328C98.5736 369.086 98.498 368.786 98.498 368.427V365.275H99.3079V368.427C99.3079 368.654 99.3468 368.841 99.4245 368.987C99.5023 369.132 99.6124 369.239 99.755 369.308C99.8975 369.377 100.066 369.412 100.26 369.412C100.455 369.412 100.622 369.377 100.763 369.308C100.905 369.239 101.015 369.132 101.093 368.987C101.171 368.841 101.21 368.654 101.21 368.427V365.275ZM103.658 367.16V371.34H102.877V366.486H103.596L103.658 367.16ZM105.942 368.207V368.275C105.942 368.53 105.912 368.766 105.851 368.984C105.793 369.2 105.705 369.389 105.589 369.551C105.474 369.711 105.333 369.835 105.164 369.924C104.996 370.012 104.801 370.057 104.581 370.057C104.363 370.057 104.172 370.017 104.008 369.937C103.846 369.855 103.708 369.739 103.596 369.59C103.484 369.441 103.393 369.266 103.324 369.065C103.257 368.862 103.21 368.64 103.181 368.398V368.135C103.21 367.878 103.257 367.645 103.324 367.436C103.393 367.226 103.484 367.046 103.596 366.895C103.708 366.743 103.846 366.627 104.008 366.545C104.17 366.463 104.359 366.422 104.575 366.422C104.795 366.422 104.99 366.465 105.161 366.551C105.332 366.635 105.475 366.756 105.592 366.914C105.709 367.07 105.796 367.257 105.854 367.478C105.913 367.696 105.942 367.939 105.942 368.207ZM105.161 368.275V368.207C105.161 368.045 105.146 367.895 105.116 367.756C105.085 367.616 105.038 367.493 104.973 367.387C104.908 367.281 104.825 367.199 104.724 367.141C104.624 367.08 104.504 367.05 104.364 367.05C104.226 367.05 104.107 367.074 104.008 367.121C103.908 367.167 103.825 367.23 103.758 367.313C103.691 367.395 103.639 367.491 103.603 367.601C103.566 367.709 103.54 367.827 103.525 367.954V368.583C103.551 368.738 103.595 368.881 103.658 369.01C103.72 369.14 103.809 369.243 103.923 369.321C104.04 369.397 104.189 369.435 104.37 369.435C104.511 369.435 104.631 369.404 104.73 369.344C104.829 369.283 104.91 369.2 104.973 369.094C105.038 368.986 105.085 368.862 105.116 368.722C105.146 368.581 105.161 368.432 105.161 368.275Z" fill="#00C7BE"/>
</g>
<g clip-path="url(#clip4_268_5802)">
<rect x="18.4852" y="327.521" width="151.659" height="19.4787" rx="9.73934" fill="white"/>
<path d="M89.4055 338.615V339.26H87.0372V338.615H89.4055ZM87.264 334.543V339.26H86.4508V334.543H87.264ZM89.8546 337.546V337.472C89.8546 337.219 89.8913 336.985 89.9647 336.769C90.0382 336.55 90.144 336.361 90.2822 336.202C90.4226 336.04 90.5933 335.914 90.7941 335.826C90.9972 335.735 91.2261 335.69 91.481 335.69C91.738 335.69 91.9669 335.735 92.1678 335.826C92.3708 335.914 92.5425 336.04 92.6829 336.202C92.8233 336.361 92.9302 336.55 93.0037 336.769C93.0771 336.985 93.1138 337.219 93.1138 337.472V337.546C93.1138 337.799 93.0771 338.033 93.0037 338.249C92.9302 338.465 92.8233 338.654 92.6829 338.816C92.5425 338.976 92.3719 339.101 92.171 339.192C91.9702 339.28 91.7423 339.325 91.4874 339.325C91.2304 339.325 91.0004 339.28 90.7974 339.192C90.5965 339.101 90.4259 338.976 90.2855 338.816C90.1451 338.654 90.0382 338.465 89.9647 338.249C89.8913 338.033 89.8546 337.799 89.8546 337.546ZM90.6354 337.472V337.546C90.6354 337.704 90.6516 337.853 90.684 337.993C90.7164 338.134 90.7671 338.257 90.8362 338.363C90.9054 338.468 90.9939 338.552 91.1019 338.612C91.2099 338.672 91.3384 338.703 91.4874 338.703C91.6322 338.703 91.7574 338.672 91.8633 338.612C91.9712 338.552 92.0598 338.468 92.1289 338.363C92.198 338.257 92.2488 338.134 92.2812 337.993C92.3157 337.853 92.333 337.704 92.333 337.546V337.472C92.333 337.316 92.3157 337.169 92.2812 337.031C92.2488 336.891 92.197 336.766 92.1257 336.658C92.0566 336.55 91.968 336.466 91.86 336.406C91.7542 336.343 91.6278 336.312 91.481 336.312C91.3341 336.312 91.2067 336.343 91.0987 336.406C90.9928 336.466 90.9054 336.55 90.8362 336.658C90.7671 336.766 90.7164 336.891 90.684 337.031C90.6516 337.169 90.6354 337.316 90.6354 337.472ZM96.0608 335.755H96.7703V339.163C96.7703 339.478 96.7034 339.746 96.5695 339.966C96.4355 340.187 96.2487 340.354 96.009 340.468C95.7692 340.585 95.4917 340.643 95.1763 340.643C95.0424 340.643 94.8934 340.624 94.7293 340.585C94.5673 340.546 94.4096 340.484 94.2563 340.397C94.1051 340.313 93.9787 340.202 93.8772 340.063L94.2433 339.603C94.3686 339.752 94.5068 339.861 94.658 339.931C94.8092 340 94.9679 340.034 95.1342 340.034C95.3135 340.034 95.4658 340.001 95.591 339.934C95.7185 339.869 95.8167 339.773 95.8859 339.645C95.955 339.518 95.9895 339.363 95.9895 339.179V336.548L96.0608 335.755ZM93.6796 337.546V337.478C93.6796 337.212 93.712 336.971 93.7768 336.752C93.8416 336.532 93.9344 336.343 94.0554 336.185C94.1763 336.026 94.3232 335.904 94.496 335.819C94.6688 335.733 94.8643 335.69 95.0824 335.69C95.3092 335.69 95.5025 335.731 95.6623 335.813C95.8243 335.895 95.9593 336.013 96.0673 336.166C96.1753 336.317 96.2595 336.499 96.32 336.71C96.3826 336.92 96.4291 337.153 96.4593 337.41V337.627C96.4312 337.878 96.3837 338.107 96.3168 338.314C96.2498 338.521 96.1612 338.701 96.0511 338.852C95.9409 339.003 95.8049 339.12 95.6429 339.202C95.483 339.284 95.2941 339.325 95.0759 339.325C94.8621 339.325 94.6688 339.28 94.496 339.192C94.3254 339.103 94.1785 338.979 94.0554 338.819C93.9344 338.66 93.8416 338.472 93.7768 338.256C93.712 338.037 93.6796 337.801 93.6796 337.546ZM94.4604 337.478V337.546C94.4604 337.706 94.4755 337.855 94.5057 337.993C94.5381 338.131 94.5867 338.253 94.6515 338.359C94.7185 338.463 94.8027 338.545 94.9042 338.606C95.0079 338.664 95.1299 338.693 95.2703 338.693C95.4539 338.693 95.604 338.654 95.7206 338.576C95.8394 338.499 95.9301 338.394 95.9928 338.262C96.0576 338.128 96.1029 337.979 96.1288 337.815V337.229C96.1159 337.101 96.0889 336.982 96.0479 336.872C96.009 336.762 95.9561 336.666 95.8891 336.584C95.8221 336.5 95.7379 336.435 95.6364 336.39C95.5349 336.342 95.415 336.318 95.2768 336.318C95.1364 336.318 95.0144 336.348 94.9107 336.409C94.807 336.469 94.7217 336.553 94.6547 336.658C94.5899 336.764 94.5414 336.887 94.509 337.028C94.4766 337.168 94.4604 337.318 94.4604 337.478ZM98.4635 335.755V339.26H97.6795V335.755H98.4635ZM97.6277 334.834C97.6277 334.716 97.6665 334.617 97.7443 334.54C97.8242 334.46 97.9344 334.42 98.0747 334.42C98.213 334.42 98.3221 334.46 98.402 334.54C98.4819 334.617 98.5218 334.716 98.5218 334.834C98.5218 334.951 98.4819 335.048 98.402 335.126C98.3221 335.204 98.213 335.243 98.0747 335.243C97.9344 335.243 97.8242 335.204 97.7443 335.126C97.6665 335.048 97.6277 334.951 97.6277 334.834ZM100.141 336.503V339.26H99.3597V335.755H100.095L100.141 336.503ZM100.001 337.378L99.7485 337.374C99.7507 337.126 99.7852 336.898 99.8522 336.691C99.9213 336.483 100.016 336.305 100.137 336.156C100.26 336.007 100.407 335.893 100.578 335.813C100.749 335.731 100.939 335.69 101.148 335.69C101.317 335.69 101.469 335.713 101.605 335.761C101.743 335.806 101.861 335.881 101.958 335.985C102.057 336.088 102.133 336.223 102.185 336.39C102.237 336.554 102.263 336.756 102.263 336.995V339.26H101.479V336.992C101.479 336.824 101.454 336.691 101.404 336.594C101.357 336.494 101.286 336.424 101.193 336.383C101.103 336.34 100.989 336.318 100.853 336.318C100.719 336.318 100.599 336.346 100.494 336.402C100.388 336.459 100.298 336.535 100.225 336.632C100.153 336.73 100.098 336.842 100.06 336.969C100.021 337.097 100.001 337.233 100.001 337.378Z" fill="#00C7BE"/>
</g>
<path fill-rule="evenodd" clip-rule="evenodd" d="M151.351 9.4787H151.825C152.086 9.4787 152.299 9.69089 152.299 9.95263V12.7962C152.299 13.058 152.086 13.2702 151.825 13.2702H151.351C151.089 13.2702 150.877 13.058 150.877 12.7962V9.95263C150.877 9.69089 151.089 9.4787 151.351 9.4787Z" fill="#F9F9F9"/>
<path fill-rule="evenodd" clip-rule="evenodd" d="M149.218 10.4265H149.692C149.954 10.4265 150.166 10.6387 150.166 10.9004V12.7962C150.166 13.0579 149.954 13.2701 149.692 13.2701H149.218C148.956 13.2701 148.744 13.0579 148.744 12.7962V10.9004C148.744 10.6387 148.956 10.4265 149.218 10.4265Z" fill="#F9F9F9"/>
<path fill-rule="evenodd" clip-rule="evenodd" d="M147.085 11.1375H147.559C147.821 11.1375 148.033 11.3496 148.033 11.6114V12.7962C148.033 13.058 147.821 13.2702 147.559 13.2702H147.085C146.824 13.2702 146.611 13.058 146.611 12.7962V11.6114C146.611 11.3496 146.824 11.1375 147.085 11.1375Z" fill="#F9F9F9"/>
<path fill-rule="evenodd" clip-rule="evenodd" d="M153.483 8.53082H153.957C154.219 8.53082 154.431 8.74301 154.431 9.00476V12.7962C154.431 13.058 154.219 13.2702 153.957 13.2702H153.483C153.222 13.2702 153.009 13.058 153.009 12.7962V9.00476C153.009 8.74301 153.222 8.53082 153.483 8.53082Z" fill="#3C3C43" fill-opacity="0.18"/>
<path fill-rule="evenodd" clip-rule="evenodd" d="M151.351 9.4787H151.825C152.086 9.4787 152.299 9.69089 152.299 9.95263V12.7962C152.299 13.058 152.086 13.2702 151.825 13.2702H151.351C151.089 13.2702 150.877 13.058 150.877 12.7962V9.95263C150.877 9.69089 151.089 9.4787 151.351 9.4787Z" fill="black"/>
<path fill-rule="evenodd" clip-rule="evenodd" d="M149.218 10.4265H149.692C149.954 10.4265 150.166 10.6387 150.166 10.9004V12.7962C150.166 13.0579 149.954 13.2701 149.692 13.2701H149.218C148.956 13.2701 148.744 13.0579 148.744 12.7962V10.9004C148.744 10.6387 148.956 10.4265 149.218 10.4265Z" fill="black"/>
<path fill-rule="evenodd" clip-rule="evenodd" d="M147.085 11.1375H147.559C147.821 11.1375 148.033 11.3496 148.033 11.6114V12.7962C148.033 13.058 147.821 13.2702 147.559 13.2702H147.085C146.824 13.2702 146.611 13.058 146.611 12.7962V11.6114C146.611 11.3496 146.824 11.1375 147.085 11.1375Z" fill="black"/>
<path d="M160.892 11.8197C161.195 11.8197 161.49 11.8993 161.749 12.0512L161.854 12.1127C161.934 12.1594 161.948 12.2686 161.883 12.3337L160.985 13.2289C160.93 13.2839 160.841 13.2839 160.785 13.2289L159.894 12.3395C159.829 12.2746 159.842 12.166 159.921 12.119L160.025 12.0572C160.287 11.9015 160.585 11.8197 160.892 11.8197Z" fill="black"/>
<path d="M160.892 10.1753C161.646 10.1753 162.37 10.4254 162.96 10.8886L163.043 10.9541C163.11 11.0062 163.115 11.1046 163.056 11.1642L162.52 11.6986C162.47 11.7481 162.392 11.7538 162.336 11.712L162.27 11.6634C161.872 11.3674 161.392 11.2086 160.892 11.2086C160.39 11.2086 159.907 11.3694 159.507 11.6688L159.442 11.7178C159.386 11.7599 159.307 11.7544 159.257 11.7048L158.721 11.1706C158.662 11.111 158.667 11.013 158.734 10.9607L158.816 10.8952C159.407 10.4278 160.135 10.1753 160.892 10.1753Z" fill="black"/>
<path d="M160.892 8.53082C162.089 8.53082 163.233 8.95289 164.139 9.72653L164.216 9.79257C164.279 9.84593 164.282 9.94105 164.224 9.99906L163.69 10.5317C163.638 10.5834 163.555 10.587 163.499 10.5401L163.433 10.4848C162.72 9.88851 161.826 9.56417 160.892 9.56417C159.955 9.56417 159.058 9.89074 158.344 10.4907L158.278 10.5463C158.222 10.5934 158.139 10.5899 158.087 10.5382L157.553 10.0056C157.495 9.94766 157.499 9.85271 157.561 9.79929L157.638 9.73323C158.545 8.95542 159.692 8.53082 160.892 8.53082Z" fill="black"/>
<path d="M177.891 9.95264C178.153 9.95264 178.365 10.1648 178.365 10.4266V11.3744C178.365 11.6362 178.153 11.8484 177.891 11.8484V9.95264Z" fill="#3C3C43" fill-opacity="0.6"/>
<path fill-rule="evenodd" clip-rule="evenodd" d="M167.938 8.05688H175.995C176.78 8.05688 177.417 8.69345 177.417 9.47869V12.3223C177.417 13.1075 176.78 13.7441 175.995 13.7441H167.938C167.153 13.7441 166.517 13.1075 166.517 12.3223V9.47869C166.517 8.69345 167.153 8.05688 167.938 8.05688ZM167.938 8.53082C167.415 8.53082 166.991 8.95519 166.991 9.47869V12.3223C166.991 12.8458 167.415 13.2702 167.938 13.2702H175.995C176.519 13.2702 176.943 12.8458 176.943 12.3223V9.47869C176.943 8.95519 176.519 8.53082 175.995 8.53082H167.938Z" fill="#3C3C43" fill-opacity="0.6"/>
<rect x="167.464" y="9.00476" width="9.00474" height="3.79147" rx="0.473934" fill="black"/>
<path d="M17.9465 13.3123C19.2205 13.3123 19.9772 12.316 19.9772 10.629C19.9772 9.99381 19.8557 9.45925 19.6231 9.04617C19.2864 8.404 18.7067 8.05688 17.9743 8.05688C16.8844 8.05688 16.1137 8.78931 16.1137 9.81678C16.1137 10.7818 16.808 11.483 17.7626 11.483C18.3492 11.483 18.8247 11.2087 19.0608 10.7332H19.0712C19.0712 10.7332 19.0851 10.7332 19.0886 10.7332C19.0955 10.7332 19.1198 10.7332 19.1198 10.7332C19.1198 11.8787 18.6859 12.5625 17.9535 12.5625C17.5231 12.5625 17.1898 12.3265 17.0753 11.9481H16.1832C16.3324 12.7708 17.0301 13.3123 17.9465 13.3123ZM17.9778 10.7714C17.4016 10.7714 16.992 10.3618 16.992 9.78901C16.992 9.23015 17.4224 8.80319 17.9812 8.80319C18.5401 8.80319 18.9705 9.23709 18.9705 9.8029C18.9705 10.3618 18.5505 10.7714 17.9778 10.7714Z" fill="black"/>
<path d="M21.4422 13.2637C21.7719 13.2637 21.9976 13.0276 21.9976 12.7152C21.9976 12.3993 21.7719 12.1668 21.4422 12.1668C21.1159 12.1668 20.8868 12.3993 20.8868 12.7152C20.8868 13.0276 21.1159 13.2637 21.4422 13.2637ZM21.4422 10.6603C21.7719 10.6603 21.9976 10.4277 21.9976 10.1153C21.9976 9.79942 21.7719 9.56685 21.4422 9.56685C21.1159 9.56685 20.8868 9.79942 20.8868 10.1153C20.8868 10.4277 21.1159 10.6603 21.4422 10.6603Z" fill="black"/>
<path d="M25.2467 13.1908H26.1041V12.257H26.781V11.5003H26.1041V8.18185H24.8406C23.9555 9.51479 23.2508 10.629 22.7995 11.4587V12.257H25.2467V13.1908ZM23.6292 11.4691C24.2123 10.4416 24.733 9.61892 25.212 8.9108H25.2606V11.5211H23.6292V11.4691Z" fill="black"/>
<path d="M28.6903 13.1908H29.5859V8.18185H28.6938L27.3851 9.09824V9.9591L28.6313 9.08436H28.6903V13.1908Z" fill="black"/>
</g>
<rect x="81.8831" y="93.1343" width="21.7509" height="20.7509" fill="#1E1E1E"/>
<rect x="81.8831" y="93.1343" width="21.7509" height="20.7509" stroke="#FFFFE3" stroke-width="1.25012"/>
<path d="M89.3546 107.671C87.8212 107.671 86.9764 106.362 86.9764 103.989C86.9764 101.616 87.8212 100.307 89.3546 100.307C90.8831 100.307 91.7328 101.616 91.7328 103.989C91.7328 106.362 90.8831 107.671 89.3546 107.671ZM87.831 103.989C87.831 104.267 87.8456 104.526 87.8652 104.765L90.7073 102.392C90.4777 101.518 90.0187 101.069 89.3546 101.069C88.3584 101.069 87.831 102.075 87.831 103.989ZM89.3546 106.909C90.3508 106.909 90.8733 105.898 90.8733 103.989C90.8733 103.706 90.8635 103.447 90.8391 103.203L88.0068 105.595C88.2363 106.46 88.6905 106.909 89.3546 106.909ZM98.1934 107.51H93.2808V106.753H95.361V101.44H95.2829L93.2661 102.744V101.826L95.3659 100.463H96.2107V106.753H98.1934V107.51Z" fill="#FFFFE3"/>
<rect x="10.6261" y="343.159" width="21.7509" height="20.7509" fill="#1E1E1E"/>
<rect x="10.6261" y="343.159" width="21.7509" height="20.7509" stroke="#FFFFE3" stroke-width="1.25012"/>
<path d="M18.0975 357.696C16.5641 357.696 15.7193 356.387 15.7193 354.014C15.7193 351.64 16.5641 350.332 18.0975 350.332C19.626 350.332 20.4757 351.64 20.4757 354.014C20.4757 356.387 19.626 357.696 18.0975 357.696ZM16.5739 354.014C16.5739 354.292 16.5886 354.551 16.6081 354.79L19.4502 352.417C19.2207 351.543 18.7616 351.093 18.0975 351.093C17.1013 351.093 16.5739 352.099 16.5739 354.014ZM18.0975 356.934C19.0937 356.934 19.6162 355.923 19.6162 354.014C19.6162 353.73 19.6064 353.472 19.582 353.227L16.7497 355.62C16.9792 356.485 17.4334 356.934 18.0975 356.934ZM22.0286 352.471C22.0286 351.23 22.9466 350.341 24.2309 350.341C25.525 350.341 26.4138 351.142 26.4138 352.319C26.4138 353.052 26.0817 353.638 24.9585 354.863L23.2982 356.67V356.753H26.5261V357.535H22.0676V356.939L24.4507 354.287C25.3443 353.286 25.5592 352.91 25.5592 352.353C25.5592 351.596 25.0269 351.098 24.2065 351.098C23.3959 351.098 22.8587 351.64 22.8587 352.471V352.5H22.0286V352.471Z" fill="#FFFFE3"/>
</g>
<defs>
<clipPath id="clip0_268_5802">
<rect width="184" height="400" fill="white"/>
</clipPath>
<clipPath id="clip1_268_5802">
<rect width="184.852" height="400.04" fill="white"/>
</clipPath>
<clipPath id="clip2_268_5802">
<rect width="162.376" height="32.1549" fill="white" transform="translate(11.3755 183.905)"/>
</clipPath>
<clipPath id="clip3_268_5802">
<rect x="18.4852" y="358.253" width="151.659" height="19.4787" rx="9.73934" fill="white"/>
</clipPath>
<clipPath id="clip4_268_5802">
<rect x="18.4852" y="327.521" width="151.659" height="19.4787" rx="9.73934" fill="white"/>
</clipPath>
</defs>
</svg>
