<svg width="184" height="400" viewBox="0 0 184 400" fill="none" xmlns="http://www.w3.org/2000/svg">
<g clip-path="url(#clip0_268_8634)">
<rect width="183.982" height="400" fill="white"/>
<rect width="184.834" height="400" fill="white"/>
<path d="M49.7131 203.957H52.167C52.7237 203.957 53.1937 204.042 53.5773 204.212C53.9642 204.381 54.2578 204.632 54.458 204.965C54.6617 205.294 54.7635 205.7 54.7635 206.182C54.7635 206.521 54.6939 206.832 54.5547 207.113C54.419 207.392 54.2221 207.629 53.9642 207.826C53.7096 208.02 53.4042 208.164 53.0478 208.259L52.7729 208.366H50.4666L50.4564 207.567H52.1976C52.5506 207.567 52.8441 207.505 53.0783 207.383C53.3125 207.258 53.489 207.09 53.6078 206.879C53.7266 206.669 53.786 206.436 53.786 206.182C53.786 205.897 53.73 205.647 53.618 205.433C53.506 205.22 53.3295 205.055 53.0885 204.94C52.8509 204.821 52.5438 204.761 52.167 204.761H50.6957V211.37H49.7131V203.957ZM54.0456 211.37L52.2434 208.01L53.2667 208.004L55.0944 211.309V211.37H54.0456ZM58.2814 211.471C57.8979 211.471 57.55 211.407 57.2377 211.278C56.9289 211.146 56.6625 210.961 56.4384 210.723C56.2178 210.485 56.0481 210.204 55.9293 209.878C55.8105 209.552 55.7512 209.196 55.7512 208.809V208.595C55.7512 208.147 55.8173 207.748 55.9497 207.399C56.0821 207.046 56.262 206.747 56.4894 206.503C56.7168 206.258 56.9747 206.073 57.2632 205.948C57.5517 205.822 57.8504 205.759 58.1592 205.759C58.5529 205.759 58.8923 205.827 59.1774 205.963C59.4659 206.099 59.7018 206.289 59.8851 206.533C60.0684 206.774 60.2042 207.059 60.2924 207.388C60.3806 207.714 60.4248 208.071 60.4248 208.458V208.88H56.3112V208.111H59.4829V208.04C59.4693 207.796 59.4184 207.558 59.3302 207.327C59.2453 207.097 59.1096 206.906 58.9229 206.757C58.7362 206.608 58.4817 206.533 58.1592 206.533C57.9454 206.533 57.7486 206.579 57.5687 206.671C57.3888 206.759 57.2344 206.891 57.1054 207.068C56.9764 207.244 56.8763 207.46 56.805 207.714C56.7337 207.969 56.6981 208.262 56.6981 208.595V208.809C56.6981 209.07 56.7337 209.316 56.805 209.547C56.8797 209.774 56.9866 209.975 57.1257 210.148C57.2683 210.321 57.4397 210.457 57.6399 210.555C57.8436 210.653 58.0744 210.703 58.3323 210.703C58.6649 210.703 58.9467 210.635 59.1774 210.499C59.4082 210.363 59.6102 210.182 59.7833 209.954L60.3535 210.407C60.2347 210.587 60.0837 210.759 59.9004 210.922C59.7171 211.085 59.4914 211.217 59.2233 211.319C58.9585 211.421 58.6446 211.471 58.2814 211.471ZM63.1281 210.519L64.6351 205.861H65.5973L63.6169 211.37H62.9856L63.1281 210.519ZM61.8706 205.861L63.4234 210.545L63.5303 211.37H62.899L60.9033 205.861H61.8706ZM67.5268 205.861V211.37H66.5799V205.861H67.5268ZM66.5086 204.4C66.5086 204.247 66.5544 204.118 66.6461 204.013C66.7411 203.908 66.8803 203.855 67.0635 203.855C67.2434 203.855 67.3809 203.908 67.4759 204.013C67.5743 204.118 67.6236 204.247 67.6236 204.4C67.6236 204.546 67.5743 204.671 67.4759 204.777C67.3809 204.878 67.2434 204.929 67.0635 204.929C66.8803 204.929 66.7411 204.878 66.6461 204.777C66.5544 204.671 66.5086 204.546 66.5086 204.4ZM71.3248 211.471C70.9412 211.471 70.5934 211.407 70.2811 211.278C69.9722 211.146 69.7058 210.961 69.4818 210.723C69.2612 210.485 69.0915 210.204 68.9727 209.878C68.8539 209.552 68.7945 209.196 68.7945 208.809V208.595C68.7945 208.147 68.8607 207.748 68.9931 207.399C69.1254 207.046 69.3053 206.747 69.5327 206.503C69.7601 206.258 70.0181 206.073 70.3066 205.948C70.5951 205.822 70.8937 205.759 71.2026 205.759C71.5963 205.759 71.9357 205.827 72.2208 205.963C72.5093 206.099 72.7452 206.289 72.9285 206.533C73.1117 206.774 73.2475 207.059 73.3358 207.388C73.424 207.714 73.4681 208.071 73.4681 208.458V208.88H69.3545V208.111H72.5263V208.04C72.5127 207.796 72.4618 207.558 72.3735 207.327C72.2887 207.097 72.1529 206.906 71.9663 206.757C71.7796 206.608 71.525 206.533 71.2026 206.533C70.9888 206.533 70.7919 206.579 70.612 206.671C70.4321 206.759 70.2777 206.891 70.1487 207.068C70.0198 207.244 69.9196 207.46 69.8484 207.714C69.7771 207.969 69.7414 208.262 69.7414 208.595V208.809C69.7414 209.07 69.7771 209.316 69.8484 209.547C69.923 209.774 70.0299 209.975 70.1691 210.148C70.3117 210.321 70.4831 210.457 70.6833 210.555C70.8869 210.653 71.1177 210.703 71.3757 210.703C71.7083 210.703 71.99 210.635 72.2208 210.499C72.4516 210.363 72.6535 210.182 72.8266 209.954L73.3968 210.407C73.2781 210.587 73.127 210.759 72.9437 210.922C72.7605 211.085 72.5348 211.217 72.2666 211.319C72.0019 211.421 71.6879 211.471 71.3248 211.471ZM75.9628 210.392L77.3781 205.861H77.9992L77.877 206.762L76.4362 211.37H75.8304L75.9628 210.392ZM75.0107 205.861L76.2173 210.443L76.3039 211.37H75.6675L74.0689 205.861H75.0107ZM79.3534 210.407L80.504 205.861H81.4408L79.8422 211.37H79.2109L79.3534 210.407ZM78.1366 205.861L79.5214 210.316L79.6792 211.37H79.0785L77.597 206.752L77.4748 205.861H78.1366ZM86.0176 205.861V211.37H85.0707V205.861H86.0176ZM84.9994 204.4C84.9994 204.247 85.0452 204.118 85.1369 204.013C85.2319 203.908 85.3711 203.855 85.5544 203.855C85.7342 203.855 85.8717 203.908 85.9667 204.013C86.0652 204.118 86.1144 204.247 86.1144 204.4C86.1144 204.546 86.0652 204.671 85.9667 204.777C85.8717 204.878 85.7342 204.929 85.5544 204.929C85.3711 204.929 85.2319 204.878 85.1369 204.777C85.0452 204.671 84.9994 204.546 84.9994 204.4ZM88.4715 207.037V211.37H87.5297V205.861H88.4206L88.4715 207.037ZM88.2475 208.407L87.8555 208.391C87.8589 208.015 87.9149 207.667 88.0235 207.348C88.1321 207.025 88.2849 206.745 88.4817 206.508C88.6786 206.27 88.9128 206.087 89.1843 205.958C89.4592 205.825 89.763 205.759 90.0956 205.759C90.3671 205.759 90.6115 205.797 90.8287 205.871C91.0459 205.943 91.2309 206.058 91.3836 206.217C91.5398 206.377 91.6586 206.584 91.74 206.839C91.8215 207.09 91.8622 207.397 91.8622 207.76V211.37H90.9153V207.75C90.9153 207.461 90.8728 207.231 90.788 207.057C90.7031 206.881 90.5793 206.754 90.4163 206.676C90.2534 206.594 90.0532 206.553 89.8156 206.553C89.5814 206.553 89.3676 206.603 89.1741 206.701C88.984 206.8 88.8194 206.935 88.6803 207.108C88.5445 207.281 88.4376 207.48 88.3595 207.704C88.2849 207.925 88.2475 208.159 88.2475 208.407ZM96.8209 206.92V213.488H95.874V205.861H96.7395L96.8209 206.92ZM100.532 208.57V208.676C100.532 209.077 100.485 209.449 100.39 209.791C100.295 210.131 100.156 210.426 99.9723 210.677C99.7924 210.928 99.5701 211.124 99.3054 211.263C99.0406 211.402 98.7369 211.471 98.3941 211.471C98.0445 211.471 97.7356 211.414 97.4675 211.298C97.1994 211.183 96.972 211.015 96.7853 210.794C96.5986 210.574 96.4493 210.309 96.3373 210C96.2287 209.691 96.154 209.343 96.1133 208.956V208.386C96.154 207.979 96.2304 207.614 96.3424 207.292C96.4544 206.969 96.602 206.694 96.7853 206.467C96.972 206.236 97.1977 206.061 97.4624 205.943C97.7271 205.82 98.0326 205.759 98.3788 205.759C98.725 205.759 99.0322 205.827 99.3003 205.963C99.5684 206.095 99.7941 206.285 99.9774 206.533C100.161 206.781 100.298 207.078 100.39 207.424C100.485 207.767 100.532 208.149 100.532 208.57ZM99.5854 208.676V208.57C99.5854 208.295 99.5565 208.037 99.4988 207.796C99.4411 207.551 99.3512 207.337 99.229 207.154C99.1102 206.968 98.9575 206.822 98.7708 206.716C98.5841 206.608 98.3618 206.553 98.1039 206.553C97.8663 206.553 97.6593 206.594 97.4828 206.676C97.3097 206.757 97.162 206.867 97.0398 207.007C96.9177 207.142 96.8175 207.298 96.7395 207.475C96.6648 207.648 96.6088 207.828 96.5715 208.015V209.333C96.6393 209.571 96.7344 209.795 96.8566 210.005C96.9787 210.212 97.1417 210.38 97.3453 210.509C97.549 210.635 97.8052 210.698 98.1141 210.698C98.3686 210.698 98.5875 210.645 98.7708 210.54C98.9575 210.431 99.1102 210.284 99.229 210.097C99.3512 209.91 99.4411 209.696 99.4988 209.455C99.5565 209.211 99.5854 208.951 99.5854 208.676ZM102.676 206.727V211.37H101.734V205.861H102.65L102.676 206.727ZM104.396 205.831L104.391 206.706C104.313 206.689 104.239 206.679 104.167 206.676C104.099 206.669 104.021 206.665 103.933 206.665C103.716 206.665 103.524 206.699 103.358 206.767C103.192 206.835 103.051 206.93 102.935 207.052C102.82 207.175 102.728 207.321 102.66 207.49C102.596 207.657 102.553 207.84 102.533 208.04L102.268 208.193C102.268 207.86 102.301 207.548 102.365 207.256C102.433 206.964 102.537 206.706 102.676 206.482C102.815 206.255 102.991 206.078 103.205 205.953C103.422 205.824 103.68 205.759 103.979 205.759C104.047 205.759 104.125 205.768 104.213 205.785C104.301 205.798 104.363 205.814 104.396 205.831ZM104.916 208.676V208.559C104.916 208.162 104.973 207.794 105.089 207.455C105.204 207.112 105.371 206.815 105.588 206.564C105.805 206.309 106.068 206.112 106.377 205.973C106.686 205.831 107.032 205.759 107.415 205.759C107.802 205.759 108.15 205.831 108.459 205.973C108.771 206.112 109.036 206.309 109.253 206.564C109.474 206.815 109.642 207.112 109.757 207.455C109.873 207.794 109.93 208.162 109.93 208.559V208.676C109.93 209.074 109.873 209.442 109.757 209.781C109.642 210.121 109.474 210.418 109.253 210.672C109.036 210.923 108.773 211.12 108.464 211.263C108.159 211.402 107.813 211.471 107.426 211.471C107.039 211.471 106.691 211.402 106.382 211.263C106.073 211.12 105.808 210.923 105.588 210.672C105.371 210.418 105.204 210.121 105.089 209.781C104.973 209.442 104.916 209.074 104.916 208.676ZM105.858 208.559V208.676C105.858 208.951 105.89 209.211 105.954 209.455C106.019 209.696 106.116 209.91 106.245 210.097C106.377 210.284 106.542 210.431 106.738 210.54C106.935 210.645 107.164 210.698 107.426 210.698C107.684 210.698 107.909 210.645 108.103 210.54C108.3 210.431 108.463 210.284 108.592 210.097C108.72 209.91 108.817 209.696 108.882 209.455C108.95 209.211 108.984 208.951 108.984 208.676V208.559C108.984 208.288 108.95 208.032 108.882 207.791C108.817 207.546 108.719 207.331 108.586 207.144C108.457 206.954 108.295 206.805 108.098 206.696C107.904 206.587 107.677 206.533 107.415 206.533C107.158 206.533 106.93 206.587 106.733 206.696C106.54 206.805 106.377 206.954 106.245 207.144C106.116 207.331 106.019 207.546 105.954 207.791C105.89 208.032 105.858 208.288 105.858 208.559ZM114.68 205.861H115.536V211.253C115.536 211.738 115.437 212.152 115.24 212.495C115.044 212.838 114.769 213.097 114.416 213.274C114.066 213.454 113.662 213.544 113.204 213.544C113.014 213.544 112.79 213.513 112.532 213.452C112.277 213.394 112.026 213.294 111.779 213.152C111.534 213.012 111.329 212.824 111.163 212.586L111.656 212.026C111.887 212.305 112.128 212.498 112.379 212.607C112.634 212.715 112.885 212.77 113.133 212.77C113.431 212.77 113.689 212.714 113.907 212.602C114.124 212.49 114.292 212.323 114.411 212.103C114.533 211.886 114.594 211.617 114.594 211.298V207.073L114.68 205.861ZM110.888 208.676V208.57C110.888 208.149 110.937 207.767 111.035 207.424C111.137 207.078 111.281 206.781 111.468 206.533C111.658 206.285 111.887 206.095 112.155 205.963C112.423 205.827 112.725 205.759 113.061 205.759C113.408 205.759 113.71 205.82 113.968 205.943C114.229 206.061 114.45 206.236 114.63 206.467C114.813 206.694 114.957 206.969 115.062 207.292C115.167 207.614 115.24 207.979 115.281 208.386V208.855C115.244 209.259 115.171 209.622 115.062 209.944C114.957 210.267 114.813 210.541 114.63 210.769C114.45 210.996 114.229 211.171 113.968 211.293C113.706 211.412 113.401 211.471 113.051 211.471C112.722 211.471 112.423 211.402 112.155 211.263C111.891 211.124 111.663 210.928 111.473 210.677C111.283 210.426 111.137 210.131 111.035 209.791C110.937 209.449 110.888 209.077 110.888 208.676ZM111.829 208.57V208.676C111.829 208.951 111.857 209.209 111.911 209.45C111.969 209.691 112.055 209.903 112.171 210.087C112.289 210.27 112.44 210.414 112.624 210.519C112.807 210.621 113.026 210.672 113.28 210.672C113.593 210.672 113.851 210.606 114.054 210.474C114.258 210.341 114.419 210.166 114.538 209.949C114.66 209.732 114.755 209.496 114.823 209.242V208.015C114.786 207.828 114.728 207.648 114.65 207.475C114.575 207.298 114.477 207.142 114.355 207.007C114.236 206.867 114.088 206.757 113.912 206.676C113.735 206.594 113.528 206.553 113.291 206.553C113.033 206.553 112.81 206.608 112.624 206.716C112.44 206.822 112.289 206.968 112.171 207.154C112.055 207.337 111.969 207.551 111.911 207.796C111.857 208.037 111.829 208.295 111.829 208.57ZM117.908 206.727V211.37H116.966V205.861H117.883L117.908 206.727ZM119.629 205.831L119.624 206.706C119.546 206.689 119.471 206.679 119.4 206.676C119.332 206.669 119.254 206.665 119.166 206.665C118.948 206.665 118.757 206.699 118.59 206.767C118.424 206.835 118.283 206.93 118.168 207.052C118.052 207.175 117.961 207.321 117.893 207.49C117.828 207.657 117.786 207.84 117.766 208.04L117.501 208.193C117.501 207.86 117.533 207.548 117.598 207.256C117.666 206.964 117.769 206.706 117.908 206.482C118.047 206.255 118.224 206.078 118.438 205.953C118.655 205.824 118.913 205.759 119.212 205.759C119.279 205.759 119.357 205.768 119.446 205.785C119.534 205.798 119.595 205.814 119.629 205.831ZM122.684 211.471C122.3 211.471 121.952 211.407 121.64 211.278C121.331 211.146 121.065 210.961 120.841 210.723C120.62 210.485 120.45 210.204 120.332 209.878C120.213 209.552 120.153 209.196 120.153 208.809V208.595C120.153 208.147 120.22 207.748 120.352 207.399C120.484 207.046 120.664 206.747 120.892 206.503C121.119 206.258 121.377 206.073 121.665 205.948C121.954 205.822 122.253 205.759 122.561 205.759C122.955 205.759 123.295 205.827 123.58 205.963C123.868 206.099 124.104 206.289 124.287 206.533C124.471 206.774 124.606 207.059 124.695 207.388C124.783 207.714 124.827 208.071 124.827 208.458V208.88H120.713V208.111H123.885V208.04C123.872 207.796 123.821 207.558 123.732 207.327C123.648 207.097 123.512 206.906 123.325 206.757C123.138 206.608 122.884 206.533 122.561 206.533C122.348 206.533 122.151 206.579 121.971 206.671C121.791 206.759 121.637 206.891 121.508 207.068C121.379 207.244 121.278 207.46 121.207 207.714C121.136 207.969 121.1 208.262 121.1 208.595V208.809C121.1 209.07 121.136 209.316 121.207 209.547C121.282 209.774 121.389 209.975 121.528 210.148C121.671 210.321 121.842 210.457 122.042 210.555C122.246 210.653 122.477 210.703 122.735 210.703C123.067 210.703 123.349 210.635 123.58 210.499C123.81 210.363 124.012 210.182 124.186 209.954L124.756 210.407C124.637 210.587 124.486 210.759 124.303 210.922C124.119 211.085 123.894 211.217 123.625 211.319C123.361 211.421 123.047 211.471 122.684 211.471ZM129.134 209.908C129.134 209.773 129.103 209.647 129.042 209.532C128.985 209.413 128.864 209.306 128.681 209.211C128.501 209.113 128.23 209.028 127.866 208.956C127.561 208.892 127.284 208.816 127.037 208.727C126.792 208.639 126.583 208.532 126.41 208.407C126.241 208.281 126.11 208.133 126.018 207.964C125.927 207.794 125.881 207.595 125.881 207.368C125.881 207.151 125.928 206.945 126.023 206.752C126.122 206.559 126.259 206.387 126.436 206.238C126.616 206.088 126.831 205.971 127.082 205.887C127.333 205.802 127.613 205.759 127.922 205.759C128.364 205.759 128.74 205.837 129.053 205.993C129.365 206.15 129.604 206.358 129.77 206.62C129.937 206.878 130.02 207.164 130.02 207.48H129.078C129.078 207.327 129.032 207.18 128.941 207.037C128.852 206.891 128.722 206.771 128.549 206.676C128.379 206.581 128.17 206.533 127.922 206.533C127.661 206.533 127.449 206.574 127.286 206.655C127.126 206.733 127.009 206.833 126.935 206.956C126.863 207.078 126.828 207.207 126.828 207.343C126.828 207.444 126.845 207.536 126.879 207.617C126.916 207.696 126.981 207.769 127.072 207.836C127.164 207.901 127.293 207.962 127.459 208.02C127.625 208.077 127.838 208.135 128.095 208.193C128.547 208.295 128.919 208.417 129.21 208.559C129.502 208.702 129.72 208.877 129.862 209.084C130.005 209.291 130.076 209.542 130.076 209.837C130.076 210.078 130.025 210.299 129.923 210.499C129.825 210.699 129.68 210.872 129.49 211.018C129.304 211.161 129.08 211.273 128.818 211.354C128.56 211.432 128.27 211.471 127.948 211.471C127.462 211.471 127.052 211.385 126.716 211.212C126.38 211.039 126.125 210.815 125.952 210.54C125.779 210.265 125.692 209.975 125.692 209.669H126.639C126.653 209.927 126.728 210.132 126.863 210.285C126.999 210.435 127.165 210.541 127.362 210.606C127.559 210.667 127.754 210.698 127.948 210.698C128.206 210.698 128.421 210.664 128.594 210.596C128.771 210.528 128.905 210.435 128.997 210.316C129.088 210.197 129.134 210.061 129.134 209.908ZM134.52 209.908C134.52 209.773 134.49 209.647 134.429 209.532C134.371 209.413 134.251 209.306 134.067 209.211C133.887 209.113 133.616 209.028 133.253 208.956C132.947 208.892 132.671 208.816 132.423 208.727C132.179 208.639 131.97 208.532 131.797 208.407C131.627 208.281 131.496 208.133 131.405 207.964C131.313 207.794 131.267 207.595 131.267 207.368C131.267 207.151 131.315 206.945 131.41 206.752C131.508 206.559 131.646 206.387 131.822 206.238C132.002 206.088 132.218 205.971 132.469 205.887C132.72 205.802 133 205.759 133.309 205.759C133.75 205.759 134.127 205.837 134.439 205.993C134.751 206.15 134.99 206.358 135.157 206.62C135.323 206.878 135.406 207.164 135.406 207.48H134.464C134.464 207.327 134.419 207.18 134.327 207.037C134.239 206.891 134.108 206.771 133.935 206.676C133.765 206.581 133.556 206.533 133.309 206.533C133.047 206.533 132.835 206.574 132.672 206.655C132.513 206.733 132.396 206.833 132.321 206.956C132.25 207.078 132.214 207.207 132.214 207.343C132.214 207.444 132.231 207.536 132.265 207.617C132.302 207.696 132.367 207.769 132.459 207.836C132.55 207.901 132.679 207.962 132.845 208.02C133.012 208.077 133.224 208.135 133.482 208.193C133.933 208.295 134.305 208.417 134.597 208.559C134.889 208.702 135.106 208.877 135.248 209.084C135.391 209.291 135.462 209.542 135.462 209.837C135.462 210.078 135.411 210.299 135.31 210.499C135.211 210.699 135.067 210.872 134.877 211.018C134.69 211.161 134.466 211.273 134.205 211.354C133.947 211.432 133.657 211.471 133.334 211.471C132.849 211.471 132.438 211.385 132.102 211.212C131.766 211.039 131.512 210.815 131.338 210.54C131.165 210.265 131.079 209.975 131.079 209.669H132.026C132.039 209.927 132.114 210.132 132.25 210.285C132.386 210.435 132.552 210.541 132.749 210.606C132.946 210.667 133.141 210.698 133.334 210.698C133.592 210.698 133.808 210.664 133.981 210.596C134.157 210.528 134.291 210.435 134.383 210.316C134.475 210.197 134.52 210.061 134.52 209.908Z" fill="black"/>
<path d="M36.1264 225.062H35.0008L35.0082 224.48H36.1264C36.5115 224.48 36.8324 224.4 37.0891 224.24C37.3458 224.077 37.5383 223.85 37.6667 223.558C37.7975 223.265 37.8629 222.921 37.8629 222.529V222.199C37.8629 221.891 37.8259 221.617 37.7519 221.377C37.6778 221.136 37.5692 220.932 37.426 220.767C37.2829 220.599 37.1076 220.472 36.9003 220.385C36.6954 220.299 36.4596 220.256 36.1931 220.256H34.9786V219.671H36.1931C36.546 219.671 36.8682 219.73 37.1594 219.848C37.4507 219.964 37.7013 220.133 37.9111 220.356C38.1234 220.575 38.2863 220.842 38.3998 221.155C38.5134 221.466 38.5701 221.817 38.5701 222.207V222.529C38.5701 222.919 38.5134 223.271 38.3998 223.584C38.2863 223.895 38.1221 224.161 37.9074 224.38C37.6951 224.6 37.4384 224.769 37.1372 224.888C36.8385 225.004 36.5016 225.062 36.1264 225.062ZM35.3822 219.671V225.062H34.6676V219.671H35.3822ZM39.5958 223.103V223.018C39.5958 222.729 39.6377 222.461 39.7216 222.214C39.8056 221.965 39.9265 221.749 40.0845 221.566C40.2425 221.381 40.4338 221.238 40.6584 221.137C40.883 221.033 41.1348 220.981 41.4137 220.981C41.6951 220.981 41.9481 221.033 42.1728 221.137C42.3999 221.238 42.5924 221.381 42.7504 221.566C42.9108 221.749 43.033 221.965 43.1169 222.214C43.2009 222.461 43.2428 222.729 43.2428 223.018V223.103C43.2428 223.392 43.2009 223.66 43.1169 223.906C43.033 224.153 42.9108 224.369 42.7504 224.554C42.5924 224.737 42.4011 224.88 42.1765 224.984C41.9543 225.085 41.7025 225.136 41.4211 225.136C41.1397 225.136 40.8867 225.085 40.6621 224.984C40.4375 224.88 40.2449 224.737 40.0845 224.554C39.9265 224.369 39.8056 224.153 39.7216 223.906C39.6377 223.66 39.5958 223.392 39.5958 223.103ZM40.2807 223.018V223.103C40.2807 223.303 40.3042 223.492 40.3511 223.669C40.398 223.845 40.4683 224 40.5621 224.136C40.6584 224.272 40.7781 224.379 40.9213 224.458C41.0645 224.535 41.2311 224.573 41.4211 224.573C41.6087 224.573 41.7729 224.535 41.9136 224.458C42.0568 224.379 42.1752 224.272 42.269 224.136C42.3628 224 42.4332 223.845 42.4801 223.669C42.5295 223.492 42.5541 223.303 42.5541 223.103V223.018C42.5541 222.82 42.5295 222.634 42.4801 222.459C42.4332 222.281 42.3616 222.124 42.2653 221.988C42.1715 221.85 42.053 221.742 41.9099 221.663C41.7692 221.584 41.6038 221.544 41.4137 221.544C41.2261 221.544 41.0608 221.584 40.9176 221.663C40.7769 221.742 40.6584 221.85 40.5621 221.988C40.4683 222.124 40.398 222.281 40.3511 222.459C40.3042 222.634 40.2807 222.82 40.2807 223.018ZM45.942 224.573C46.1049 224.573 46.2555 224.54 46.3937 224.473C46.532 224.406 46.6455 224.315 46.7344 224.199C46.8232 224.08 46.8738 223.946 46.8862 223.795H47.5378C47.5255 224.032 47.4453 224.253 47.2972 224.458C47.1515 224.66 46.9602 224.825 46.7233 224.951C46.4863 225.074 46.2259 225.136 45.942 225.136C45.6409 225.136 45.378 225.083 45.1534 224.976C44.9312 224.87 44.7461 224.725 44.598 224.54C44.4523 224.354 44.3425 224.142 44.2684 223.903C44.1969 223.661 44.1611 223.405 44.1611 223.136V222.981C44.1611 222.712 44.1969 222.457 44.2684 222.218C44.3425 221.976 44.4523 221.763 44.598 221.577C44.7461 221.392 44.9312 221.247 45.1534 221.141C45.378 221.034 45.6409 220.981 45.942 220.981C46.2555 220.981 46.5295 221.045 46.764 221.174C46.9985 221.3 47.1824 221.473 47.3157 221.692C47.4515 221.909 47.5255 222.156 47.5378 222.433H46.8862C46.8738 222.267 46.8269 222.118 46.7455 221.985C46.6665 221.851 46.5579 221.745 46.4197 221.666C46.2839 221.585 46.1247 221.544 45.942 221.544C45.7322 221.544 45.5557 221.586 45.4126 221.67C45.2719 221.751 45.1595 221.863 45.0756 222.003C44.9942 222.141 44.9349 222.296 44.8979 222.466C44.8633 222.634 44.8461 222.805 44.8461 222.981V223.136C44.8461 223.311 44.8633 223.484 44.8979 223.655C44.9324 223.825 44.9905 223.979 45.0719 224.117C45.1558 224.256 45.2681 224.367 45.4088 224.451C45.552 224.532 45.7297 224.573 45.942 224.573ZM50.9961 224.136V221.055H51.6848V225.062H51.0294L50.9961 224.136ZM51.1257 223.292L51.4108 223.284C51.4108 223.551 51.3824 223.798 51.3256 224.025C51.2713 224.249 51.1824 224.444 51.059 224.61C50.9356 224.775 50.7739 224.905 50.574 224.999C50.374 225.09 50.1309 225.136 49.8446 225.136C49.6496 225.136 49.4706 225.107 49.3077 225.05C49.1472 224.994 49.009 224.906 48.893 224.788C48.777 224.669 48.6869 224.515 48.6227 224.325C48.561 224.135 48.5301 223.906 48.5301 223.64V221.055H49.2151V223.647C49.2151 223.827 49.2349 223.977 49.2744 224.095C49.3163 224.211 49.3719 224.304 49.441 224.373C49.5126 224.44 49.5916 224.486 49.6779 224.514C49.7668 224.541 49.8581 224.554 49.9519 224.554C50.2432 224.554 50.474 224.499 50.6443 224.388C50.8146 224.274 50.9368 224.122 51.0109 223.932C51.0874 223.74 51.1257 223.526 51.1257 223.292ZM53.6471 221.851V225.062H52.9585V221.055H53.6101L53.6471 221.851ZM53.5064 222.907L53.188 222.896C53.1905 222.622 53.2263 222.369 53.2954 222.137C53.3645 221.902 53.467 221.698 53.6027 221.526C53.7385 221.353 53.9076 221.22 54.11 221.126C54.3124 221.029 54.5469 220.981 54.8135 220.981C55.0011 220.981 55.1739 221.008 55.3318 221.063C55.4898 221.115 55.6268 221.197 55.7428 221.311C55.8588 221.424 55.9489 221.57 56.0131 221.748C56.0773 221.925 56.1094 222.14 56.1094 222.392V225.062H55.4244V222.425C55.4244 222.216 55.3886 222.048 55.317 221.922C55.2479 221.796 55.1492 221.705 55.0208 221.648C54.8925 221.589 54.7419 221.559 54.5691 221.559C54.3667 221.559 54.1976 221.595 54.0618 221.666C53.9261 221.738 53.8175 221.837 53.736 221.963C53.6546 222.088 53.5953 222.233 53.5583 222.396C53.5237 222.556 53.5064 222.726 53.5064 222.907ZM56.102 222.529L55.6429 222.67C55.6453 222.45 55.6811 222.239 55.7502 222.037C55.8218 221.834 55.9242 221.654 56.0575 221.496C56.1933 221.338 56.3599 221.213 56.5574 221.122C56.7549 221.028 56.9807 220.981 57.235 220.981C57.4497 220.981 57.6398 221.01 57.8052 221.066C57.973 221.123 58.1137 221.211 58.2273 221.329C58.3433 221.445 58.4309 221.595 58.4902 221.777C58.5494 221.96 58.579 222.177 58.579 222.429V225.062H57.8903V222.422C57.8903 222.197 57.8545 222.023 57.783 221.9C57.7138 221.774 57.6151 221.686 57.4867 221.637C57.3609 221.585 57.2103 221.559 57.035 221.559C56.8845 221.559 56.7512 221.585 56.6351 221.637C56.5191 221.689 56.4216 221.76 56.3426 221.851C56.2637 221.94 56.2032 222.043 56.1612 222.159C56.1217 222.275 56.102 222.398 56.102 222.529ZM61.5152 225.136C61.2363 225.136 60.9832 225.089 60.7562 224.995C60.5315 224.899 60.3378 224.764 60.1748 224.591C60.0144 224.419 59.891 224.214 59.8046 223.977C59.7182 223.74 59.675 223.481 59.675 223.199V223.044C59.675 222.718 59.7231 222.428 59.8194 222.174C59.9157 221.917 60.0465 221.7 60.2119 221.522C60.3772 221.344 60.5648 221.21 60.7747 221.118C60.9845 221.027 61.2017 220.981 61.4263 220.981C61.7127 220.981 61.9595 221.031 62.1668 221.129C62.3767 221.228 62.5482 221.366 62.6815 221.544C62.8148 221.719 62.9135 221.927 62.9777 222.166C63.0419 222.403 63.074 222.662 63.074 222.944V223.251H60.0823V222.692H62.389V222.64C62.3791 222.462 62.3421 222.29 62.2779 222.122C62.2162 221.954 62.1175 221.816 61.9817 221.707C61.846 221.598 61.6608 221.544 61.4263 221.544C61.2708 221.544 61.1276 221.577 60.9968 221.644C60.866 221.708 60.7537 221.805 60.6599 221.933C60.5661 222.061 60.4933 222.218 60.4414 222.403C60.3896 222.588 60.3637 222.802 60.3637 223.044V223.199C60.3637 223.389 60.3896 223.568 60.4414 223.736C60.4957 223.901 60.5735 224.047 60.6747 224.173C60.7784 224.299 60.903 224.398 61.0487 224.469C61.1968 224.541 61.3646 224.577 61.5522 224.577C61.7941 224.577 61.999 224.527 62.1668 224.428C62.3347 224.33 62.4816 224.198 62.6075 224.032L63.0221 224.362C62.9358 224.493 62.8259 224.617 62.6926 224.736C62.5593 224.854 62.3952 224.951 62.2002 225.025C62.0076 225.099 61.7793 225.136 61.5152 225.136ZM64.7957 221.911V225.062H64.1107V221.055H64.7587L64.7957 221.911ZM64.6328 222.907L64.3477 222.896C64.3501 222.622 64.3909 222.369 64.4699 222.137C64.5489 221.902 64.6599 221.698 64.8031 221.526C64.9463 221.353 65.1166 221.22 65.3141 221.126C65.514 221.029 65.7349 220.981 65.9768 220.981C66.1743 220.981 66.352 221.008 66.51 221.063C66.668 221.115 66.8025 221.199 66.9136 221.315C67.0271 221.431 67.1135 221.581 67.1728 221.766C67.232 221.949 67.2616 222.172 67.2616 222.436V225.062H66.5729V222.429C66.5729 222.219 66.5421 222.051 66.4804 221.925C66.4187 221.797 66.3286 221.705 66.2101 221.648C66.0916 221.589 65.946 221.559 65.7732 221.559C65.6029 221.559 65.4474 221.595 65.3067 221.666C65.1684 221.738 65.0487 221.837 64.9475 221.963C64.8488 222.088 64.771 222.233 64.7142 222.396C64.6599 222.556 64.6328 222.726 64.6328 222.907ZM70.2163 221.055V221.581H68.0503V221.055H70.2163ZM68.7834 220.082H69.4684V224.069C69.4684 224.205 69.4894 224.307 69.5313 224.377C69.5733 224.446 69.6276 224.491 69.6942 224.514C69.7609 224.536 69.8325 224.547 69.909 224.547C69.9658 224.547 70.025 224.542 70.0867 224.532C70.1509 224.52 70.199 224.51 70.2311 224.502L70.2348 225.062C70.1805 225.079 70.1089 225.095 70.0201 225.11C69.9337 225.127 69.8288 225.136 69.7053 225.136C69.5375 225.136 69.3832 225.102 69.2425 225.036C69.1018 224.969 68.9895 224.858 68.9056 224.702C68.8241 224.544 68.7834 224.332 68.7834 224.066V220.082ZM74.0596 221.685V225.062H73.3746V221.055H74.0411L74.0596 221.685ZM75.3111 221.033L75.3074 221.67C75.2506 221.658 75.1963 221.65 75.1445 221.648C75.0951 221.643 75.0383 221.64 74.9742 221.64C74.8162 221.64 74.6767 221.665 74.5558 221.714C74.4348 221.764 74.3324 221.833 74.2485 221.922C74.1645 222.011 74.0979 222.117 74.0485 222.24C74.0016 222.361 73.9708 222.494 73.9559 222.64L73.7634 222.751C73.7634 222.509 73.7869 222.282 73.8338 222.07C73.8831 221.858 73.9584 221.67 74.0596 221.507C74.1608 221.342 74.2892 221.213 74.4447 221.122C74.6027 221.028 74.7903 220.981 75.0075 220.981C75.0569 220.981 75.1136 220.987 75.1778 221C75.242 221.01 75.2864 221.021 75.3111 221.033ZM77.7696 225.136C77.4907 225.136 77.2377 225.089 77.0106 224.995C76.786 224.899 76.5922 224.764 76.4293 224.591C76.2688 224.419 76.1454 224.214 76.059 223.977C75.9726 223.74 75.9294 223.481 75.9294 223.199V223.044C75.9294 222.718 75.9776 222.428 76.0738 222.174C76.1701 221.917 76.3009 221.7 76.4663 221.522C76.6317 221.344 76.8193 221.21 77.0291 221.118C77.2389 221.027 77.4561 220.981 77.6808 220.981C77.9671 220.981 78.2139 221.031 78.4213 221.129C78.6311 221.228 78.8026 221.366 78.9359 221.544C79.0692 221.719 79.168 221.927 79.2322 222.166C79.2963 222.403 79.3284 222.662 79.3284 222.944V223.251H76.3367V222.692H78.6434V222.64C78.6336 222.462 78.5965 222.29 78.5324 222.122C78.4706 221.954 78.3719 221.816 78.2361 221.707C78.1004 221.598 77.9153 221.544 77.6808 221.544C77.5252 221.544 77.3821 221.577 77.2513 221.644C77.1204 221.708 77.0081 221.805 76.9143 221.933C76.8205 222.061 76.7477 222.218 76.6959 222.403C76.644 222.588 76.6181 222.802 76.6181 223.044V223.199C76.6181 223.389 76.644 223.568 76.6959 223.736C76.7502 223.901 76.8279 224.047 76.9291 224.173C77.0328 224.299 77.1575 224.398 77.3031 224.469C77.4512 224.541 77.619 224.577 77.8066 224.577C78.0486 224.577 78.2534 224.527 78.4213 224.428C78.5891 224.33 78.736 224.198 78.8619 224.032L79.2766 224.362C79.1902 224.493 79.0803 224.617 78.947 224.736C78.8138 224.854 78.6496 224.951 78.4546 225.025C78.2621 225.099 78.0337 225.136 77.7696 225.136ZM81.5315 224.443L82.6274 221.055H83.3272L81.8869 225.062H81.4278L81.5315 224.443ZM80.6169 221.055L81.7462 224.462L81.824 225.062H81.3649L79.9134 221.055H80.6169ZM84.9675 221.055V225.062H84.2788V221.055H84.9675ZM84.227 219.993C84.227 219.882 84.2603 219.788 84.3269 219.711C84.3961 219.635 84.4973 219.597 84.6306 219.597C84.7614 219.597 84.8614 219.635 84.9305 219.711C85.0021 219.788 85.0378 219.882 85.0378 219.993C85.0378 220.099 85.0021 220.19 84.9305 220.267C84.8614 220.341 84.7614 220.378 84.6306 220.378C84.4973 220.378 84.3961 220.341 84.3269 220.267C84.2603 220.19 84.227 220.099 84.227 219.993ZM87.9666 225.136C87.6877 225.136 87.4347 225.089 87.2076 224.995C86.9829 224.899 86.7892 224.764 86.6263 224.591C86.4658 224.419 86.3424 224.214 86.256 223.977C86.1696 223.74 86.1264 223.481 86.1264 223.199V223.044C86.1264 222.718 86.1745 222.428 86.2708 222.174C86.3671 221.917 86.4979 221.7 86.6633 221.522C86.8287 221.344 87.0163 221.21 87.2261 221.118C87.4359 221.027 87.6531 220.981 87.8777 220.981C88.1641 220.981 88.4109 221.031 88.6183 221.129C88.8281 221.228 88.9996 221.366 89.1329 221.544C89.2662 221.719 89.365 221.927 89.4291 222.166C89.4933 222.403 89.5254 222.662 89.5254 222.944V223.251H86.5337V222.692H88.8404V222.64C88.8305 222.462 88.7935 222.29 88.7293 222.122C88.6676 221.954 88.5689 221.816 88.4331 221.707C88.2974 221.598 88.1122 221.544 87.8777 221.544C87.7222 221.544 87.5791 221.577 87.4482 221.644C87.3174 221.708 87.2051 221.805 87.1113 221.933C87.0175 222.061 86.9447 222.218 86.8928 222.403C86.841 222.588 86.8151 222.802 86.8151 223.044V223.199C86.8151 223.389 86.841 223.568 86.8928 223.736C86.9472 223.901 87.0249 224.047 87.1261 224.173C87.2298 224.299 87.3544 224.398 87.5001 224.469C87.6482 224.541 87.816 224.577 88.0036 224.577C88.2455 224.577 88.4504 224.527 88.6183 224.428C88.7861 224.33 88.933 224.198 89.0589 224.032L89.4736 224.362C89.3872 224.493 89.2773 224.617 89.144 224.736C89.0107 224.854 88.8466 224.951 88.6516 225.025C88.4591 225.099 88.2307 225.136 87.9666 225.136ZM91.5767 224.351L92.606 221.055H93.0577L92.9688 221.711L91.921 225.062H91.4804L91.5767 224.351ZM90.8843 221.055L91.7618 224.388L91.8247 225.062H91.3619L90.1993 221.055H90.8843ZM94.0426 224.362L94.8794 221.055H95.5607L94.398 225.062H93.9389L94.0426 224.362ZM93.1577 221.055L94.1648 224.295L94.2796 225.062H93.8426L92.7652 221.703L92.6763 221.055H93.1577ZM100.222 224.573C100.385 224.573 100.536 224.54 100.674 224.473C100.812 224.406 100.926 224.315 101.015 224.199C101.103 224.08 101.154 223.946 101.166 223.795H101.818C101.806 224.032 101.725 224.253 101.577 224.458C101.432 224.66 101.24 224.825 101.003 224.951C100.767 225.074 100.506 225.136 100.222 225.136C99.9211 225.136 99.6582 225.083 99.4336 224.976C99.2114 224.87 99.0263 224.725 98.8782 224.54C98.7326 224.354 98.6227 224.142 98.5487 223.903C98.4771 223.661 98.4413 223.405 98.4413 223.136V222.981C98.4413 222.712 98.4771 222.457 98.5487 222.218C98.6227 221.976 98.7326 221.763 98.8782 221.577C99.0263 221.392 99.2114 221.247 99.4336 221.141C99.6582 221.034 99.9211 220.981 100.222 220.981C100.536 220.981 100.81 221.045 101.044 221.174C101.279 221.3 101.463 221.473 101.596 221.692C101.732 221.909 101.806 222.156 101.818 222.433H101.166C101.154 222.267 101.107 222.118 101.026 221.985C100.947 221.851 100.838 221.745 100.7 221.666C100.564 221.585 100.405 221.544 100.222 221.544C100.012 221.544 99.8359 221.586 99.6928 221.67C99.5521 221.751 99.4398 221.863 99.3558 222.003C99.2744 222.141 99.2151 222.296 99.1781 222.466C99.1435 222.634 99.1263 222.805 99.1263 222.981V223.136C99.1263 223.311 99.1435 223.484 99.1781 223.655C99.2127 223.825 99.2707 223.979 99.3521 224.117C99.436 224.256 99.5484 224.367 99.6891 224.451C99.8322 224.532 100.01 224.573 100.222 224.573ZM105.187 224.377V222.314C105.187 222.156 105.155 222.019 105.091 221.903C105.029 221.785 104.936 221.693 104.81 221.629C104.684 221.565 104.528 221.533 104.343 221.533C104.17 221.533 104.019 221.563 103.888 221.622C103.759 221.681 103.658 221.759 103.584 221.855C103.513 221.951 103.477 222.055 103.477 222.166H102.792C102.792 222.023 102.829 221.881 102.903 221.74C102.977 221.6 103.083 221.473 103.221 221.359C103.362 221.243 103.53 221.152 103.725 221.085C103.922 221.016 104.142 220.981 104.384 220.981C104.675 220.981 104.932 221.031 105.154 221.129C105.379 221.228 105.554 221.377 105.68 221.577C105.808 221.775 105.872 222.023 105.872 222.322V224.188C105.872 224.321 105.884 224.463 105.906 224.614C105.93 224.764 105.966 224.894 106.013 225.002V225.062H105.299C105.264 224.983 105.237 224.878 105.217 224.747C105.197 224.614 105.187 224.49 105.187 224.377ZM105.306 222.633L105.313 223.114H104.621C104.426 223.114 104.252 223.13 104.099 223.162C103.946 223.192 103.817 223.237 103.714 223.299C103.61 223.361 103.531 223.439 103.477 223.532C103.423 223.624 103.395 223.731 103.395 223.855C103.395 223.98 103.424 224.095 103.481 224.199C103.537 224.303 103.622 224.385 103.736 224.447C103.852 224.506 103.994 224.536 104.162 224.536C104.372 224.536 104.557 224.491 104.717 224.403C104.878 224.314 105.005 224.205 105.099 224.077C105.195 223.948 105.247 223.824 105.254 223.703L105.547 224.032C105.529 224.136 105.482 224.251 105.406 224.377C105.329 224.502 105.227 224.623 105.099 224.739C104.973 224.853 104.822 224.948 104.647 225.025C104.474 225.099 104.279 225.136 104.062 225.136C103.79 225.136 103.552 225.083 103.347 224.976C103.145 224.87 102.987 224.728 102.873 224.551C102.762 224.37 102.707 224.169 102.707 223.947C102.707 223.732 102.749 223.544 102.833 223.381C102.916 223.215 103.037 223.078 103.195 222.97C103.353 222.859 103.543 222.775 103.766 222.718C103.988 222.661 104.236 222.633 104.51 222.633H105.306ZM107.872 221.911V225.062H107.187V221.055H107.835L107.872 221.911ZM107.709 222.907L107.424 222.896C107.426 222.622 107.467 222.369 107.546 222.137C107.625 221.902 107.736 221.698 107.879 221.526C108.022 221.353 108.193 221.22 108.39 221.126C108.59 221.029 108.811 220.981 109.053 220.981C109.25 220.981 109.428 221.008 109.586 221.063C109.744 221.115 109.879 221.199 109.99 221.315C110.103 221.431 110.19 221.581 110.249 221.766C110.308 221.949 110.338 222.172 110.338 222.436V225.062H109.649V222.429C109.649 222.219 109.618 222.051 109.557 221.925C109.495 221.797 109.405 221.705 109.286 221.648C109.168 221.589 109.022 221.559 108.849 221.559C108.679 221.559 108.523 221.595 108.383 221.666C108.245 221.738 108.125 221.837 108.024 221.963C107.925 222.088 107.847 222.233 107.79 222.396C107.736 222.556 107.709 222.726 107.709 222.907ZM115.41 221.055V221.581H113.244V221.055H115.41ZM113.977 220.082H114.662V224.069C114.662 224.205 114.683 224.307 114.725 224.377C114.767 224.446 114.822 224.491 114.888 224.514C114.955 224.536 115.026 224.547 115.103 224.547C115.16 224.547 115.219 224.542 115.281 224.532C115.345 224.52 115.393 224.51 115.425 224.502L115.429 225.062C115.375 225.079 115.303 225.095 115.214 225.11C115.128 225.127 115.023 225.136 114.899 225.136C114.732 225.136 114.577 225.102 114.437 225.036C114.296 224.969 114.184 224.858 114.1 224.702C114.018 224.544 113.977 224.332 113.977 224.066V220.082ZM118.813 224.377V222.314C118.813 222.156 118.781 222.019 118.717 221.903C118.655 221.785 118.561 221.693 118.435 221.629C118.309 221.565 118.154 221.533 117.969 221.533C117.796 221.533 117.644 221.563 117.513 221.622C117.385 221.681 117.284 221.759 117.21 221.855C117.138 221.951 117.102 222.055 117.102 222.166H116.417C116.417 222.023 116.454 221.881 116.529 221.74C116.603 221.6 116.709 221.473 116.847 221.359C116.988 221.243 117.155 221.152 117.35 221.085C117.548 221.016 117.768 220.981 118.01 220.981C118.301 220.981 118.558 221.031 118.78 221.129C119.004 221.228 119.18 221.377 119.305 221.577C119.434 221.775 119.498 222.023 119.498 222.322V224.188C119.498 224.321 119.509 224.463 119.531 224.614C119.556 224.764 119.592 224.894 119.639 225.002V225.062H118.924C118.89 224.983 118.862 224.878 118.843 224.747C118.823 224.614 118.813 224.49 118.813 224.377ZM118.932 222.633L118.939 223.114H118.247C118.052 223.114 117.878 223.13 117.724 223.162C117.571 223.192 117.443 223.237 117.339 223.299C117.236 223.361 117.157 223.439 117.102 223.532C117.048 223.624 117.021 223.731 117.021 223.855C117.021 223.98 117.049 224.095 117.106 224.199C117.163 224.303 117.248 224.385 117.362 224.447C117.478 224.506 117.62 224.536 117.787 224.536C117.997 224.536 118.182 224.491 118.343 224.403C118.503 224.314 118.63 224.205 118.724 224.077C118.82 223.948 118.872 223.824 118.88 223.703L119.172 224.032C119.155 224.136 119.108 224.251 119.031 224.377C118.955 224.502 118.853 224.623 118.724 224.739C118.598 224.853 118.448 224.948 118.272 225.025C118.1 225.099 117.905 225.136 117.687 225.136C117.416 225.136 117.178 225.083 116.973 224.976C116.77 224.87 116.612 224.728 116.499 224.551C116.388 224.37 116.332 224.169 116.332 223.947C116.332 223.732 116.374 223.544 116.458 223.381C116.542 223.215 116.663 223.078 116.821 222.97C116.979 222.859 117.169 222.775 117.391 222.718C117.613 222.661 117.861 222.633 118.135 222.633H118.932ZM121.501 219.374V225.062H120.812V219.374H121.501ZM123.949 221.055L122.201 222.925L121.223 223.94L121.168 223.21L121.868 222.373L123.112 221.055H123.949ZM123.323 225.062L121.894 223.151L122.249 222.54L124.13 225.062H123.323ZM126.481 225.136C126.202 225.136 125.949 225.089 125.722 224.995C125.497 224.899 125.304 224.764 125.141 224.591C124.98 224.419 124.857 224.214 124.771 223.977C124.684 223.74 124.641 223.481 124.641 223.199V223.044C124.641 222.718 124.689 222.428 124.785 222.174C124.882 221.917 125.012 221.7 125.178 221.522C125.343 221.344 125.531 221.21 125.741 221.118C125.95 221.027 126.168 220.981 126.392 220.981C126.679 220.981 126.925 221.031 127.133 221.129C127.343 221.228 127.514 221.366 127.647 221.544C127.781 221.719 127.879 221.927 127.944 222.166C128.008 222.403 128.04 222.662 128.04 222.944V223.251H125.048V222.692H127.355V222.64C127.345 222.462 127.308 222.29 127.244 222.122C127.182 221.954 127.083 221.816 126.948 221.707C126.812 221.598 126.627 221.544 126.392 221.544C126.237 221.544 126.094 221.577 125.963 221.644C125.832 221.708 125.72 221.805 125.626 221.933C125.532 222.061 125.459 222.218 125.407 222.403C125.356 222.588 125.33 222.802 125.33 223.044V223.199C125.33 223.389 125.356 223.568 125.407 223.736C125.462 223.901 125.539 224.047 125.641 224.173C125.744 224.299 125.869 224.398 126.015 224.469C126.163 224.541 126.331 224.577 126.518 224.577C126.76 224.577 126.965 224.527 127.133 224.428C127.301 224.33 127.448 224.198 127.573 224.032L127.988 224.362C127.902 224.493 127.792 224.617 127.659 224.736C127.525 224.854 127.361 224.951 127.166 225.025C126.974 225.099 126.745 225.136 126.481 225.136ZM133.646 224.136V221.055H134.334V225.062H133.679L133.646 224.136ZM133.775 223.292L134.06 223.284C134.06 223.551 134.032 223.798 133.975 224.025C133.921 224.249 133.832 224.444 133.709 224.61C133.585 224.775 133.424 224.905 133.224 224.999C133.024 225.09 132.78 225.136 132.494 225.136C132.299 225.136 132.12 225.107 131.957 225.05C131.797 224.994 131.659 224.906 131.543 224.788C131.427 224.669 131.336 224.515 131.272 224.325C131.211 224.135 131.18 223.906 131.18 223.64V221.055H131.865V223.647C131.865 223.827 131.884 223.977 131.924 224.095C131.966 224.211 132.021 224.304 132.091 224.373C132.162 224.44 132.241 224.486 132.328 224.514C132.416 224.541 132.508 224.554 132.602 224.554C132.893 224.554 133.124 224.499 133.294 224.388C133.464 224.274 133.586 224.122 133.66 223.932C133.737 223.74 133.775 223.526 133.775 223.292ZM136.3 221.826V226.602H135.612V221.055H136.241L136.3 221.826ZM139 223.025V223.103C139 223.394 138.965 223.664 138.896 223.914C138.827 224.161 138.726 224.375 138.592 224.558C138.462 224.741 138.3 224.883 138.107 224.984C137.915 225.085 137.694 225.136 137.445 225.136C137.19 225.136 136.966 225.094 136.771 225.01C136.576 224.926 136.41 224.804 136.275 224.643C136.139 224.483 136.03 224.29 135.949 224.066C135.87 223.841 135.815 223.588 135.786 223.307V222.892C135.815 222.596 135.871 222.33 135.952 222.096C136.034 221.861 136.141 221.661 136.275 221.496C136.41 221.328 136.574 221.201 136.767 221.115C136.959 221.026 137.182 220.981 137.433 220.981C137.685 220.981 137.909 221.031 138.104 221.129C138.299 221.226 138.463 221.364 138.596 221.544C138.729 221.724 138.829 221.94 138.896 222.192C138.965 222.441 139 222.719 139 223.025ZM138.311 223.103V223.025C138.311 222.825 138.29 222.638 138.248 222.462C138.206 222.285 138.141 222.129 138.052 221.996C137.965 221.86 137.854 221.754 137.719 221.677C137.583 221.598 137.421 221.559 137.233 221.559C137.061 221.559 136.91 221.589 136.782 221.648C136.656 221.707 136.549 221.787 136.46 221.888C136.371 221.987 136.298 222.101 136.241 222.229C136.187 222.355 136.146 222.486 136.119 222.622V223.581C136.168 223.753 136.237 223.916 136.326 224.069C136.415 224.22 136.534 224.342 136.682 224.436C136.83 224.527 137.016 224.573 137.241 224.573C137.426 224.573 137.585 224.535 137.719 224.458C137.854 224.379 137.965 224.272 138.052 224.136C138.141 224 138.206 223.845 138.248 223.669C138.29 223.492 138.311 223.303 138.311 223.103ZM143.906 221.055V221.581H141.74V221.055H143.906ZM142.473 220.082H143.158V224.069C143.158 224.205 143.179 224.307 143.221 224.377C143.263 224.446 143.317 224.491 143.384 224.514C143.45 224.536 143.522 224.547 143.598 224.547C143.655 224.547 143.714 224.542 143.776 224.532C143.84 224.52 143.888 224.51 143.92 224.502L143.924 225.062C143.87 225.079 143.798 225.095 143.709 225.11C143.623 225.127 143.518 225.136 143.395 225.136C143.227 225.136 143.072 225.102 142.932 225.036C142.791 224.969 142.679 224.858 142.595 224.702C142.513 224.544 142.473 224.332 142.473 224.066V220.082ZM144.691 223.103V223.018C144.691 222.729 144.733 222.461 144.816 222.214C144.9 221.965 145.021 221.749 145.179 221.566C145.337 221.381 145.529 221.238 145.753 221.137C145.978 221.033 146.23 220.981 146.509 220.981C146.79 220.981 147.043 221.033 147.268 221.137C147.495 221.238 147.687 221.381 147.845 221.566C148.006 221.749 148.128 221.965 148.212 222.214C148.296 222.461 148.338 222.729 148.338 223.018V223.103C148.338 223.392 148.296 223.66 148.212 223.906C148.128 224.153 148.006 224.369 147.845 224.554C147.687 224.737 147.496 224.88 147.271 224.984C147.049 225.085 146.797 225.136 146.516 225.136C146.235 225.136 145.982 225.085 145.757 224.984C145.532 224.88 145.34 224.737 145.179 224.554C145.021 224.369 144.9 224.153 144.816 223.906C144.733 223.66 144.691 223.392 144.691 223.103ZM145.376 223.018V223.103C145.376 223.303 145.399 223.492 145.446 223.669C145.493 223.845 145.563 224 145.657 224.136C145.753 224.272 145.873 224.379 146.016 224.458C146.159 224.535 146.326 224.573 146.516 224.573C146.704 224.573 146.868 224.535 147.008 224.458C147.152 224.379 147.27 224.272 147.364 224.136C147.458 224 147.528 223.845 147.575 223.669C147.624 223.492 147.649 223.303 147.649 223.103V223.018C147.649 222.82 147.624 222.634 147.575 222.459C147.528 222.281 147.456 222.124 147.36 221.988C147.266 221.85 147.148 221.742 147.005 221.663C146.864 221.584 146.699 221.544 146.509 221.544C146.321 221.544 146.156 221.584 146.012 221.663C145.872 221.742 145.753 221.85 145.657 221.988C145.563 222.124 145.493 222.281 145.446 222.459C145.399 222.634 145.376 222.82 145.376 223.018ZM61.8558 231.641V237.062H61.1708V232.496L59.7898 233V232.381L61.7484 231.641H61.8558ZM65.6066 234.488V235.051H63.7997V234.488H65.6066ZM69.9719 236.499V237.062H66.4434V236.569L68.2095 234.603C68.4267 234.361 68.5946 234.156 68.7131 233.988C68.834 233.818 68.9179 233.666 68.9648 233.533C69.0142 233.397 69.0389 233.259 69.0389 233.118C69.0389 232.941 69.0019 232.78 68.9278 232.637C68.8562 232.491 68.7501 232.375 68.6094 232.289C68.4687 232.203 68.2984 232.159 68.0984 232.159C67.859 232.159 67.659 232.206 67.4986 232.3C67.3406 232.391 67.2221 232.52 67.1431 232.685C67.0642 232.85 67.0247 233.041 67.0247 233.255H66.3397C66.3397 232.952 66.4063 232.674 66.5396 232.422C66.6729 232.17 66.8704 231.971 67.132 231.822C67.3937 231.672 67.7158 231.597 68.0984 231.597C68.4391 231.597 68.7303 231.657 68.9722 231.778C69.2141 231.896 69.3993 232.064 69.5276 232.282C69.6584 232.496 69.7239 232.748 69.7239 233.037C69.7239 233.195 69.6967 233.355 69.6424 233.518C69.5906 233.679 69.5177 233.839 69.424 234C69.3326 234.16 69.2252 234.318 69.1018 234.473C68.9809 234.629 68.8513 234.782 68.7131 234.933L67.269 236.499H69.9719ZM73.1303 231.374H73.8189V236.284L73.7597 237.062H73.1303V231.374ZM76.5255 235.025V235.103C76.5255 235.394 76.491 235.664 76.4219 235.914C76.3528 236.161 76.2516 236.375 76.1183 236.558C75.985 236.741 75.8221 236.883 75.6295 236.984C75.437 237.085 75.2161 237.136 74.9668 237.136C74.7125 237.136 74.4891 237.092 74.2966 237.006C74.1065 236.917 73.9461 236.79 73.8152 236.625C73.6844 236.459 73.5795 236.259 73.5005 236.025C73.424 235.79 73.3709 235.526 73.3413 235.232V234.892C73.3709 234.596 73.424 234.33 73.5005 234.096C73.5795 233.861 73.6844 233.661 73.8152 233.496C73.9461 233.328 74.1065 233.201 74.2966 233.115C74.4866 233.026 74.7076 232.981 74.9593 232.981C75.2111 232.981 75.4345 233.031 75.6295 233.129C75.8245 233.226 75.9874 233.364 76.1183 233.544C76.2516 233.724 76.3528 233.94 76.4219 234.192C76.491 234.441 76.5255 234.719 76.5255 235.025ZM75.8369 235.103V235.025C75.8369 234.825 75.8183 234.638 75.7813 234.462C75.7443 234.285 75.6851 234.129 75.6036 233.996C75.5221 233.86 75.4148 233.754 75.2815 233.677C75.1482 233.598 74.984 233.559 74.789 233.559C74.6162 233.559 74.4657 233.589 74.3373 233.648C74.2114 233.707 74.104 233.787 74.0152 233.888C73.9263 233.987 73.8535 234.101 73.7967 234.229C73.7424 234.355 73.7017 234.486 73.6745 234.622V235.514C73.714 235.687 73.7782 235.853 73.8671 236.014C73.9584 236.172 74.0794 236.301 74.2299 236.403C74.383 236.504 74.5718 236.554 74.7964 236.554C74.9816 236.554 75.1395 236.517 75.2704 236.443C75.4037 236.367 75.511 236.262 75.5925 236.129C75.6764 235.995 75.7381 235.841 75.7776 235.666C75.8171 235.49 75.8369 235.303 75.8369 235.103ZM80.0801 236.136V233.055H80.7687V237.062H80.1134L80.0801 236.136ZM80.2096 235.292L80.4947 235.284C80.4947 235.551 80.4664 235.798 80.4096 236.025C80.3553 236.249 80.2664 236.444 80.143 236.61C80.0196 236.775 79.8579 236.905 79.658 236.999C79.458 237.09 79.2149 237.136 78.9285 237.136C78.7335 237.136 78.5546 237.107 78.3917 237.05C78.2312 236.994 78.093 236.906 77.977 236.788C77.861 236.669 77.7709 236.515 77.7067 236.325C77.645 236.135 77.6141 235.906 77.6141 235.64V233.055H78.2991V235.647C78.2991 235.827 78.3188 235.977 78.3583 236.095C78.4003 236.211 78.4558 236.304 78.525 236.373C78.5965 236.44 78.6755 236.486 78.7619 236.514C78.8508 236.541 78.9421 236.554 79.0359 236.554C79.3272 236.554 79.558 236.499 79.7283 236.388C79.8986 236.274 80.0208 236.122 80.0949 235.932C80.1714 235.74 80.2096 235.526 80.2096 235.292ZM84.3825 235.999C84.3825 235.9 84.3603 235.809 84.3158 235.725C84.2739 235.639 84.1862 235.561 84.0529 235.492C83.9221 235.42 83.7247 235.358 83.4605 235.307C83.2384 235.26 83.0372 235.204 82.857 235.14C82.6793 235.076 82.5275 234.998 82.4016 234.907C82.2782 234.815 82.1831 234.708 82.1165 234.585C82.0498 234.461 82.0165 234.317 82.0165 234.151C82.0165 233.993 82.0511 233.844 82.1202 233.703C82.1918 233.563 82.2917 233.438 82.4201 233.329C82.5509 233.221 82.7077 233.136 82.8903 233.074C83.073 233.012 83.2766 232.981 83.5013 232.981C83.8222 232.981 84.0961 233.038 84.3232 233.152C84.5503 233.265 84.7244 233.417 84.8453 233.607C84.9663 233.795 85.0267 234.003 85.0267 234.233H84.3418C84.3418 234.122 84.3084 234.014 84.2418 233.911C84.1776 233.805 84.0826 233.717 83.9567 233.648C83.8333 233.579 83.6815 233.544 83.5013 233.544C83.3112 233.544 83.1569 233.574 83.0384 233.633C82.9224 233.69 82.8373 233.763 82.783 233.851C82.7311 233.94 82.7052 234.034 82.7052 234.133C82.7052 234.207 82.7175 234.274 82.7422 234.333C82.7694 234.39 82.8163 234.443 82.8829 234.492C82.9496 234.539 83.0434 234.583 83.1643 234.625C83.2853 234.667 83.4396 234.709 83.6271 234.751C83.9554 234.825 84.2257 234.914 84.438 235.018C84.6503 235.121 84.8083 235.249 84.912 235.399C85.0156 235.55 85.0675 235.732 85.0675 235.947C85.0675 236.122 85.0304 236.283 84.9564 236.428C84.8848 236.574 84.7799 236.7 84.6417 236.806C84.5059 236.91 84.343 236.991 84.1529 237.05C83.9653 237.107 83.7543 237.136 83.5198 237.136C83.1668 237.136 82.8681 237.073 82.6237 236.947C82.3794 236.821 82.1942 236.658 82.0684 236.458C81.9425 236.258 81.8795 236.047 81.8795 235.825H82.5682C82.5781 236.013 82.6324 236.162 82.7311 236.273C82.8299 236.382 82.9508 236.459 83.094 236.506C83.2371 236.551 83.3791 236.573 83.5198 236.573C83.7074 236.573 83.8641 236.548 83.99 236.499C84.1184 236.449 84.2159 236.382 84.2825 236.295C84.3492 236.209 84.3825 236.11 84.3825 235.999ZM86.9484 233.055V237.062H86.2597V233.055H86.9484ZM86.2079 231.993C86.2079 231.882 86.2412 231.788 86.3078 231.711C86.377 231.635 86.4782 231.597 86.6115 231.597C86.7423 231.597 86.8422 231.635 86.9114 231.711C86.9829 231.788 87.0187 231.882 87.0187 231.993C87.0187 232.099 86.9829 232.19 86.9114 232.267C86.8422 232.341 86.7423 232.378 86.6115 232.378C86.4782 232.378 86.377 232.341 86.3078 232.267C86.2412 232.19 86.2079 232.099 86.2079 231.993ZM88.97 233.911V237.062H88.285V233.055H88.933L88.97 233.911ZM88.8071 234.907L88.522 234.896C88.5245 234.622 88.5652 234.369 88.6442 234.137C88.7232 233.902 88.8342 233.698 88.9774 233.526C89.1206 233.353 89.2909 233.22 89.4884 233.126C89.6883 233.029 89.9092 232.981 90.1511 232.981C90.3486 232.981 90.5263 233.008 90.6843 233.063C90.8423 233.115 90.9768 233.199 91.0879 233.315C91.2014 233.431 91.2878 233.581 91.3471 233.766C91.4063 233.949 91.4359 234.172 91.4359 234.436V237.062H90.7473V234.429C90.7473 234.219 90.7164 234.051 90.6547 233.925C90.593 233.797 90.5029 233.705 90.3844 233.648C90.2659 233.589 90.1203 233.559 89.9475 233.559C89.7772 233.559 89.6217 233.595 89.481 233.666C89.3427 233.738 89.223 233.837 89.1218 233.963C89.0231 234.088 88.9453 234.233 88.8886 234.396C88.8342 234.556 88.8071 234.726 88.8071 234.907ZM94.3758 237.136C94.0969 237.136 93.8439 237.089 93.6168 236.995C93.3922 236.899 93.1984 236.764 93.0355 236.591C92.875 236.419 92.7516 236.214 92.6652 235.977C92.5788 235.74 92.5356 235.481 92.5356 235.199V235.044C92.5356 234.718 92.5838 234.428 92.68 234.174C92.7763 233.917 92.9071 233.7 93.0725 233.522C93.2379 233.344 93.4255 233.21 93.6353 233.118C93.8451 233.027 94.0623 232.981 94.287 232.981C94.5733 232.981 94.8201 233.031 95.0275 233.129C95.2373 233.228 95.4088 233.366 95.5421 233.544C95.6754 233.719 95.7742 233.927 95.8384 234.166C95.9025 234.403 95.9346 234.662 95.9346 234.944V235.251H92.9429V234.692H95.2496V234.64C95.2398 234.462 95.2027 234.29 95.1386 234.122C95.0768 233.954 94.9781 233.816 94.8424 233.707C94.7066 233.598 94.5215 233.544 94.287 233.544C94.1315 233.544 93.9883 233.577 93.8575 233.644C93.7266 233.708 93.6143 233.805 93.5205 233.933C93.4267 234.061 93.3539 234.218 93.3021 234.403C93.2502 234.588 93.2243 234.802 93.2243 235.044V235.199C93.2243 235.389 93.2502 235.568 93.3021 235.736C93.3564 235.901 93.4341 236.047 93.5353 236.173C93.639 236.299 93.7637 236.398 93.9093 236.469C94.0574 236.541 94.2252 236.577 94.4128 236.577C94.6548 236.577 94.8596 236.527 95.0275 236.428C95.1953 236.33 95.3422 236.198 95.4681 236.032L95.8828 236.362C95.7964 236.493 95.6865 236.617 95.5533 236.736C95.42 236.854 95.2558 236.951 95.0608 237.025C94.8683 237.099 94.6399 237.136 94.3758 237.136ZM99.304 235.999C99.304 235.9 99.2818 235.809 99.2373 235.725C99.1954 235.639 99.1078 235.561 98.9745 235.492C98.8436 235.42 98.6462 235.358 98.382 235.307C98.1599 235.26 97.9587 235.204 97.7785 235.14C97.6008 235.076 97.449 234.998 97.3231 234.907C97.1997 234.815 97.1046 234.708 97.038 234.585C96.9713 234.461 96.938 234.317 96.938 234.151C96.938 233.993 96.9726 233.844 97.0417 233.703C97.1133 233.563 97.2133 233.438 97.3416 233.329C97.4724 233.221 97.6292 233.136 97.8118 233.074C97.9945 233.012 98.1981 232.981 98.4228 232.981C98.7437 232.981 99.0177 233.038 99.2447 233.152C99.4718 233.265 99.6459 233.417 99.7668 233.607C99.8878 233.795 99.9482 234.003 99.9482 234.233H99.2633C99.2633 234.122 99.2299 234.014 99.1633 233.911C99.0991 233.805 99.0041 233.717 98.8782 233.648C98.7548 233.579 98.603 233.544 98.4228 233.544C98.2327 233.544 98.0784 233.574 97.9599 233.633C97.8439 233.69 97.7588 233.763 97.7045 233.851C97.6526 233.94 97.6267 234.034 97.6267 234.133C97.6267 234.207 97.6391 234.274 97.6637 234.333C97.6909 234.39 97.7378 234.443 97.8044 234.492C97.8711 234.539 97.9649 234.583 98.0858 234.625C98.2068 234.667 98.3611 234.709 98.5487 234.751C98.877 234.825 99.1472 234.914 99.3595 235.018C99.5718 235.121 99.7298 235.249 99.8335 235.399C99.9371 235.55 99.989 235.732 99.989 235.947C99.989 236.122 99.9519 236.283 99.8779 236.428C99.8063 236.574 99.7014 236.7 99.5632 236.806C99.4274 236.91 99.2645 236.991 99.0744 237.05C98.8868 237.107 98.6758 237.136 98.4413 237.136C98.0883 237.136 97.7896 237.073 97.5453 236.947C97.3009 236.821 97.1157 236.658 96.9899 236.458C96.864 236.258 96.801 236.047 96.801 235.825H97.4897C97.4996 236.013 97.5539 236.162 97.6526 236.273C97.7514 236.382 97.8723 236.459 98.0155 236.506C98.1586 236.551 98.3006 236.573 98.4413 236.573C98.6289 236.573 98.7856 236.548 98.9115 236.499C99.0399 236.449 99.1374 236.382 99.204 236.295C99.2707 236.209 99.304 236.11 99.304 235.999ZM103.458 235.999C103.458 235.9 103.436 235.809 103.392 235.725C103.35 235.639 103.262 235.561 103.129 235.492C102.998 235.42 102.8 235.358 102.536 235.307C102.314 235.26 102.113 235.204 101.933 235.14C101.755 235.076 101.603 234.998 101.477 234.907C101.354 234.815 101.259 234.708 101.192 234.585C101.126 234.461 101.092 234.317 101.092 234.151C101.092 233.993 101.127 233.844 101.196 233.703C101.268 233.563 101.368 233.438 101.496 233.329C101.627 233.221 101.783 233.136 101.966 233.074C102.149 233.012 102.352 232.981 102.577 232.981C102.898 232.981 103.172 233.038 103.399 233.152C103.626 233.265 103.8 233.417 103.921 233.607C104.042 233.795 104.103 234.003 104.103 234.233H103.418C103.418 234.122 103.384 234.014 103.318 233.911C103.253 233.805 103.158 233.717 103.033 233.648C102.909 233.579 102.757 233.544 102.577 233.544C102.387 233.544 102.233 233.574 102.114 233.633C101.998 233.69 101.913 233.763 101.859 233.851C101.807 233.94 101.781 234.034 101.781 234.133C101.781 234.207 101.793 234.274 101.818 234.333C101.845 234.39 101.892 234.443 101.959 234.492C102.025 234.539 102.119 234.583 102.24 234.625C102.361 234.667 102.515 234.709 102.703 234.751C103.031 234.825 103.302 234.914 103.514 235.018C103.726 235.121 103.884 235.249 103.988 235.399C104.091 235.55 104.143 235.732 104.143 235.947C104.143 236.122 104.106 236.283 104.032 236.428C103.961 236.574 103.856 236.7 103.717 236.806C103.582 236.91 103.419 236.991 103.229 237.05C103.041 237.107 102.83 237.136 102.596 237.136C102.243 237.136 101.944 237.073 101.7 236.947C101.455 236.821 101.27 236.658 101.144 236.458C101.018 236.258 100.955 236.047 100.955 235.825H101.644C101.654 236.013 101.708 236.162 101.807 236.273C101.906 236.382 102.027 236.459 102.17 236.506C102.313 236.551 102.455 236.573 102.596 236.573C102.783 236.573 102.94 236.548 103.066 236.499C103.194 236.449 103.292 236.382 103.358 236.295C103.425 236.209 103.458 236.11 103.458 235.999ZM109.923 236.284V231.374H110.612V237.062H109.982L109.923 236.284ZM107.228 235.103V235.025C107.228 234.719 107.265 234.441 107.339 234.192C107.415 233.94 107.523 233.724 107.661 233.544C107.801 233.364 107.968 233.226 108.161 233.129C108.356 233.031 108.573 232.981 108.812 232.981C109.064 232.981 109.284 233.026 109.471 233.115C109.661 233.201 109.822 233.328 109.953 233.496C110.086 233.661 110.191 233.861 110.267 234.096C110.344 234.33 110.397 234.596 110.427 234.892V235.232C110.399 235.526 110.346 235.79 110.267 236.025C110.191 236.259 110.086 236.459 109.953 236.625C109.822 236.79 109.661 236.917 109.471 237.006C109.281 237.092 109.059 237.136 108.805 237.136C108.57 237.136 108.356 237.085 108.161 236.984C107.968 236.883 107.801 236.741 107.661 236.558C107.523 236.375 107.415 236.161 107.339 235.914C107.265 235.664 107.228 235.394 107.228 235.103ZM107.916 235.025V235.103C107.916 235.303 107.936 235.49 107.975 235.666C108.017 235.841 108.082 235.995 108.168 236.129C108.254 236.262 108.364 236.367 108.498 236.443C108.631 236.517 108.79 236.554 108.975 236.554C109.202 236.554 109.389 236.506 109.534 236.41C109.682 236.314 109.801 236.187 109.89 236.029C109.979 235.871 110.048 235.699 110.097 235.514V234.622C110.067 234.486 110.024 234.355 109.967 234.229C109.913 234.101 109.842 233.987 109.753 233.888C109.666 233.787 109.559 233.707 109.431 233.648C109.305 233.589 109.155 233.559 108.983 233.559C108.795 233.559 108.633 233.598 108.498 233.677C108.364 233.754 108.254 233.86 108.168 233.996C108.082 234.129 108.017 234.285 107.975 234.462C107.936 234.638 107.916 234.825 107.916 235.025ZM114.277 236.377V234.314C114.277 234.156 114.245 234.019 114.181 233.903C114.119 233.785 114.026 233.693 113.9 233.629C113.774 233.565 113.618 233.533 113.433 233.533C113.26 233.533 113.109 233.563 112.978 233.622C112.849 233.681 112.748 233.759 112.674 233.855C112.603 233.951 112.567 234.055 112.567 234.166H111.882C111.882 234.023 111.919 233.881 111.993 233.74C112.067 233.6 112.173 233.473 112.311 233.359C112.452 233.243 112.62 233.152 112.815 233.085C113.012 233.016 113.232 232.981 113.474 232.981C113.765 232.981 114.022 233.031 114.244 233.129C114.469 233.228 114.644 233.377 114.77 233.577C114.898 233.775 114.962 234.023 114.962 234.322V236.188C114.962 236.321 114.973 236.463 114.996 236.614C115.02 236.764 115.056 236.894 115.103 237.002V237.062H114.388C114.354 236.983 114.327 236.878 114.307 236.747C114.287 236.614 114.277 236.49 114.277 236.377ZM114.396 234.633L114.403 235.114H113.711C113.516 235.114 113.342 235.13 113.189 235.162C113.036 235.192 112.907 235.237 112.804 235.299C112.7 235.361 112.621 235.439 112.567 235.532C112.512 235.624 112.485 235.731 112.485 235.855C112.485 235.98 112.514 236.095 112.57 236.199C112.627 236.303 112.712 236.385 112.826 236.447C112.942 236.506 113.084 236.536 113.252 236.536C113.462 236.536 113.647 236.491 113.807 236.403C113.968 236.314 114.095 236.205 114.188 236.077C114.285 235.948 114.337 235.824 114.344 235.703L114.636 236.032C114.619 236.136 114.572 236.251 114.496 236.377C114.419 236.502 114.317 236.623 114.188 236.739C114.063 236.853 113.912 236.948 113.737 237.025C113.564 237.099 113.369 237.136 113.152 237.136C112.88 237.136 112.642 237.083 112.437 236.976C112.235 236.87 112.077 236.728 111.963 236.551C111.852 236.37 111.797 236.169 111.797 235.947C111.797 235.732 111.839 235.544 111.922 235.381C112.006 235.215 112.127 235.078 112.285 234.97C112.443 234.859 112.633 234.775 112.856 234.718C113.078 234.661 113.326 234.633 113.6 234.633H114.396ZM117.343 236.647L118.458 233.055H119.191L117.584 237.68C117.547 237.779 117.497 237.885 117.436 237.998C117.376 238.114 117.3 238.224 117.206 238.328C117.112 238.432 116.999 238.515 116.865 238.58C116.735 238.646 116.578 238.68 116.395 238.68C116.341 238.68 116.272 238.672 116.188 238.657C116.104 238.643 116.045 238.63 116.01 238.62L116.006 238.065C116.026 238.067 116.057 238.07 116.099 238.072C116.143 238.077 116.174 238.08 116.192 238.08C116.347 238.08 116.479 238.059 116.588 238.017C116.696 237.977 116.788 237.909 116.862 237.813C116.938 237.719 117.004 237.59 117.058 237.424L117.343 236.647ZM116.525 233.055L117.565 236.166L117.743 236.888L117.251 237.139L115.777 233.055H116.525ZM122.379 235.999C122.379 235.9 122.356 235.809 122.312 235.725C122.27 235.639 122.182 235.561 122.049 235.492C121.918 235.42 121.721 235.358 121.457 235.307C121.235 235.26 121.033 235.204 120.853 235.14C120.675 235.076 120.524 234.998 120.398 234.907C120.274 234.815 120.179 234.708 120.113 234.585C120.046 234.461 120.013 234.317 120.013 234.151C120.013 233.993 120.047 233.844 120.116 233.703C120.188 233.563 120.288 233.438 120.416 233.329C120.547 233.221 120.704 233.136 120.886 233.074C121.069 233.012 121.273 232.981 121.497 232.981C121.818 232.981 122.092 233.038 122.319 233.152C122.546 233.265 122.721 233.417 122.841 233.607C122.962 233.795 123.023 234.003 123.023 234.233H122.338C122.338 234.122 122.305 234.014 122.238 233.911C122.174 233.805 122.079 233.717 121.953 233.648C121.829 233.579 121.678 233.544 121.497 233.544C121.307 233.544 121.153 233.574 121.035 233.633C120.919 233.69 120.833 233.763 120.779 233.851C120.727 233.94 120.701 234.034 120.701 234.133C120.701 234.207 120.714 234.274 120.738 234.333C120.766 234.39 120.812 234.443 120.879 234.492C120.946 234.539 121.04 234.583 121.16 234.625C121.281 234.667 121.436 234.709 121.623 234.751C121.952 234.825 122.222 234.914 122.434 235.018C122.646 235.121 122.804 235.249 122.908 235.399C123.012 235.55 123.064 235.732 123.064 235.947C123.064 236.122 123.027 236.283 122.953 236.428C122.881 236.574 122.776 236.7 122.638 236.806C122.502 236.91 122.339 236.991 122.149 237.05C121.961 237.107 121.75 237.136 121.516 237.136C121.163 237.136 120.864 237.073 120.62 236.947C120.376 236.821 120.19 236.658 120.065 236.458C119.939 236.258 119.876 236.047 119.876 235.825H120.564C120.574 236.013 120.629 236.162 120.727 236.273C120.826 236.382 120.947 236.459 121.09 236.506C121.233 236.551 121.375 236.573 121.516 236.573C121.704 236.573 121.86 236.548 121.986 236.499C122.115 236.449 122.212 236.382 122.279 236.295C122.345 236.209 122.379 236.11 122.379 235.999ZM124.211 236.699C124.211 236.583 124.247 236.485 124.319 236.406C124.393 236.325 124.499 236.284 124.637 236.284C124.775 236.284 124.88 236.325 124.952 236.406C125.026 236.485 125.063 236.583 125.063 236.699C125.063 236.812 125.026 236.909 124.952 236.988C124.88 237.067 124.775 237.106 124.637 237.106C124.499 237.106 124.393 237.067 124.319 236.988C124.247 236.909 124.211 236.812 124.211 236.699Z" fill="black"/>
<path d="M102.843 176.777V181.043H85.7816V176.777H82.938V181.043C82.938 182.607 84.2176 183.886 85.7816 183.886H102.843C104.407 183.886 105.687 182.607 105.687 181.043V176.777H102.843ZM87.2034 168.246L89.2081 170.251L92.8906 166.583V178.199H95.7342V166.583L99.4167 170.251L101.421 168.246L94.3124 161.137L87.2034 168.246Z" fill="#00C7BE"/>
<g clip-path="url(#clip1_268_8634)">
<rect x="17.5352" y="352.607" width="151.659" height="19.4787" rx="9.73934" fill="#00C7BE"/>
<path d="M88.1543 362.81H88.9643C88.9384 363.119 88.852 363.394 88.7051 363.636C88.5582 363.876 88.352 364.065 88.0863 364.203C87.8206 364.342 87.4978 364.411 87.1176 364.411C86.826 364.411 86.5636 364.359 86.3303 364.255C86.0971 364.149 85.8973 364 85.731 363.808C85.5647 363.614 85.4372 363.379 85.3487 363.105C85.2623 362.831 85.2191 362.524 85.2191 362.185V361.793C85.2191 361.454 85.2634 361.147 85.3519 360.873C85.4426 360.599 85.5722 360.364 85.7407 360.17C85.9092 359.973 86.1111 359.823 86.3465 359.719C86.5841 359.616 86.8509 359.564 87.1468 359.564C87.5226 359.564 87.8401 359.633 88.0993 359.771C88.3585 359.91 88.5593 360.101 88.7019 360.345C88.8466 360.589 88.9351 360.869 88.9675 361.184H88.1576C88.136 360.981 88.0885 360.807 88.015 360.662C87.9438 360.518 87.8379 360.407 87.6975 360.332C87.5571 360.254 87.3736 360.215 87.1468 360.215C86.961 360.215 86.799 360.25 86.6608 360.319C86.5226 360.388 86.407 360.489 86.3142 360.623C86.2213 360.757 86.1511 360.923 86.1036 361.119C86.0582 361.313 86.0355 361.536 86.0355 361.786V362.185C86.0355 362.423 86.056 362.639 86.0971 362.833C86.1403 363.025 86.2051 363.19 86.2915 363.329C86.38 363.467 86.4923 363.574 86.6284 363.649C86.7645 363.725 86.9275 363.763 87.1176 363.763C87.3487 363.763 87.5355 363.726 87.6781 363.653C87.8228 363.579 87.9319 363.472 88.0053 363.332C88.0809 363.189 88.1306 363.015 88.1543 362.81ZM90.5085 359.37V364.346H89.7244V359.37H90.5085ZM91.2621 362.632V362.558C91.2621 362.305 91.2988 362.07 91.3723 361.854C91.4457 361.636 91.5515 361.447 91.6898 361.288C91.8302 361.126 92.0008 361 92.2017 360.912C92.4047 360.821 92.6336 360.776 92.8885 360.776C93.1455 360.776 93.3745 360.821 93.5753 360.912C93.7784 361 93.9501 361.126 94.0905 361.288C94.2308 361.447 94.3378 361.636 94.4112 361.854C94.4846 362.07 94.5213 362.305 94.5213 362.558V362.632C94.5213 362.885 94.4846 363.119 94.4112 363.335C94.3378 363.551 94.2308 363.74 94.0905 363.902C93.9501 364.062 93.7794 364.187 93.5786 364.278C93.3777 364.366 93.1498 364.411 92.895 364.411C92.638 364.411 92.4079 364.366 92.2049 364.278C92.004 364.187 91.8334 364.062 91.693 363.902C91.5526 363.74 91.4457 363.551 91.3723 363.335C91.2988 363.119 91.2621 362.885 91.2621 362.632ZM92.0429 362.558V362.632C92.0429 362.79 92.0591 362.939 92.0915 363.079C92.1239 363.22 92.1747 363.343 92.2438 363.448C92.3129 363.554 92.4015 363.637 92.5094 363.698C92.6174 363.758 92.7459 363.789 92.895 363.789C93.0397 363.789 93.165 363.758 93.2708 363.698C93.3788 363.637 93.4673 363.554 93.5365 363.448C93.6056 363.343 93.6563 363.22 93.6887 363.079C93.7233 362.939 93.7406 362.79 93.7406 362.632V362.558C93.7406 362.402 93.7233 362.255 93.6887 362.117C93.6563 361.977 93.6045 361.852 93.5332 361.744C93.4641 361.636 93.3755 361.552 93.2676 361.492C93.1617 361.429 93.0354 361.398 92.8885 361.398C92.7416 361.398 92.6142 361.429 92.5062 361.492C92.4004 361.552 92.3129 361.636 92.2438 361.744C92.1747 361.852 92.1239 361.977 92.0915 362.117C92.0591 362.255 92.0429 362.402 92.0429 362.558ZM97.1897 363.397C97.1897 363.319 97.1703 363.249 97.1314 363.186C97.0925 363.121 97.018 363.063 96.9079 363.011C96.7999 362.959 96.64 362.912 96.4284 362.869C96.2426 362.828 96.072 362.779 95.9165 362.723C95.7631 362.664 95.6314 362.594 95.5212 362.512C95.4111 362.43 95.3258 362.333 95.2653 362.221C95.2048 362.108 95.1746 361.979 95.1746 361.832C95.1746 361.689 95.2059 361.554 95.2685 361.427C95.3312 361.299 95.4208 361.187 95.5374 361.09C95.6541 360.993 95.7955 360.916 95.9618 360.86C96.1303 360.804 96.3182 360.776 96.5256 360.776C96.8193 360.776 97.0709 360.825 97.2804 360.925C97.4921 361.022 97.6541 361.155 97.7664 361.323C97.8787 361.489 97.9349 361.677 97.9349 361.887H97.1541C97.1541 361.794 97.1303 361.708 97.0828 361.628C97.0375 361.546 96.9683 361.48 96.8755 361.43C96.7826 361.378 96.666 361.352 96.5256 361.352C96.3917 361.352 96.2804 361.374 96.1919 361.417C96.1055 361.458 96.0407 361.512 95.9975 361.579C95.9564 361.646 95.9359 361.72 95.9359 361.799C95.9359 361.858 95.9467 361.911 95.9683 361.958C95.9921 362.004 96.031 362.046 96.085 362.085C96.139 362.121 96.2124 362.156 96.3053 362.188C96.4003 362.221 96.5191 362.252 96.6616 362.282C96.9295 362.338 97.1595 362.411 97.3517 362.499C97.5461 362.586 97.6951 362.698 97.7988 362.836C97.9025 362.972 97.9543 363.145 97.9543 363.355C97.9543 363.51 97.9208 363.653 97.8539 363.782C97.7891 363.91 97.6941 364.021 97.5688 364.116C97.4435 364.209 97.2934 364.281 97.1184 364.333C96.9457 364.385 96.7513 364.411 96.5353 364.411C96.2178 364.411 95.9489 364.355 95.7286 364.242C95.5083 364.128 95.3409 363.982 95.2264 363.805C95.1141 363.626 95.0579 363.44 95.0579 363.248H95.8128C95.8215 363.392 95.8614 363.508 95.9327 363.594C96.0061 363.678 96.0968 363.74 96.2048 363.779C96.315 363.816 96.4284 363.834 96.545 363.834C96.6854 363.834 96.8031 363.816 96.8981 363.779C96.9932 363.74 97.0655 363.688 97.1152 363.623C97.1649 363.556 97.1897 363.481 97.1897 363.397ZM100.231 364.411C99.9715 364.411 99.7371 364.369 99.5276 364.284C99.3203 364.198 99.1432 364.078 98.9963 363.925C98.8516 363.771 98.7404 363.591 98.6626 363.384C98.5849 363.176 98.546 362.953 98.546 362.713V362.583C98.546 362.309 98.5859 362.061 98.6659 361.838C98.7458 361.616 98.857 361.426 98.9996 361.268C99.1421 361.108 99.3106 360.986 99.505 360.902C99.6994 360.818 99.9099 360.776 100.137 360.776C100.387 360.776 100.606 360.818 100.794 360.902C100.982 360.986 101.138 361.105 101.261 361.258C101.386 361.41 101.479 361.59 101.54 361.799C101.602 362.009 101.633 362.24 101.633 362.493V362.826H98.925V362.266H100.862V362.204C100.858 362.064 100.83 361.932 100.778 361.809C100.729 361.686 100.652 361.587 100.548 361.511C100.445 361.435 100.306 361.398 100.133 361.398C100.004 361.398 99.8883 361.426 99.7868 361.482C99.6875 361.536 99.6043 361.615 99.5374 361.718C99.4704 361.822 99.4186 361.947 99.3819 362.094C99.3473 362.239 99.33 362.402 99.33 362.583V362.713C99.33 362.866 99.3505 363.009 99.3916 363.141C99.4348 363.27 99.4974 363.384 99.5795 363.481C99.6616 363.578 99.7609 363.655 99.8775 363.711C99.9942 363.765 100.127 363.792 100.276 363.792C100.464 363.792 100.631 363.754 100.778 363.678C100.925 363.603 101.052 363.496 101.16 363.358L101.572 363.756C101.496 363.866 101.398 363.972 101.277 364.074C101.156 364.173 101.008 364.254 100.833 364.317C100.66 364.379 100.46 364.411 100.231 364.411Z" fill="white"/>
</g>
<path d="M0 20.853H184.834V43.6018H0V20.853Z" fill="white"/>
<path d="M184.834 43.6018V43.3649H0V43.6018V43.8388H184.834V43.6018Z" fill="#D8DBD9"/>
<g clip-path="url(#clip2_268_8634)">
<path d="M14.6917 29.5782L14.0235 28.9099L11.3742 31.5592L8.72489 28.9099L8.05664 29.5782L10.7059 32.2274L8.05664 34.8767L8.72489 35.545L11.3742 32.8957L14.0235 35.545L14.6917 34.8767L12.0424 32.2274L14.6917 29.5782Z" fill="black"/>
</g>
<path d="M27.5108 35.2274H25.9631L25.9733 34.4281H27.5108C28.0403 34.4281 28.4815 34.3178 28.8345 34.0972C29.1875 33.8732 29.4522 33.5609 29.6287 33.1604C29.8086 32.7565 29.8985 32.2848 29.8985 31.7451V31.292C29.8985 30.8678 29.8476 30.491 29.7458 30.1618C29.644 29.8292 29.4946 29.5492 29.2978 29.3218C29.1009 29.091 28.8599 28.9162 28.5748 28.7974C28.2931 28.6786 27.969 28.6192 27.6025 28.6192H25.9326V27.8148H27.6025C28.0878 27.8148 28.5307 27.8963 28.9312 28.0592C29.3317 28.2187 29.6762 28.4512 29.9647 28.7566C30.2566 29.0587 30.4806 29.4253 30.6367 29.8563C30.7929 30.284 30.8709 30.7659 30.8709 31.3022V31.7451C30.8709 32.2814 30.7929 32.765 30.6367 33.1961C30.4806 33.6237 30.2549 33.9886 29.9596 34.2907C29.6677 34.5927 29.3148 34.8252 28.9007 34.9881C28.49 35.1477 28.0267 35.2274 27.5108 35.2274ZM26.4875 27.8148V35.2274H25.5049V27.8148H26.4875ZM31.9553 32.5342V32.4171C31.9553 32.02 32.013 31.6518 32.1284 31.3124C32.2438 30.9696 32.4101 30.6726 32.6274 30.4214C32.8446 30.1669 33.1076 29.97 33.4165 29.8309C33.7253 29.6883 34.0715 29.617 34.4551 29.617C34.842 29.617 35.1899 29.6883 35.4987 29.8309C35.811 29.97 36.0757 30.1669 36.2929 30.4214C36.5135 30.6726 36.6816 30.9696 36.7969 31.3124C36.9123 31.6518 36.97 32.02 36.97 32.4171V32.5342C36.97 32.9313 36.9123 33.2996 36.7969 33.639C36.6816 33.9784 36.5135 34.2754 36.2929 34.5299C36.0757 34.7811 35.8127 34.978 35.5038 35.1205C35.1983 35.2597 34.8522 35.3292 34.4652 35.3292C34.0783 35.3292 33.7304 35.2597 33.4216 35.1205C33.1127 34.978 32.848 34.7811 32.6274 34.5299C32.4101 34.2754 32.2438 33.9784 32.1284 33.639C32.013 33.2996 31.9553 32.9313 31.9553 32.5342ZM32.8972 32.4171V32.5342C32.8972 32.8092 32.9294 33.0688 32.9939 33.3132C33.0584 33.5541 33.1551 33.768 33.2841 33.9546C33.4165 34.1413 33.5811 34.289 33.7779 34.3976C33.9748 34.5028 34.2039 34.5554 34.4652 34.5554C34.7232 34.5554 34.9489 34.5028 35.1423 34.3976C35.3392 34.289 35.5021 34.1413 35.6311 33.9546C35.7601 33.768 35.8568 33.5541 35.9213 33.3132C35.9892 33.0688 36.0231 32.8092 36.0231 32.5342V32.4171C36.0231 32.1456 35.9892 31.8894 35.9213 31.6484C35.8568 31.404 35.7584 31.1885 35.626 31.0018C35.497 30.8117 35.3341 30.6624 35.1373 30.5538C34.9438 30.4452 34.7164 30.3909 34.4551 30.3909C34.1971 30.3909 33.9697 30.4452 33.7728 30.5538C33.5794 30.6624 33.4165 30.8117 33.2841 31.0018C33.1551 31.1885 33.0584 31.404 32.9939 31.6484C32.9294 31.8894 32.8972 32.1456 32.8972 32.4171ZM40.3556 34.5554C40.5796 34.5554 40.7867 34.5096 40.9767 34.4179C41.1668 34.3263 41.3229 34.2007 41.4451 34.0412C41.5673 33.8783 41.6369 33.6933 41.6538 33.4863H42.5499C42.5329 33.8121 42.4226 34.1159 42.219 34.3976C42.0187 34.6759 41.7557 34.9016 41.4298 35.0747C41.104 35.2444 40.7459 35.3292 40.3556 35.3292C39.9415 35.3292 39.5801 35.2563 39.2712 35.1103C38.9658 34.9644 38.7112 34.7641 38.5076 34.5096C38.3073 34.255 38.1563 33.9631 38.0544 33.6339C37.956 33.3013 37.9068 32.95 37.9068 32.5801V32.3662C37.9068 31.9963 37.956 31.6467 38.0544 31.3175C38.1563 30.9848 38.3073 30.6913 38.5076 30.4367C38.7112 30.1822 38.9658 29.9819 39.2712 29.836C39.5801 29.69 39.9415 29.617 40.3556 29.617C40.7867 29.617 41.1634 29.7053 41.4858 29.8818C41.8083 30.0549 42.0611 30.2925 42.2444 30.5945C42.4311 30.8932 42.5329 31.2326 42.5499 31.6127H41.6538C41.6369 31.3853 41.5724 31.18 41.4604 30.9967C41.3518 30.8134 41.2024 30.6675 41.0124 30.5589C40.8257 30.4469 40.6068 30.3909 40.3556 30.3909C40.0671 30.3909 39.8244 30.4486 39.6276 30.564C39.4341 30.676 39.2797 30.8287 39.1643 31.0222C39.0523 31.2122 38.9708 31.4244 38.9199 31.6586C38.8724 31.8894 38.8487 32.1252 38.8487 32.3662V32.5801C38.8487 32.821 38.8724 33.0586 38.9199 33.2928C38.9674 33.527 39.0472 33.7391 39.1592 33.9292C39.2746 34.1193 39.429 34.272 39.6225 34.3874C39.8194 34.4994 40.0637 34.5554 40.3556 34.5554ZM46.9791 33.9546V29.7189H47.9261V35.2274H47.0249L46.9791 33.9546ZM47.1573 32.7939L47.5493 32.7837C47.5493 33.1503 47.5103 33.4897 47.4322 33.8019C47.3576 34.1108 47.2354 34.3789 47.0657 34.6063C46.896 34.8337 46.6737 35.0119 46.3987 35.1409C46.1238 35.2664 45.7895 35.3292 45.3958 35.3292C45.1277 35.3292 44.8816 35.2902 44.6576 35.2121C44.437 35.1341 44.2469 35.0136 44.0874 34.8507C43.9279 34.6878 43.804 34.4756 43.7157 34.2143C43.6309 33.9529 43.5885 33.639 43.5885 33.2724V29.7189H44.5303V33.2826C44.5303 33.5304 44.5575 33.7357 44.6118 33.8986C44.6695 34.0582 44.7458 34.1854 44.8409 34.2805C44.9393 34.3721 45.0479 34.4366 45.1667 34.4739C45.2889 34.5113 45.4145 34.5299 45.5434 34.5299C45.9439 34.5299 46.2613 34.4536 46.4955 34.3008C46.7297 34.1447 46.8977 33.936 46.9995 33.6746C47.1047 33.4099 47.1573 33.1163 47.1573 32.7939ZM50.2985 30.8134V35.2274H49.3516V29.7189H50.2476L50.2985 30.8134ZM50.105 32.2644L49.6672 32.2491C49.6706 31.8724 49.7198 31.5245 49.8149 31.2055C49.9099 30.883 50.0507 30.603 50.2374 30.3654C50.4241 30.1278 50.6566 29.9446 50.9349 29.8156C51.2132 29.6832 51.5356 29.617 51.9022 29.617C52.1601 29.617 52.3977 29.6544 52.6149 29.729C52.8322 29.8003 53.0205 29.914 53.1801 30.0701C53.3396 30.2263 53.4635 30.4265 53.5517 30.6709C53.64 30.9153 53.6841 31.2106 53.6841 31.5567V35.2274H52.7422V31.6026C52.7422 31.3141 52.693 31.0833 52.5946 30.9102C52.4995 30.7371 52.3638 30.6115 52.1873 30.5334C52.0108 30.452 51.8038 30.4113 51.5662 30.4113C51.2879 30.4113 51.0554 30.4605 50.8687 30.5589C50.682 30.6573 50.5327 30.7931 50.4207 30.9662C50.3087 31.1393 50.2272 31.3378 50.1763 31.5618C50.1288 31.7825 50.105 32.0166 50.105 32.2644ZM53.6739 31.7451L53.0426 31.9386C53.046 31.6365 53.0952 31.3463 53.1902 31.068C53.2887 30.7897 53.4295 30.5419 53.6128 30.3247C53.7995 30.1075 54.0286 29.9361 54.3001 29.8105C54.5716 29.6815 54.8822 29.617 55.2318 29.617C55.527 29.617 55.7884 29.6561 56.0158 29.7341C56.2466 29.8122 56.44 29.9327 56.5962 30.0956C56.7557 30.2551 56.8762 30.4605 56.9576 30.7116C57.0391 30.9628 57.0798 31.2615 57.0798 31.6077V35.2274H56.1329V31.5975C56.1329 31.2886 56.0837 31.0493 55.9852 30.8796C55.8902 30.7065 55.7544 30.586 55.578 30.5182C55.4049 30.4469 55.1978 30.4113 54.9568 30.4113C54.7498 30.4113 54.5665 30.4469 54.407 30.5182C54.2475 30.5894 54.1134 30.6879 54.0048 30.8134C53.8962 30.9356 53.813 31.0765 53.7554 31.236C53.701 31.3955 53.6739 31.5652 53.6739 31.7451ZM60.7912 35.3292C60.4077 35.3292 60.0598 35.2648 59.7476 35.1358C59.4387 35.0034 59.1723 34.8184 58.9483 34.5808C58.7276 34.3433 58.5579 34.0616 58.4391 33.7357C58.3204 33.4099 58.261 33.0535 58.261 32.6666V32.4528C58.261 32.0048 58.3271 31.606 58.4595 31.2564C58.5919 30.9034 58.7718 30.6047 58.9992 30.3603C59.2266 30.116 59.4845 29.931 59.773 29.8054C60.0615 29.6798 60.3602 29.617 60.669 29.617C61.0628 29.617 61.4022 29.6849 61.6873 29.8207C61.9758 29.9564 62.2116 30.1465 62.3949 30.3909C62.5782 30.6319 62.714 30.917 62.8022 31.2462C62.8905 31.572 62.9346 31.9284 62.9346 32.3153V32.7379H58.821V31.9691H61.9927V31.8978C61.9792 31.6535 61.9282 31.4159 61.84 31.1851C61.7551 30.9543 61.6194 30.7642 61.4327 30.6149C61.246 30.4656 60.9915 30.3909 60.669 30.3909C60.4552 30.3909 60.2584 30.4367 60.0785 30.5283C59.8986 30.6166 59.7442 30.749 59.6152 30.9255C59.4862 31.1019 59.3861 31.3175 59.3148 31.572C59.2435 31.8266 59.2079 32.1202 59.2079 32.4528V32.6666C59.2079 32.9279 59.2435 33.174 59.3148 33.4048C59.3895 33.6322 59.4964 33.8325 59.6356 34.0056C59.7781 34.1787 59.9495 34.3144 60.1498 34.4128C60.3534 34.5113 60.5842 34.5605 60.8421 34.5605C61.1748 34.5605 61.4565 34.4926 61.6873 34.3568C61.9181 34.2211 62.12 34.0395 62.2931 33.8121L62.8633 34.2652C62.7445 34.4451 62.5935 34.6165 62.4102 34.7794C62.2269 34.9423 62.0012 35.0747 61.7331 35.1765C61.4683 35.2783 61.1544 35.3292 60.7912 35.3292ZM64.9761 30.8949V35.2274H64.0342V29.7189H64.9252L64.9761 30.8949ZM64.7521 32.2644L64.3601 32.2491C64.3635 31.8724 64.4195 31.5245 64.5281 31.2055C64.6367 30.883 64.7894 30.603 64.9863 30.3654C65.1831 30.1278 65.4173 29.9446 65.6889 29.8156C65.9638 29.6832 66.2675 29.617 66.6002 29.617C66.8717 29.617 67.1161 29.6544 67.3333 29.729C67.5505 29.8003 67.7355 29.9157 67.8882 30.0752C68.0443 30.2348 68.1631 30.4418 68.2446 30.6964C68.326 30.9475 68.3668 31.2547 68.3668 31.6178V35.2274H67.4198V31.6077C67.4198 31.3192 67.3774 31.0884 67.2925 30.9153C67.2077 30.7388 67.0838 30.6115 66.9209 30.5334C66.758 30.452 66.5577 30.4113 66.3201 30.4113C66.086 30.4113 65.8721 30.4605 65.6787 30.5589C65.4886 30.6573 65.324 30.7931 65.1848 30.9662C65.0491 31.1393 64.9422 31.3378 64.8641 31.5618C64.7894 31.7825 64.7521 32.0166 64.7521 32.2644ZM72.1036 29.7189V30.4418H69.1253V29.7189H72.1036ZM70.1334 28.3799H71.0752V33.863C71.0752 34.0497 71.1041 34.1905 71.1618 34.2856C71.2195 34.3806 71.2941 34.4434 71.3858 34.4739C71.4774 34.5045 71.5758 34.5198 71.6811 34.5198C71.7591 34.5198 71.8406 34.513 71.9254 34.4994C72.0137 34.4824 72.0799 34.4688 72.124 34.4587L72.1291 35.2274C72.0544 35.2512 71.956 35.2732 71.8338 35.2936C71.715 35.3174 71.5708 35.3292 71.401 35.3292C71.1703 35.3292 70.9581 35.2834 70.7647 35.1918C70.5712 35.1001 70.4168 34.9474 70.3014 34.7336C70.1894 34.5164 70.1334 34.2245 70.1334 33.8579V28.3799ZM78.33 34.1023L80.5141 27.8148H81.5781L78.834 35.2274H78.0755L78.33 34.1023ZM76.2885 27.8148L78.4522 34.1023L78.722 35.2274H77.9635L75.2245 27.8148H76.2885ZM84.4953 35.3292C84.1118 35.3292 83.7639 35.2648 83.4516 35.1358C83.1428 35.0034 82.8764 34.8184 82.6523 34.5808C82.4317 34.3433 82.262 34.0616 82.1432 33.7357C82.0244 33.4099 81.965 33.0535 81.965 32.6666V32.4528C81.965 32.0048 82.0312 31.606 82.1636 31.2564C82.296 30.9034 82.4759 30.6047 82.7033 30.3603C82.9307 30.116 83.1886 29.931 83.4771 29.8054C83.7656 29.6798 84.0643 29.617 84.3731 29.617C84.7668 29.617 85.1062 29.6849 85.3913 29.8207C85.6798 29.9564 85.9157 30.1465 86.099 30.3909C86.2823 30.6319 86.418 30.917 86.5063 31.2462C86.5945 31.572 86.6387 31.9284 86.6387 32.3153V32.7379H82.5251V31.9691H85.6968V31.8978C85.6832 31.6535 85.6323 31.4159 85.5441 31.1851C85.4592 30.9543 85.3235 30.7642 85.1368 30.6149C84.9501 30.4656 84.6956 30.3909 84.3731 30.3909C84.1593 30.3909 83.9624 30.4367 83.7826 30.5283C83.6027 30.6166 83.4483 30.749 83.3193 30.9255C83.1903 31.1019 83.0902 31.3175 83.0189 31.572C82.9476 31.8266 82.912 32.1202 82.912 32.4528V32.6666C82.912 32.9279 82.9476 33.174 83.0189 33.4048C83.0936 33.6322 83.2005 33.8325 83.3396 34.0056C83.4822 34.1787 83.6536 34.3144 83.8538 34.4128C84.0575 34.5113 84.2883 34.5605 84.5462 34.5605C84.8788 34.5605 85.1606 34.4926 85.3913 34.3568C85.6221 34.2211 85.8241 34.0395 85.9972 33.8121L86.5674 34.2652C86.4486 34.4451 86.2976 34.6165 86.1143 34.7794C85.931 34.9423 85.7053 35.0747 85.4372 35.1765C85.1724 35.2783 84.8585 35.3292 84.4953 35.3292ZM88.6802 30.5843V35.2274H87.7383V29.7189H88.6547L88.6802 30.5843ZM90.401 29.6883L90.3959 30.564C90.3178 30.547 90.2431 30.5368 90.1719 30.5334C90.104 30.5266 90.0259 30.5233 89.9377 30.5233C89.7205 30.5233 89.5287 30.5572 89.3624 30.6251C89.1961 30.693 89.0552 30.788 88.9398 30.9102C88.8244 31.0324 88.7328 31.1783 88.6649 31.348C88.6004 31.5143 88.558 31.6976 88.5376 31.8978L88.2729 32.0506C88.2729 31.718 88.3051 31.4057 88.3696 31.1138C88.4375 30.8219 88.541 30.564 88.6802 30.34C88.8193 30.1126 88.9958 29.9361 89.2097 29.8105C89.4269 29.6815 89.6848 29.617 89.9835 29.617C90.0514 29.617 90.1294 29.6255 90.2177 29.6425C90.3059 29.6561 90.367 29.6713 90.401 29.6883ZM92.2949 29.7189V35.2274H91.3479V29.7189H92.2949ZM91.2766 28.2577C91.2766 28.105 91.3225 27.976 91.4141 27.8708C91.5091 27.7656 91.6483 27.713 91.8316 27.713C92.0115 27.713 92.1489 27.7656 92.2439 27.8708C92.3424 27.976 92.3916 28.105 92.3916 28.2577C92.3916 28.4037 92.3424 28.5292 92.2439 28.6345C92.1489 28.7363 92.0115 28.7872 91.8316 28.7872C91.6483 28.7872 91.5091 28.7363 91.4141 28.6345C91.3225 28.5292 91.2766 28.4037 91.2766 28.2577ZM95.0644 35.2274H94.1226V29.2403C94.1226 28.8228 94.204 28.4699 94.3669 28.1814C94.5298 27.8929 94.7623 27.6739 95.0644 27.5246C95.3665 27.3753 95.7246 27.3006 96.1386 27.3006C96.383 27.3006 96.6223 27.3311 96.8565 27.3922C97.0907 27.4499 97.3316 27.5229 97.5794 27.6112L97.4216 28.4054C97.2655 28.3443 97.0839 28.2866 96.8768 28.2323C96.6732 28.1746 96.4492 28.1457 96.2048 28.1457C95.8009 28.1457 95.509 28.2374 95.3291 28.4206C95.1527 28.6005 95.0644 28.8737 95.0644 29.2403V35.2274ZM96.1895 29.7189V30.4418H93.252V29.7189H96.1895ZM98.0427 29.7189V35.2274H97.1008V29.7189H98.0427ZM101.795 34.5554C102.019 34.5554 102.226 34.5096 102.416 34.4179C102.606 34.3263 102.762 34.2007 102.884 34.0412C103.006 33.8783 103.076 33.6933 103.093 33.4863H103.989C103.972 33.8121 103.862 34.1159 103.658 34.3976C103.458 34.6759 103.195 34.9016 102.869 35.0747C102.543 35.2444 102.185 35.3292 101.795 35.3292C101.381 35.3292 101.019 35.2563 100.71 35.1103C100.405 34.9644 100.15 34.7641 99.9468 34.5096C99.7465 34.255 99.5955 33.9631 99.4936 33.6339C99.3952 33.3013 99.346 32.95 99.346 32.5801V32.3662C99.346 31.9963 99.3952 31.6467 99.4936 31.3175C99.5955 30.9848 99.7465 30.6913 99.9468 30.4367C100.15 30.1822 100.405 29.9819 100.71 29.836C101.019 29.69 101.381 29.617 101.795 29.617C102.226 29.617 102.603 29.7053 102.925 29.8818C103.247 30.0549 103.5 30.2925 103.684 30.5945C103.87 30.8932 103.972 31.2326 103.989 31.6127H103.093C103.076 31.3853 103.012 31.18 102.9 30.9967C102.791 30.8134 102.642 30.6675 102.452 30.5589C102.265 30.4469 102.046 30.3909 101.795 30.3909C101.506 30.3909 101.264 30.4486 101.067 30.564C100.873 30.676 100.719 30.8287 100.604 31.0222C100.492 31.2122 100.41 31.4244 100.359 31.6586C100.312 31.8894 100.288 32.1252 100.288 32.3662V32.5801C100.288 32.821 100.312 33.0586 100.359 33.2928C100.407 33.527 100.486 33.7391 100.598 33.9292C100.714 34.1193 100.868 34.272 101.062 34.3874C101.259 34.4994 101.503 34.5554 101.795 34.5554ZM108.296 34.2856V31.4498C108.296 31.2326 108.252 31.0442 108.164 30.8847C108.079 30.7218 107.95 30.5962 107.777 30.508C107.604 30.4197 107.39 30.3756 107.135 30.3756C106.898 30.3756 106.689 30.4163 106.509 30.4978C106.333 30.5793 106.194 30.6862 106.092 30.8185C105.993 30.9509 105.944 31.0935 105.944 31.2462H105.002C105.002 31.0493 105.053 30.8542 105.155 30.6607C105.257 30.4673 105.403 30.2925 105.593 30.1363C105.786 29.9768 106.017 29.8512 106.285 29.7596C106.557 29.6646 106.859 29.617 107.191 29.617C107.592 29.617 107.945 29.6849 108.25 29.8207C108.559 29.9564 108.8 30.1618 108.973 30.4367C109.15 30.7082 109.238 31.0493 109.238 31.46V34.0259C109.238 34.2092 109.253 34.4044 109.284 34.6114C109.318 34.8184 109.367 34.9966 109.431 35.146V35.2274H108.449C108.401 35.1188 108.364 34.9746 108.337 34.7947C108.31 34.6114 108.296 34.4417 108.296 34.2856ZM108.459 31.8877L108.469 32.5495H107.517C107.249 32.5495 107.01 32.5716 106.799 32.6157C106.589 32.6564 106.412 32.7192 106.27 32.8041C106.127 32.8889 106.019 32.9958 105.944 33.1248C105.869 33.2504 105.832 33.398 105.832 33.5677C105.832 33.7408 105.871 33.8986 105.949 34.0412C106.027 34.1837 106.144 34.2974 106.3 34.3823C106.46 34.4638 106.655 34.5045 106.886 34.5045C107.174 34.5045 107.429 34.4434 107.65 34.3212C107.87 34.199 108.045 34.0497 108.174 33.8732C108.306 33.6967 108.378 33.5253 108.388 33.359L108.79 33.8121C108.766 33.9546 108.702 34.1125 108.597 34.2856C108.491 34.4587 108.35 34.625 108.174 34.7845C108.001 34.9406 107.794 35.0713 107.553 35.1765C107.315 35.2783 107.047 35.3292 106.748 35.3292C106.375 35.3292 106.048 35.2563 105.766 35.1103C105.488 34.9644 105.27 34.7692 105.114 34.5248C104.961 34.2771 104.885 34.0005 104.885 33.695C104.885 33.3997 104.943 33.1401 105.058 32.9161C105.174 32.6887 105.34 32.5003 105.557 32.351C105.774 32.1982 106.036 32.0828 106.341 32.0048C106.647 31.9267 106.988 31.8877 107.364 31.8877H108.459ZM113.026 29.7189V30.4418H110.047V29.7189H113.026ZM111.056 28.3799H111.997V33.863C111.997 34.0497 112.026 34.1905 112.084 34.2856C112.142 34.3806 112.216 34.4434 112.308 34.4739C112.4 34.5045 112.498 34.5198 112.603 34.5198C112.681 34.5198 112.763 34.513 112.848 34.4994C112.936 34.4824 113.002 34.4688 113.046 34.4587L113.051 35.2274C112.977 35.2512 112.878 35.2732 112.756 35.2936C112.637 35.3174 112.493 35.3292 112.323 35.3292C112.092 35.3292 111.88 35.2834 111.687 35.1918C111.493 35.1001 111.339 34.9474 111.224 34.7336C111.112 34.5164 111.056 34.2245 111.056 33.8579V28.3799ZM115.154 29.7189V35.2274H114.207V29.7189H115.154ZM114.136 28.2577C114.136 28.105 114.181 27.976 114.273 27.8708C114.368 27.7656 114.507 27.713 114.691 27.713C114.87 27.713 115.008 27.7656 115.103 27.8708C115.201 27.976 115.251 28.105 115.251 28.2577C115.251 28.4037 115.201 28.5292 115.103 28.6345C115.008 28.7363 114.87 28.7872 114.691 28.7872C114.507 28.7872 114.368 28.7363 114.273 28.6345C114.181 28.5292 114.136 28.4037 114.136 28.2577ZM116.416 32.5342V32.4171C116.416 32.02 116.474 31.6518 116.59 31.3124C116.705 30.9696 116.871 30.6726 117.088 30.4214C117.306 30.1669 117.569 29.97 117.878 29.8309C118.186 29.6883 118.533 29.617 118.916 29.617C119.303 29.617 119.651 29.6883 119.96 29.8309C120.272 29.97 120.537 30.1669 120.754 30.4214C120.975 30.6726 121.143 30.9696 121.258 31.3124C121.373 31.6518 121.431 32.02 121.431 32.4171V32.5342C121.431 32.9313 121.373 33.2996 121.258 33.639C121.143 33.9784 120.975 34.2754 120.754 34.5299C120.537 34.7811 120.274 34.978 119.965 35.1205C119.659 35.2597 119.313 35.3292 118.926 35.3292C118.539 35.3292 118.192 35.2597 117.883 35.1205C117.574 34.978 117.309 34.7811 117.088 34.5299C116.871 34.2754 116.705 33.9784 116.59 33.639C116.474 33.2996 116.416 32.9313 116.416 32.5342ZM117.358 32.4171V32.5342C117.358 32.8092 117.391 33.0688 117.455 33.3132C117.519 33.5541 117.616 33.768 117.745 33.9546C117.878 34.1413 118.042 34.289 118.239 34.3976C118.436 34.5028 118.665 34.5554 118.926 34.5554C119.184 34.5554 119.41 34.5028 119.603 34.3976C119.8 34.289 119.963 34.1413 120.092 33.9546C120.221 33.768 120.318 33.5541 120.382 33.3132C120.45 33.0688 120.484 32.8092 120.484 32.5342V32.4171C120.484 32.1456 120.45 31.8894 120.382 31.6484C120.318 31.404 120.219 31.1885 120.087 31.0018C119.958 30.8117 119.795 30.6624 119.598 30.5538C119.405 30.4452 119.177 30.3909 118.916 30.3909C118.658 30.3909 118.431 30.4452 118.234 30.5538C118.04 30.6624 117.878 30.8117 117.745 31.0018C117.616 31.1885 117.519 31.404 117.455 31.6484C117.391 31.8894 117.358 32.1456 117.358 32.4171ZM123.554 30.8949V35.2274H122.612V29.7189H123.503L123.554 30.8949ZM123.33 32.2644L122.938 32.2491C122.941 31.8724 122.997 31.5245 123.106 31.2055C123.215 30.883 123.367 30.603 123.564 30.3654C123.761 30.1278 123.995 29.9446 124.267 29.8156C124.542 29.6832 124.846 29.617 125.178 29.617C125.45 29.617 125.694 29.6544 125.911 29.729C126.129 29.8003 126.313 29.9157 126.466 30.0752C126.622 30.2348 126.741 30.4418 126.823 30.6964C126.904 30.9475 126.945 31.2547 126.945 31.6178V35.2274H125.998V31.6077C125.998 31.3192 125.955 31.0884 125.871 30.9153C125.786 30.7388 125.662 30.6115 125.499 30.5334C125.336 30.452 125.136 30.4113 124.898 30.4113C124.664 30.4113 124.45 30.4605 124.257 30.5589C124.067 30.6573 123.902 30.7931 123.763 30.9662C123.627 31.1393 123.52 31.3378 123.442 31.5618C123.367 31.7825 123.33 32.0166 123.33 32.2644Z" fill="#191C1C"/>
<g clip-path="url(#clip3_268_8634)">
<rect width="184.834" height="20.8531" fill="white"/>
<path fill-rule="evenodd" clip-rule="evenodd" d="M151.351 9.47867H151.825C152.087 9.47867 152.299 9.69086 152.299 9.9526V12.7962C152.299 13.058 152.087 13.2701 151.825 13.2701H151.351C151.089 13.2701 150.877 13.058 150.877 12.7962V9.9526C150.877 9.69086 151.089 9.47867 151.351 9.47867Z" fill="#F9F9F9"/>
<path fill-rule="evenodd" clip-rule="evenodd" d="M149.218 10.4265H149.692C149.954 10.4265 150.166 10.6387 150.166 10.9005V12.7962C150.166 13.058 149.954 13.2701 149.692 13.2701H149.218C148.956 13.2701 148.744 13.058 148.744 12.7962V10.9005C148.744 10.6387 148.956 10.4265 149.218 10.4265Z" fill="#F9F9F9"/>
<path fill-rule="evenodd" clip-rule="evenodd" d="M147.085 11.1375H147.559C147.821 11.1375 148.033 11.3496 148.033 11.6114V12.7962C148.033 13.058 147.821 13.2702 147.559 13.2702H147.085C146.824 13.2702 146.611 13.058 146.611 12.7962V11.6114C146.611 11.3496 146.824 11.1375 147.085 11.1375Z" fill="#F9F9F9"/>
<path fill-rule="evenodd" clip-rule="evenodd" d="M153.483 8.53079H153.957C154.219 8.53079 154.431 8.74298 154.431 9.00473V12.7962C154.431 13.0579 154.219 13.2701 153.957 13.2701H153.483C153.221 13.2701 153.009 13.0579 153.009 12.7962V9.00473C153.009 8.74298 153.221 8.53079 153.483 8.53079Z" fill="#3C3C43" fill-opacity="0.18"/>
<path fill-rule="evenodd" clip-rule="evenodd" d="M151.351 9.47867H151.825C152.087 9.47867 152.299 9.69086 152.299 9.9526V12.7962C152.299 13.058 152.087 13.2701 151.825 13.2701H151.351C151.089 13.2701 150.877 13.058 150.877 12.7962V9.9526C150.877 9.69086 151.089 9.47867 151.351 9.47867Z" fill="black"/>
<path fill-rule="evenodd" clip-rule="evenodd" d="M149.218 10.4265H149.692C149.954 10.4265 150.166 10.6387 150.166 10.9005V12.7962C150.166 13.058 149.954 13.2701 149.692 13.2701H149.218C148.956 13.2701 148.744 13.058 148.744 12.7962V10.9005C148.744 10.6387 148.956 10.4265 149.218 10.4265Z" fill="black"/>
<path fill-rule="evenodd" clip-rule="evenodd" d="M147.085 11.1375H147.559C147.821 11.1375 148.033 11.3496 148.033 11.6114V12.7962C148.033 13.058 147.821 13.2702 147.559 13.2702H147.085C146.824 13.2702 146.611 13.058 146.611 12.7962V11.6114C146.611 11.3496 146.824 11.1375 147.085 11.1375Z" fill="black"/>
<path d="M160.893 11.8197C161.196 11.8197 161.49 11.8993 161.75 12.0512L161.855 12.1127C161.934 12.1594 161.948 12.2686 161.883 12.3337L160.985 13.2289C160.93 13.2839 160.841 13.2839 160.786 13.2289L159.894 12.3395C159.829 12.2746 159.842 12.166 159.921 12.119L160.025 12.0572C160.287 11.9015 160.585 11.8197 160.893 11.8197Z" fill="black"/>
<path d="M160.892 10.1753C161.646 10.1753 162.37 10.4254 162.96 10.8886L163.043 10.9541C163.11 11.0062 163.116 11.1046 163.056 11.1642L162.52 11.6986C162.47 11.7481 162.392 11.7538 162.336 11.712L162.27 11.6634C161.872 11.3674 161.392 11.2086 160.892 11.2086C160.39 11.2086 159.907 11.3694 159.507 11.6688L159.442 11.7178C159.386 11.7599 159.307 11.7544 159.257 11.7048L158.722 11.1706C158.662 11.111 158.668 11.013 158.734 10.9607L158.817 10.8952C159.408 10.4278 160.135 10.1753 160.892 10.1753Z" fill="black"/>
<path d="M160.892 8.53079C162.089 8.53079 163.233 8.95286 164.139 9.7265L164.216 9.79253C164.278 9.8459 164.282 9.94102 164.224 9.99903L163.69 10.5317C163.638 10.5833 163.555 10.5869 163.499 10.54L163.433 10.4847C162.72 9.88848 161.826 9.56414 160.892 9.56414C159.955 9.56414 159.058 9.89071 158.344 10.4907L158.278 10.5463C158.222 10.5934 158.139 10.5899 158.087 10.5382L157.553 10.0056C157.495 9.94763 157.499 9.85268 157.561 9.79926L157.638 9.7332C158.545 8.95538 159.692 8.53079 160.892 8.53079Z" fill="black"/>
<path d="M177.891 9.95261C178.153 9.95261 178.365 10.1648 178.365 10.4265V11.3744C178.365 11.6362 178.153 11.8483 177.891 11.8483V9.95261Z" fill="#3C3C43" fill-opacity="0.6"/>
<path fill-rule="evenodd" clip-rule="evenodd" d="M167.938 8.05688H175.995C176.781 8.05688 177.417 8.69345 177.417 9.47869V12.3223C177.417 13.1075 176.781 13.7441 175.995 13.7441H167.938C167.153 13.7441 166.517 13.1075 166.517 12.3223V9.47869C166.517 8.69345 167.153 8.05688 167.938 8.05688ZM167.938 8.53082C167.415 8.53082 166.991 8.95519 166.991 9.47869V12.3223C166.991 12.8458 167.415 13.2702 167.938 13.2702H175.995C176.519 13.2702 176.943 12.8458 176.943 12.3223V9.47869C176.943 8.95519 176.519 8.53082 175.995 8.53082H167.938Z" fill="#3C3C43" fill-opacity="0.6"/>
<rect x="167.464" y="9.00473" width="9.00474" height="3.79147" rx="0.473934" fill="black"/>
<path d="M17.9466 13.3123C19.2205 13.3123 19.9772 12.316 19.9772 10.629C19.9772 9.99381 19.8557 9.45925 19.6231 9.04617C19.2864 8.404 18.7068 8.05688 17.9743 8.05688C16.8844 8.05688 16.1138 8.78931 16.1138 9.81678C16.1138 10.7818 16.808 11.483 17.7626 11.483C18.3492 11.483 18.8248 11.2087 19.0608 10.7332H19.0712C19.0712 10.7332 19.0851 10.7332 19.0886 10.7332C19.0955 10.7332 19.1198 10.7332 19.1198 10.7332C19.1198 11.8787 18.6859 12.5625 17.9535 12.5625C17.5231 12.5625 17.1898 12.3265 17.0753 11.9481H16.1832C16.3325 12.7708 17.0302 13.3123 17.9466 13.3123ZM17.9778 10.7714C17.4016 10.7714 16.992 10.3618 16.992 9.78901C16.992 9.23015 17.4224 8.80319 17.9813 8.80319C18.5401 8.80319 18.9706 9.23709 18.9706 9.8029C18.9706 10.3618 18.5505 10.7714 17.9778 10.7714Z" fill="black"/>
<path d="M21.4422 13.2637C21.772 13.2637 21.9976 13.0276 21.9976 12.7152C21.9976 12.3993 21.772 12.1668 21.4422 12.1668C21.1159 12.1668 20.8868 12.3993 20.8868 12.7152C20.8868 13.0276 21.1159 13.2637 21.4422 13.2637ZM21.4422 10.6603C21.772 10.6603 21.9976 10.4277 21.9976 10.1153C21.9976 9.79942 21.772 9.56685 21.4422 9.56685C21.1159 9.56685 20.8868 9.79942 20.8868 10.1153C20.8868 10.4277 21.1159 10.6603 21.4422 10.6603Z" fill="black"/>
<path d="M25.2468 13.1908H26.1041V12.257H26.781V11.5003H26.1041V8.18185H24.8406C23.9555 9.51479 23.2508 10.629 22.7996 11.4587V12.257H25.2468V13.1908ZM23.6292 11.4691C24.2123 10.4416 24.733 9.61892 25.212 8.9108H25.2606V11.5211H23.6292V11.4691Z" fill="black"/>
<path d="M28.6903 13.1908H29.5859V8.18185H28.6938L27.3852 9.09824V9.9591L28.6313 9.08436H28.6903V13.1908Z" fill="black"/>
</g>
<rect x="20.5127" y="150.625" width="21.75" height="20.75" fill="#1E1E1E"/>
<rect x="20.5127" y="150.625" width="21.75" height="20.75" stroke="#FFFFE3" stroke-width="1.25"/>
<path d="M27.9834 165.161C26.4502 165.161 25.6055 163.852 25.6055 161.479C25.6055 159.106 26.4502 157.798 27.9834 157.798C29.5117 157.798 30.3613 159.106 30.3613 161.479C30.3613 163.852 29.5117 165.161 27.9834 165.161ZM26.46 161.479C26.46 161.758 26.4746 162.017 26.4941 162.256L29.3359 159.883C29.1064 159.009 28.6475 158.56 27.9834 158.56C26.9873 158.56 26.46 159.565 26.46 161.479ZM27.9834 164.399C28.9795 164.399 29.502 163.389 29.502 161.479C29.502 161.196 29.4922 160.937 29.4678 160.693L26.6357 163.086C26.8652 163.95 27.3193 164.399 27.9834 164.399ZM36.8213 165H31.9092V164.243H33.9893V158.931H33.9111L31.8945 160.234V159.316L33.9941 157.954H34.8389V164.243H36.8213V165Z" fill="#FFFFE3"/>
</g>
<defs>
<clipPath id="clip0_268_8634">
<rect width="183.982" height="400" fill="white"/>
</clipPath>
<clipPath id="clip1_268_8634">
<rect x="17.5352" y="352.607" width="151.659" height="19.4787" rx="9.73934" fill="white"/>
</clipPath>
<clipPath id="clip2_268_8634">
<rect x="1.89551" y="22.7488" width="18.9573" height="18.9573" rx="9.47867" fill="white"/>
</clipPath>
<clipPath id="clip3_268_8634">
<rect width="184.834" height="20.8531" fill="white"/>
</clipPath>
</defs>
</svg>
