<svg width="88" height="38" viewBox="0 0 88 38" fill="none" xmlns="http://www.w3.org/2000/svg">
<path d="M36.7686 20.2121V3.97211" stroke="#6F3B24" stroke-width="2.24" stroke-linecap="round"/>
<path d="M26.6885 6.21211C30.0485 -0.50788 35.0885 0.382561 36.9085 3.41212C39.0085 0.382561 44.6085 0.0521167 46.8485 6.21212M31.3085 7.89213C33.1005 1.80405 35.7885 2.64962 36.9085 3.83341C38.0285 2.64962 40.7165 1.80405 42.5085 7.89213" stroke="#148F27" stroke-width="2.24" stroke-linecap="round" stroke-linejoin="round"/>
<rect width="82" height="18" transform="translate(3.60864 19.8403)" fill="#1696FF"/>
<path d="M60.2087 33.5131L64.7253 31.3369C65.8773 30.7818 67.2194 30.7818 68.3714 31.3369L71.0649 32.6347C72.2169 33.1897 73.559 33.1897 74.711 32.6347L76.6121 31.7187C77.7641 31.1637 79.1062 31.1637 80.2582 31.7187L82.1593 32.6347C83.3113 33.1897 84.6534 33.1897 85.8054 32.6347L88.4989 31.3369C89.6509 30.7818 90.993 30.7818 92.145 31.3369L94.8385 32.6347C95.9905 33.1897 97.3326 33.1897 98.4846 32.6347L102.209 30.8403" stroke="#0E0E10" stroke-width="2.24" stroke-linecap="round"/>
<path d="M50.2087 21.713L54.7253 19.5368C55.8773 18.9818 57.2194 18.9818 58.3714 19.5368L61.0649 20.8346C62.2169 21.3897 63.559 21.3897 64.711 20.8346L66.6121 19.9187C67.7641 19.3636 69.1062 19.3636 70.2582 19.9187L72.1593 20.8346C73.3113 21.3897 74.6534 21.3897 75.8054 20.8346L78.4989 19.5368C79.6509 18.9818 80.993 18.9818 82.145 19.5368L84.8385 20.8346C85.9905 21.3897 87.3326 21.3897 88.4846 20.8346L92.2087 19.0403" stroke="#0E0E10" stroke-width="2.24" stroke-linecap="round"/>
<path d="M0.648682 21.713L5.16525 19.5368C6.31725 18.9818 7.65937 18.9818 8.81137 19.5368L11.5049 20.8346C12.6569 21.3897 13.999 21.3897 15.151 20.8346L17.052 19.9187C18.204 19.3636 19.5462 19.3636 20.6982 19.9187L22.5992 20.8346C23.7512 21.3897 25.0933 21.3897 26.2453 20.8346L28.9388 19.5368C30.0908 18.9818 31.4329 18.9818 32.5849 19.5368L35.2785 20.8346C36.4305 21.3897 37.7726 21.3897 38.9246 20.8346L42.6487 19.0403" stroke="#0E0E10" stroke-width="2.24" stroke-linecap="round"/>
<path d="M47.4922 13.7304C41.7378 12.4958 36.0568 18.2735 33.6466 21.7217C33.4885 21.9479 33.4084 22.218 33.4084 22.494V27.0004H65.6084C66.3816 27.0004 67.0084 26.3736 67.0084 25.6004V23.2373C67.0084 22.4883 66.6639 21.7679 66.0459 21.2249L61.0451 16.8307C60.6341 16.4695 59.9941 16.3656 59.4508 16.5717L56.9453 17.5224C56.6621 17.6299 56.3445 17.6568 56.0436 17.5911C53.6999 17.0793 49.7149 15.8932 48.4145 14.3613C48.1779 14.0826 47.8885 13.8154 47.4922 13.7304Z" fill="#FFF898" stroke="#0E0E10" stroke-width="2.24" stroke-linecap="round"/>
<path d="M26.9089 17.398C27.8853 16.7461 29.1916 16.9039 29.9851 17.7691L33.5857 21.6968C33.9758 22.1224 34.5001 22.4016 35.071 22.4869L40.1248 23.2418C40.3304 23.2725 40.5208 23.368 40.6687 23.5142L44.5369 27.3384H44.5378L44.9421 27.7691C45.1093 27.948 44.982 28.2408 44.7371 28.2408H21.3689C21.2143 28.2408 21.0887 28.1151 21.0886 27.9605V27.7984C21.0886 23.7292 23.1205 19.9282 26.5046 17.6685L26.9089 17.398Z" fill="#30302A" stroke="#30302A" stroke-width="2.24"/>
</svg>
